<svg xmlns="http://www.w3.org/2000/svg" viewBox="0 0 421.6 546.6" version="1.1" id="Layer_1">
  
  <defs>
    <style>
      .st0 {
        fill: #fff;
      }

      .st1 {
        fill: #fbd83c;
      }

      .st2 {
        fill: #4fab4b;
      }
    </style>
  </defs>
  <path d="M411.8,319.5c0,129.5-89.5,215.7-199.9,215.7S12.1,449,12.1,319.5,101.6,15.9,212,15.9s199.9,162.5,199.9,303.6Z" class="st2"/>
  <g>
    <path d="M207.1,279.2c-2.7-17.4,7.4-58.3,35.9-46.4,21.4,9,19.7,33.4,1,41.8-18.6,8.5-25.1,12.1-25.9,12.1-1.7-1.7-5.1-6.8-11.1-7.5Z" class="st0"/>
    <path d="M205.4,282.4c0-14.6-1.3-71.5-40.6-51.9-30.7,15.4-9.8,54.4,29.7,57.8,2.9-3,6.6-5.4,10.9-6Z" class="st0"/>
    <path d="M218.2,289.5c21.8-15.4,59.6-22.5,61.6,3,2.1,25.5-47.4,24.9-62.6,8.5.4-2.4,5.1-8,1-11.5Z" class="st0"/>
    <path d="M217.3,306c18.1,2.5,67.2,27.7,32.3,50.2-34.9,22.5-46.8-30.6-39.9-47.1,3.9-.4,6.9-1.8,7.6-3Z" class="st0"/>
    <path d="M206.8,310.7c-1.5,17,3.9,61.6-30.9,45.8-34.8-15.8.4-47.1,23.1-48.8,1.2.4,2.1,2.5,7.9,3Z" class="st0"/>
    <path d="M193.7,291.2c-23.8-7.4-64-34.4-69,2.9-5,37.3,47.8,33.6,69.9,6.2-1.7-2.6-1.9-5.8-.8-9.1Z" class="st0"/>
    <circle r="20.3" cy="294.3" cx="205.4" class="st1"/>
  </g>
  <g>
    <path d="M273.9,106c11.9-6.9,44.4-11.2,43.9,12.8-.4,18.1-18.6,23.7-30,12.7-11.4-11.1-15.9-14.8-16.1-15.3.7-1.7,3.5-5.6,2.3-10.2Z" class="st0"/>
    <path d="M271.1,105.6c10.6-4.2,51.4-21.3,26-44.2-19.9-17.9-42.2,8.4-33.4,38,3,1.2,5.7,3.2,7.4,6.2Z" class="st0"/>
    <path d="M269.6,117c17.3,11.4,33.3,36.8,15.4,45.5-17.9,8.7-31.5-27.2-24-43,1.9-.4,7.2,1.4,8.6-2.6Z" class="st0"/>
    <path d="M257.4,120.9c3.3,13.9-.9,56.6-27.2,37.7-26.2-18.9,8.8-42.6,22.8-42.3,1.4,2.7,3.3,4.5,4.4,4.7Z" class="st0"/>
    <path d="M251,114.7c-12.8,3.8-43.6,20.4-42-9.4,1.6-29.7,34.3-13.2,42,2.8,0,1-1.3,2.2,0,6.6Z" class="st0"/>
    <path d="M261.3,99.7c-1.4-19.3,6.7-56.2-21.8-49.2-28.5,7-10.7,44.2,15.4,52.4,1.4-2,3.7-3,6.4-3.2Z" class="st0"/>
    <path d="M268.3,123.7c-8.1,3.2-17.3-.8-20.5-8.9-3.2-8.1.8-17.3,8.9-20.5,8.1-3.2,17.3.8,20.5,8.9,3.2,8.1-.8,17.3-8.9,20.5Z" class="st1"/>
  </g>
  <g>
    <path d="M287.3,461.4c10.1-5.9,37.9-9.6,37.4,10.9-.3,15.4-15.9,20.3-25.6,10.8-9.8-9.5-13.6-12.6-13.8-13.1.6-1.5,3-4.8,1.9-8.7Z" class="st0"/>
    <path d="M284.9,461.1c9-3.6,43.9-18.2,22.2-37.7-17-15.3-36,7.2-28.5,32.4,2.6,1.1,4.9,2.8,6.3,5.3Z" class="st0"/>
    <path d="M283.6,470.8c14.8,9.7,28.4,31.4,13.1,38.9-15.3,7.5-26.9-23.3-20.4-36.7,1.6-.4,6.2,1.2,7.3-2.2Z" class="st0"/>
    <path d="M273.2,474.2c2.8,11.8-.8,48.3-23.2,32.1-22.4-16.1,7.5-36.4,19.5-36.1,1.2,2.3,2.8,3.8,3.7,4Z" class="st0"/>
    <path d="M267.7,468.9c-10.9,3.2-37.2,17.4-35.8-8,1.3-25.4,29.2-11.2,35.8,2.4,0,.8-1.1,1.9,0,5.6Z" class="st0"/>
    <path d="M276.6,456.1c-1.2-16.5,5.7-48-18.6-42-24.3,6-9.2,37.7,13.1,44.7,1.2-1.7,3.1-2.6,5.4-2.7Z" class="st0"/>
    <path d="M282.5,476.6c-6.9,2.7-14.7-.7-17.5-7.6-2.7-6.9.7-14.7,7.6-17.5s14.7.7,17.5,7.6-.7,14.7-7.6,17.5Z" class="st1"/>
  </g>
  <g>
    <path d="M66.7,379.1c8.6-5,32.3-8.2,32,9.3-.3,13.2-13.5,17.3-21.9,9.2-8.3-8.1-11.6-10.8-11.7-11.1.5-1.2,2.5-4.1,1.6-7.4Z" class="st0"/>
    <path d="M64.7,378.8c7.7-3,37.5-15.5,19-32.2-14.5-13-30.8,6.1-24.4,27.7,2.2.9,4.2,2.4,5.4,4.5Z" class="st0"/>
    <path d="M63.6,387.1c12.6,8.3,24.2,26.8,11.2,33.2-13,6.4-23-19.9-17.5-31.3,1.4-.3,5.3,1,6.3-1.9Z" class="st0"/>
    <path d="M54.7,390c2.4,10.1-.7,41.2-19.8,27.4-19.1-13.8,6.4-31,16.6-30.8,1,2,2.4,3.3,3.2,3.4Z" class="st0"/>
    <path d="M50,385.5c-9.3,2.8-31.7,14.8-30.6-6.8,1.1-21.7,25-9.6,30.6,2.1,0,.7-.9,1.6,0,4.8Z" class="st0"/>
    <path d="M57.6,374.5c-1-14.1,4.9-40.9-15.9-35.8-20.8,5.1-7.8,32.2,11.2,38.2,1-1.4,2.7-2.2,4.6-2.3Z" class="st0"/>
    <path d="M62.6,392c-5.9,2.3-12.6-.6-14.9-6.5-2.3-5.9.6-12.6,6.5-14.9,5.9-2.3,12.6.6,14.9,6.5,2.3,5.9-.6,12.6-6.5,14.9Z" class="st1"/>
  </g>
  <g>
    <path d="M86,191.1c6-3.5,22.5-5.7,22.3,6.5-.2,9.2-9.4,12.1-15.2,6.4-5.8-5.6-8.1-7.5-8.2-7.8.4-.9,1.8-2.8,1.2-5.2Z" class="st0"/>
    <path d="M84.6,190.9c5.4-2.1,26.1-10.8,13.2-22.4-10.1-9.1-21.4,4.3-17,19.3,1.5.6,2.9,1.6,3.8,3.2Z" class="st0"/>
    <path d="M83.8,196.7c8.8,5.8,16.9,18.7,7.8,23.1-9.1,4.4-16-13.8-12.2-21.8.9-.2,3.7.7,4.4-1.3Z" class="st0"/>
    <path d="M77.6,198.7c1.7,7-.5,28.7-13.8,19.1-13.3-9.6,4.5-21.6,11.6-21.5.7,1.4,1.7,2.3,2.2,2.4Z" class="st0"/>
    <path d="M74.4,195.5c-6.5,1.9-22.1,10.3-21.3-4.8.8-15.1,17.4-6.7,21.3,1.4,0,.5-.6,1.1,0,3.3Z" class="st0"/>
    <path d="M79.6,187.9c-.7-9.8,3.4-28.5-11-25-14.5,3.6-5.4,22.4,7.8,26.6.7-1,1.9-1.5,3.2-1.6Z" class="st0"/>
    <path d="M83.1,200.1c-4.1,1.6-8.8-.4-10.4-4.5-1.6-4.1.4-8.8,4.5-10.4,4.1-1.6,8.8.4,10.4,4.5,1.6,4.1-.4,8.8-4.5,10.4Z" class="st1"/>
  </g>
  <g>
    <path d="M380.4,311.2c5-2.9,18.8-4.8,18.6,5.4-.2,7.7-7.9,10.1-12.7,5.4-4.9-4.7-6.8-6.3-6.8-6.5.3-.7,1.5-2.4,1-4.3Z" class="st0"/>
    <path d="M379.2,311.1c4.5-1.8,21.8-9,11-18.8-8.4-7.6-17.9,3.6-14.2,16.1,1.3.5,2.4,1.4,3.1,2.6Z" class="st0"/>
    <path d="M378.6,315.9c7.3,4.8,14.1,15.6,6.5,19.3-7.6,3.7-13.4-11.6-10.2-18.2.8-.2,3.1.6,3.6-1.1Z" class="st0"/>
    <path d="M373.4,317.6c1.4,5.9-.4,24-11.5,16-11.1-8,3.8-18.1,9.7-18,.6,1.1,1.4,1.9,1.8,2Z" class="st0"/>
    <path d="M370.7,314.9c-5.4,1.6-18.5,8.6-17.8-4,.7-12.6,14.5-5.6,17.8,1.2,0,.4-.5.9,0,2.8Z" class="st0"/>
    <path d="M375.1,308.6c-.6-8.2,2.9-23.8-9.2-20.9s-4.6,18.7,6.5,22.2c.6-.8,1.6-1.3,2.7-1.4Z" class="st0"/>
    <path d="M378,318.7c-3.4,1.4-7.3-.3-8.7-3.8-1.4-3.4.3-7.3,3.8-8.7,3.4-1.4,7.3.3,8.7,3.8,1.4,3.4-.3,7.3-3.8,8.7Z" class="st1"/>
  </g>
</svg>