<svg xmlns:xlink="http://www.w3.org/1999/xlink" xmlns="http://www.w3.org/2000/svg" viewBox="0 0 421.6 546.6" version="1.1" id="Layer_1">
  
  <defs>
    <style>
      .st0 {
        fill: #f2f2f2;
      }

      .st1 {
        fill: #fbd83c;
      }

      .st2 {
        fill: none;
      }

      .st3 {
        fill: #feeef0;
      }

      .st4 {
        fill: #f38ebb;
      }

      .st5 {
        clip-path: url(#clippath);
      }
    </style>
    <clipPath id="clippath">
      <path d="M416.1,319.5c0,129.5-89.5,215.7-199.9,215.7S16.4,449,16.4,319.5,105.9,15.9,216.3,15.9s199.9,162.5,199.9,303.6Z" class="st2"/>
    </clipPath>
  </defs>
  <g class="st5">
    <path d="M416.1,319.5c0,129.5-89.5,215.7-199.9,215.7S16.4,449,16.4,319.5,105.9,15.9,216.3,15.9s199.9,162.5,199.9,303.6Z" class="st4"/>
    <g>
      <path d="M364.7,126.7c-1-1.8-2.1-3.5-3.1-5.3-62.3,29.8-246.2,35.6-293.1,1.6-1,1.7-2,3.5-2.9,5.3,23.7,16.1,77.6,23.4,134.6,23.4s131.3-9.1,164.5-25Z" class="st1"/>
      <path d="M355,110.7c-1.6-2.5-3.2-5.1-4.9-7.5-65.8,24.1-216.1,28.7-271,2.9-1.6,2.4-3.2,4.8-4.7,7.2,27.3,12.9,75.6,18.8,126.3,18.8s118.2-7.7,154.3-21.4Z" class="st3"/>
      <path d="M196.4,441.8c80.2,0,173-21.9,213.8-66.4.9-4.2,1.7-8.5,2.5-12.8-33.2,47.1-135.3,78.3-238.9,72.5-69.8-3.9-122.9-23.5-150.1-54.6,1,4.1,2.1,8.2,3.3,12.2,30,27.7,81.2,45,146.4,48.6,7.5.4,15.2.6,23,.6Z" class="st1"/>
      <path d="M196.3,467.1c73.2,0,157-18.3,202.5-55.3,2.4-5.9,4.6-12,6.5-18.2-38.3,42.3-134.2,69.5-231.5,64.1-61.8-3.4-110.5-19.2-139.5-44.5,2.4,5.8,5,11.4,7.8,16.8,31,20.5,76.1,33.4,131.1,36.4,7.5.4,15.2.6,23,.6Z" class="st3"/>
      <path d="M231.9,281.2c3.9-1.9,10.5-5.1,21-9.9,18.6-8.5,20.4-32.9-1-41.8-26-10.9-36.7,22.2-36.3,41.3,7.1.5,13.1,4.5,16.4,10.4Z" class="st1"/>
      <path d="M214,270.7c-.9-20.8-6.7-60.3-40.4-43.5-28.6,14.3-12.5,49,21.7,56.6,2.9-7.6,10.1-13,18.7-13.1Z" class="st1"/>
      <path d="M231.3,301.9c18.9,12.1,59.3,10.5,57.4-12.6-1.9-23.4-33.9-19.3-56-6.6,1.1,2.5,1.8,5.3,1.8,8.3s-1.2,7.7-3.2,10.9Z" class="st1"/>
      <path d="M217,310.9c-3.2,20.2,9.5,62.3,41.3,41.9,32.6-21-8-44.3-28.3-49.4-3.2,4-7.7,6.7-13,7.5Z" class="st1"/>
      <path d="M200.5,305.8c-21.9,6.5-47,33.2-15.8,47.4,32.5,14.8,30-23.1,30.7-42.1-.4,0-.8.1-1.2.1-5.3,0-10.1-2.1-13.7-5.4Z" class="st1"/>
      <path d="M197.8,302.8c-2.4-3.3-3.9-7.4-3.9-11.8s.4-3.9.9-5.8c-23.9-9.5-56.9-27.9-61.4,5.7-4.6,34.5,40.1,33.9,64.3,12Z" class="st1"/>
      <path d="M197.8,302.8c.8,1.1,1.7,2.1,2.7,3,3.6,3.3,8.4,5.4,13.7,5.4s.8,0,1.2-.1c.5,0,1.1,0,1.6-.2,5.3-.7,9.9-3.5,13-7.5.4-.5.8-1,1.2-1.6,2-3.2,3.2-6.9,3.2-10.9s-.7-5.8-1.8-8.3c-.2-.5-.5-1-.8-1.4-3.3-5.9-9.3-9.9-16.4-10.4-.4,0-.9-.1-1.3-.1s-.1,0-.2,0c-8.6,0-15.8,5.5-18.7,13.1-.2.5-.3.9-.4,1.4-.6,1.8-.9,3.8-.9,5.8,0,4.4,1.5,8.5,3.9,11.8Z" class="st0"/>
      <path d="M391.6,250.6c4.5,4.6,6,10.9,4.7,16.8,3.3,1,8.7,2.5,16.6,5-1.5-11.4-3.5-22.8-6-34.2-6.1,3.4-11.6,8-15.3,12.3Z" class="st1"/>
      <path d="M370.2,247.1c6.5-3.3,14.6-2.6,20.4,2.6,4.6-5.6,10.4-13.4,13.9-21.5-2.5-10.1-5.3-20-8.5-29.8-1.8-.8-3.8-1.6-6.1-2.2-27.7-7.7-38,25.3-19.6,51Z" class="st1"/>
      <path d="M392.1,275.6c-2.4,2.7-5.5,4.5-8.7,5.3,3.9,14.1,19.4,30.1,32.6,31.7-.3-12.5-1.2-25.1-2.8-37.7-5.4-2.7-11.4-4.7-17.3-6-.8,2.4-2,4.7-3.8,6.7Z" class="st1"/>
      <path d="M368.4,278.4c-14.3,11.6-31.3,47.5,2.3,53,34.5,5.7,21.4-34.5,10.9-50.1-4.5.8-9.3-.2-13.2-2.9Z" class="st1"/>
      <path d="M360.4,265c-18.6-8.9-51.6-6.3-39.2,22.2,12.8,29.6,34.1,2.6,46-9.6-.3-.2-.6-.4-.9-.7-3.5-3.2-5.5-7.5-5.9-11.9Z" class="st1"/>
      <path d="M369.1,247.7c-10.3-20.8-21.2-53-44.5-33.3-23.9,20.3,6.4,46.9,35.8,46.9.4-3.7,1.9-7.3,4.6-10.3,1.2-1.4,2.6-2.4,4.1-3.3Z" class="st1"/>
      <path d="M395.9,268.9c.2-.5.2-1,.3-1.4,1.4-5.9-.2-12.3-4.7-16.8-.3-.3-.5-.6-.8-.9,0,0,0,0-.1-.1-5.8-5.1-13.9-5.9-20.4-2.6-.4.2-.8.4-1.1.7-1.5.9-2.9,2-4.1,3.3-2.7,3-4.2,6.6-4.6,10.3-.1,1.2-.1,2.4,0,3.6.4,4.4,2.4,8.7,5.9,11.9.3.3.6.4.9.7.4.3.8.6,1.2.9,4,2.7,8.7,3.6,13.2,2.9.6-.1,1.2-.2,1.8-.3,3.3-.9,6.3-2.7,8.7-5.3,1.8-2,3-4.3,3.8-6.7Z" class="st0"/>
      <path d="M67.1,284.4c3.8,1.1,10.1,2.9,20,6.1,17.6,5.6,33.5-9.7,24.6-28.6-10.9-23-38-7.3-49.3,5.7,4.5,4.6,6,10.9,4.7,16.8Z" class="st1"/>
      <path d="M61.5,266.6c11.9-14.5,32-44.4-.8-53.5-27.7-7.7-38,25.3-19.6,51,6.5-3.3,14.6-2.6,20.4,2.6Z" class="st1"/>
      <path d="M54.2,297.9c5.4,19.6,33.3,42.8,46.1,26.2,12.9-16.8-11.1-33.4-33.5-38.2-.8,2.4-2,4.7-3.8,6.7-2.4,2.7-5.5,4.5-8.7,5.3Z" class="st1"/>
      <path d="M39.2,295.4c-14.3,11.6-31.3,47.5,2.3,53,34.5,5.7,21.4-34.5,10.9-50.1-4.5.8-9.3-.2-13.2-2.9Z" class="st1"/>
      <path d="M38,294.5c-.3-.2-.6-.4-.9-.7-3.5-3.2-5.5-7.5-5.9-11.9-3.8-1.8-8.1-3.1-12.5-3.8-1.3,12-2,24.1-2.2,36.2,8-4.8,15.8-14,21.5-19.8Z" class="st1"/>
      <path d="M35.8,268c1.2-1.4,2.6-2.4,4.1-3.3-4.4-8.9-8.9-19.9-14.5-28-2.8,13.2-5,26.7-6.5,40.2,4,1,8.2,1.5,12.4,1.5.4-3.7,1.9-7.3,4.6-10.3Z" class="st1"/>
      <path d="M31.2,278.3c-.1,1.2-.1,2.4,0,3.6.4,4.4,2.4,8.7,5.9,11.9.3.3.6.4.9.7.4.3.8.6,1.2.9,4,2.7,8.7,3.6,13.2,2.9.6-.1,1.2-.2,1.8-.3,3.3-.9,6.3-2.7,8.7-5.3,1.8-2,3-4.3,3.8-6.7.2-.5.2-1,.3-1.4,1.4-5.9-.2-12.3-4.7-16.8-.3-.3-.5-.6-.8-.9,0,0,0,0-.1-.1-5.8-5.1-13.9-5.9-20.4-2.6-.4.2-.8.4-1.1.7-1.5.9-2.9,2-4.1,3.3-2.7,3-4.2,6.6-4.6,10.3Z" class="st0"/>
    </g>
  </g>
</svg>