<svg version="1.1" xmlns="http://www.w3.org/2000/svg" xmlns:xlink="http://www.w3.org/1999/xlink" width="149.6884" height="194.80447" viewBox="0,0,149.6884,194.80447"><defs><linearGradient x1="180" y1="222.59777" x2="180" y2="417.40224" gradientUnits="userSpaceOnUse" id="color-1"><stop offset="0" stop-color="#ffe166"/><stop offset="1" stop-color="#ff66a3"/></linearGradient><linearGradient x1="105.1558" y1="320" x2="254.8442" y2="320" gradientUnits="userSpaceOnUse" id="color-2"><stop offset="0" stop-color="#ffe166"/><stop offset="1" stop-color="#ffe166" stop-opacity="0"/></linearGradient></defs><g transform="translate(-105.1558,-222.59776)"><g stroke-miterlimit="10"><path d="M180.12769,222.59777c32.33847,0 74.03848,48.02251 74.71015,111.6001c0.60717,57.47077 -42.37168,83.20437 -74.71015,83.20437c-32.33847,0 -75.95711,-23.7808 -74.95493,-82.95958c1.06838,-63.08845 42.61648,-111.84489 74.95493,-111.84489z" fill="url(#color-1)" stroke="none" stroke-width="0" stroke-linecap="butt"/><path d="M180.12769,222.59777c32.33847,0 74.03848,48.02251 74.71015,111.6001c0.60717,57.47077 -42.37168,83.20437 -74.71015,83.20437c-32.33847,0 -75.95711,-23.7808 -74.95493,-82.95958c1.06838,-63.08845 42.61648,-111.84489 74.95493,-111.84489z" fill="url(#color-2)" stroke="none" stroke-width="0" stroke-linecap="butt"/><path d="M248.70461,369.61097c0,0 -19.65136,18.37383 -70.05096,20.80721c-40.29819,1.94566 -65.35913,-15.17702 -65.35913,-15.17702" fill="none" stroke="#000000" stroke-width="2" stroke-linecap="round"/><path d="M252.62125,356.14746c0,0 -17.51323,22.2886 -74.21241,25.21344c-45.45731,2.3449 -69.52059,-18.6041 -69.52059,-18.6041" fill="none" stroke="#000000" stroke-width="2" stroke-linecap="round"/><path d="M230.3045,256.9256c0,0 -20.41522,7.11737 -53.85399,7.58851c-34.74786,0.48959 -46.99982,-6.36457 -46.99982,-6.36457" fill="none" stroke="#000000" stroke-width="2" stroke-linecap="round"/><path d="M234.95551,263.77975c0,0 -26.2902,8.09656 -59.72894,8.56768c-34.74786,0.48959 -49.69252,-7.58851 -49.69252,-7.58851" fill="none" stroke="#000000" stroke-width="2" stroke-linecap="round"/><path d="M123.08614,301.84469c0,-6.15135 4.98665,-11.13798 11.13798,-11.13798c6.15135,0 11.13798,4.98665 11.13798,11.13798c0,6.15135 -4.98665,11.13798 -11.13798,11.13798c-6.15135,0 -11.13798,-4.98665 -11.13798,-11.13798z" fill="#ff25ed" stroke="#000000" stroke-width="2" stroke-linecap="butt"/><path d="M143.40377,343.94872c0,-6.15135 4.98665,-11.13798 11.13798,-11.13798c6.15135,0 11.13798,4.98665 11.13798,11.13798c0,6.15135 -4.98665,11.13798 -11.13798,11.13798c-6.15135,0 -11.13798,-4.98665 -11.13798,-11.13798z" fill="#ffd626" stroke="#000000" stroke-width="2" stroke-linecap="butt"/><path d="M183.79427,348.11017c0,-6.15135 4.98665,-11.13798 11.13798,-11.13798c6.15135,0 11.13798,4.98665 11.13798,11.13798c0,6.15135 -4.98665,11.13798 -11.13798,11.13798c-6.15135,0 -11.13798,-4.98665 -11.13798,-11.13798z" fill="#26a0ff" stroke="#000000" stroke-width="2" stroke-linecap="butt"/><path d="M164.45578,295.72495c0,-6.15135 4.98665,-11.13798 11.13798,-11.13798c6.15135,0 11.13798,4.98665 11.13798,11.13798c0,6.15135 -4.98665,11.13798 -11.13798,11.13798c-6.15135,0 -11.13798,-4.98665 -11.13798,-11.13798z" fill="#26a0ff" stroke="#000000" stroke-width="2" stroke-linecap="butt"/><path d="M206.80459,321.42798c0,-6.15135 4.98665,-11.13798 11.13798,-11.13798c6.15135,0 11.13798,4.98665 11.13798,11.13798c0,6.15135 -4.98665,11.13798 -11.13798,11.13798c-6.15135,0 -11.13798,-4.98665 -11.13798,-11.13798z" fill="#26ff41" stroke="#000000" stroke-width="2" stroke-linecap="butt"/><path d="M221.24722,285.19895c0,-6.15135 4.98665,-11.13798 11.13798,-11.13798c6.15135,0 11.13798,4.98665 11.13798,11.13798c0,6.15135 -4.98665,11.13798 -11.13798,11.13798c-6.15135,0 -11.13798,-4.98665 -11.13798,-11.13798z" fill="#26ff41" stroke="#000000" stroke-width="2" stroke-linecap="butt"/><path d="M228.10139,344.1935c0,-6.15135 4.98665,-11.13798 11.13798,-11.13798c6.15135,0 11.13798,4.98665 11.13798,11.13798c0,6.15135 -4.98665,11.13798 -11.13798,11.13798c-6.15135,0 -11.13798,-4.98665 -11.13798,-11.13798z" fill="#ff25ed" stroke="#000000" stroke-width="2" stroke-linecap="butt"/><path d="M115.74239,337.09458c0,-6.15135 4.98665,-11.13798 11.13798,-11.13798c6.15135,0 11.13798,4.98665 11.13798,11.13798c0,6.15135 -4.98665,11.13798 -11.13798,11.13798c-6.15135,0 -11.13798,-4.98665 -11.13798,-11.13798z" fill="#ffd626" stroke="#000000" stroke-width="2" stroke-linecap="butt"/></g></g></svg>