<svg version="1.1" xmlns="http://www.w3.org/2000/svg" xmlns:xlink="http://www.w3.org/1999/xlink" width="55.82851" height="204.94365" viewBox="0,0,55.82851,204.94365"><g transform="translate(-152.08574,-218.15317)"><g stroke-miterlimit="10"><g stroke="#000000" stroke-width="2.5" stroke-linecap="butt"><path d="M179.75406,421.84683c-13.71176,0 -24.82734,-6.63736 -24.82734,-14.82496c0,-8.1876 11.11558,-14.82496 24.82734,-14.82496c13.71176,0 24.82734,6.63736 24.82734,14.82496c0,8.1876 -11.11558,14.82496 -24.82734,14.82496z" fill="#ffd658"/><path d="M206.09817,405.15525c0,7.85258 -11.81127,14.21836 -26.38121,14.21836c-14.56994,0 -26.38121,-6.36578 -26.38121,-14.21836c0,-7.85258 11.81127,-14.21835 26.38121,-14.21835c14.56994,0 26.38121,6.36577 26.38121,14.21835z" fill="none"/><path d="M206.66426,403.17394c0,7.85258 -11.81127,14.21836 -26.38121,14.21836c-14.56994,0 -26.38121,-6.36578 -26.38121,-14.21836c0,-7.85258 11.81127,-14.21835 26.38121,-14.21835c14.56994,0 26.38121,6.36577 26.38121,14.21835z" fill="none"/></g><g><path d="M180.45059,348.47151c9.93693,0 22.75047,14.75631 22.95686,34.29237c0.18657,17.65956 -13.01993,25.56696 -22.95686,25.56696c-9.93693,0 -23.34003,-7.30734 -23.03208,-25.49174c0.32829,-19.38576 13.09515,-34.36759 23.03208,-34.36759z" fill="#9966ff" stroke="none" stroke-width="0" stroke-linecap="butt"/><path d="M201.52284,393.64559c0,0 -6.03845,5.64589 -21.52519,6.39362c-12.38279,0.59786 -20.08349,-4.66358 -20.08349,-4.66358" fill="none" stroke="#000000" stroke-width="1" stroke-linecap="round"/><path d="M202.72634,389.50853c0,0 -5.38145,6.84882 -22.80392,7.74756c-13.96808,0.72054 -21.36222,-5.71665 -21.36222,-5.71665" fill="none" stroke="#000000" stroke-width="1" stroke-linecap="round"/><path d="M195.86887,359.01974c0,0 -6.27317,2.18702 -16.5482,2.33179c-10.67729,0.15044 -14.44206,-1.9557 -14.44206,-1.9557" fill="none" stroke="#000000" stroke-width="1" stroke-linecap="round"/><path d="M197.29803,361.12587c0,0 -8.07843,2.4879 -18.35345,2.63267c-10.67729,0.15044 -15.26947,-2.33179 -15.26947,-2.33179" fill="none" stroke="#000000" stroke-width="1" stroke-linecap="round"/><path d="M185.10602,378.52667c0,-1.89018 1.53229,-3.42247 3.42247,-3.42247c1.89018,0 3.42247,1.53229 3.42247,3.42247c0,1.89018 -1.53229,3.42247 -3.42247,3.42247c-1.89018,0 -3.42247,-1.53229 -3.42247,-3.42247z" fill="#ffd626" stroke="#000000" stroke-width="1" stroke-linecap="butt"/><path d="M172.33511,379.42209c0,-1.89018 1.53229,-3.42247 3.42247,-3.42247c1.89018,0 3.42247,1.53229 3.42247,3.42247c0,1.89018 -1.53229,3.42247 -3.42247,3.42247c-1.89018,0 -3.42247,-1.53229 -3.42247,-3.42247z" fill="#ff25ed" stroke="#000000" stroke-width="1" stroke-linecap="butt"/><path d="M179.46457,369.08109c0,-1.89018 1.53229,-3.42247 3.42247,-3.42247c1.89018,0 3.42247,1.53229 3.42247,3.42247c0,1.89018 -1.53229,3.42247 -3.42247,3.42247c-1.89018,0 -3.42247,-1.53229 -3.42247,-3.42247z" fill="#26ff41" stroke="#000000" stroke-width="1" stroke-linecap="butt"/><path d="M178.59268,389.11099c0,-1.89018 1.53229,-3.42247 3.42247,-3.42247c1.89018,0 3.42247,1.53229 3.42247,3.42247c0,1.89018 -1.53229,3.42247 -3.42247,3.42247c-1.89018,0 -3.42247,-1.53229 -3.42247,-3.42247z" fill="#26a0ff" stroke="#000000" stroke-width="1" stroke-linecap="butt"/><path d="M162.87319,370.38927c0,-1.89018 1.53229,-3.42247 3.42247,-3.42247c1.89018,0 3.42247,1.53229 3.42247,3.42247c0,1.89018 -1.53229,3.42247 -3.42247,3.42247c-1.89018,0 -3.42247,-1.53229 -3.42247,-3.42247z" fill="#ffd626" stroke="#000000" stroke-width="1" stroke-linecap="butt"/><path d="M191.39562,369.60896c0,-1.89018 1.53229,-3.42247 3.42247,-3.42247c1.89018,0 3.42247,1.53229 3.42247,3.42247c0,1.89018 -1.53229,3.42247 -3.42247,3.42247c-1.89018,0 -3.42247,-1.53229 -3.42247,-3.42247z" fill="#26ff41" stroke="#000000" stroke-width="1" stroke-linecap="butt"/><path d="M194.13556,384.99027c0,-1.89018 1.53229,-3.42247 3.42247,-3.42247c1.89018,0 3.42247,1.53229 3.42247,3.42247c0,1.89018 -1.53229,3.42247 -3.42247,3.42247c-1.89018,0 -3.42247,-1.53229 -3.42247,-3.42247z" fill="#ff25ed" stroke="#000000" stroke-width="1" stroke-linecap="butt"/><path d="M160.66634,383.65399c0,-1.89018 1.53229,-3.42247 3.42247,-3.42247c1.89018,0 3.42247,1.53229 3.42247,3.42247c0,1.89018 -1.53229,3.42247 -3.42247,3.42247c-1.89018,0 -3.42247,-1.53229 -3.42247,-3.42247z" fill="#26a0ff" stroke="#000000" stroke-width="1" stroke-linecap="butt"/></g><g><path d="M180.45059,295.3609c9.93693,0 22.75047,14.75631 22.95686,34.29237c0.18657,17.65956 -13.01993,25.56696 -22.95686,25.56696c-9.93693,0 -23.34003,-7.30734 -23.03208,-25.49174c0.32829,-19.38576 13.09515,-34.36759 23.03208,-34.36759z" fill="#9966ff" stroke="none" stroke-width="0" stroke-linecap="butt"/><path d="M201.52284,340.53497c0,0 -6.03845,5.64589 -21.52519,6.39362c-12.38279,0.59786 -20.08349,-4.66358 -20.08349,-4.66358" fill="none" stroke="#000000" stroke-width="1" stroke-linecap="round"/><path d="M202.72634,336.39792c0,0 -5.38145,6.84882 -22.80392,7.74756c-13.96808,0.72054 -21.36222,-5.71665 -21.36222,-5.71665" fill="none" stroke="#000000" stroke-width="1" stroke-linecap="round"/><path d="M195.86887,305.90912c0,0 -6.27317,2.18702 -16.5482,2.33179c-10.67729,0.15044 -14.44206,-1.9557 -14.44206,-1.9557" fill="none" stroke="#000000" stroke-width="1" stroke-linecap="round"/><path d="M197.29803,308.01526c0,0 -8.07843,2.4879 -18.35345,2.63267c-10.67729,0.15044 -15.26947,-2.33179 -15.26947,-2.33179" fill="none" stroke="#000000" stroke-width="1" stroke-linecap="round"/><path d="M185.10602,325.41605c0,-1.89018 1.53229,-3.42247 3.42247,-3.42247c1.89018,0 3.42247,1.53229 3.42247,3.42247c0,1.89018 -1.53229,3.42247 -3.42247,3.42247c-1.89018,0 -3.42247,-1.53229 -3.42247,-3.42247z" fill="#ffd626" stroke="#000000" stroke-width="1" stroke-linecap="butt"/><path d="M172.33511,326.31147c0,-1.89018 1.53229,-3.42247 3.42247,-3.42247c1.89018,0 3.42247,1.53229 3.42247,3.42247c0,1.89018 -1.53229,3.42247 -3.42247,3.42247c-1.89018,0 -3.42247,-1.53229 -3.42247,-3.42247z" fill="#ff25ed" stroke="#000000" stroke-width="1" stroke-linecap="butt"/><path d="M179.46457,315.97048c0,-1.89018 1.53229,-3.42247 3.42247,-3.42247c1.89018,0 3.42247,1.53229 3.42247,3.42247c0,1.89018 -1.53229,3.42247 -3.42247,3.42247c-1.89018,0 -3.42247,-1.53229 -3.42247,-3.42247z" fill="#26a0ff" stroke="#000000" stroke-width="1" stroke-linecap="butt"/><path d="M178.59268,336.00037c0,-1.89018 1.53229,-3.42247 3.42247,-3.42247c1.89018,0 3.42247,1.53229 3.42247,3.42247c0,1.89018 -1.53229,3.42247 -3.42247,3.42247c-1.89018,0 -3.42247,-1.53229 -3.42247,-3.42247z" fill="#ffd626" stroke="#000000" stroke-width="1" stroke-linecap="butt"/><path d="M162.87319,317.27865c0,-1.89018 1.53229,-3.42247 3.42247,-3.42247c1.89018,0 3.42247,1.53229 3.42247,3.42247c0,1.89018 -1.53229,3.42247 -3.42247,3.42247c-1.89018,0 -3.42247,-1.53229 -3.42247,-3.42247z" fill="#26a0ff" stroke="#000000" stroke-width="1" stroke-linecap="butt"/><path d="M191.39562,316.49834c0,-1.89018 1.53229,-3.42247 3.42247,-3.42247c1.89018,0 3.42247,1.53229 3.42247,3.42247c0,1.89018 -1.53229,3.42247 -3.42247,3.42247c-1.89018,0 -3.42247,-1.53229 -3.42247,-3.42247z" fill="#26ff41" stroke="#000000" stroke-width="1" stroke-linecap="butt"/><path d="M194.13556,331.87965c0,-1.89018 1.53229,-3.42247 3.42247,-3.42247c1.89018,0 3.42247,1.53229 3.42247,3.42247c0,1.89018 -1.53229,3.42247 -3.42247,3.42247c-1.89018,0 -3.42247,-1.53229 -3.42247,-3.42247z" fill="#ff25ed" stroke="#000000" stroke-width="1" stroke-linecap="butt"/><path d="M160.66634,330.54337c0,-1.89018 1.53229,-3.42247 3.42247,-3.42247c1.89018,0 3.42247,1.53229 3.42247,3.42247c0,1.89018 -1.53229,3.42247 -3.42247,3.42247c-1.89018,0 -3.42247,-1.53229 -3.42247,-3.42247z" fill="#26ff41" stroke="#000000" stroke-width="1" stroke-linecap="butt"/></g><g><path d="M180.45058,247.05123c9.93693,0 22.75047,14.75631 22.95686,34.29237c0.18657,17.65956 -13.01993,25.56696 -22.95686,25.56696c-9.93693,0 -23.34003,-7.30734 -23.03208,-25.49174c0.32829,-19.38576 13.09515,-34.36759 23.03208,-34.36759z" fill="#9966ff" stroke="none" stroke-width="0" stroke-linecap="butt"/><path d="M201.52283,292.2253c0,0 -6.03845,5.64589 -21.52519,6.39362c-12.38279,0.59786 -20.08349,-4.66358 -20.08349,-4.66358" fill="none" stroke="#000000" stroke-width="1" stroke-linecap="round"/><path d="M202.72634,288.08824c0,0 -5.38145,6.84882 -22.80392,7.74756c-13.96808,0.72054 -21.36222,-5.71665 -21.36222,-5.71665" fill="none" stroke="#000000" stroke-width="1" stroke-linecap="round"/><path d="M195.86886,257.59944c0,0 -6.27317,2.18702 -16.5482,2.33179c-10.67729,0.15044 -14.44206,-1.9557 -14.44206,-1.9557" fill="none" stroke="#000000" stroke-width="1" stroke-linecap="round"/><path d="M197.29802,259.70559c0,0 -8.07843,2.4879 -18.35345,2.63267c-10.67729,0.15044 -15.26947,-2.33179 -15.26947,-2.33179" fill="none" stroke="#000000" stroke-width="1" stroke-linecap="round"/><path d="M185.10601,277.10637c0,-1.89018 1.53229,-3.42247 3.42247,-3.42247c1.89018,0 3.42247,1.53229 3.42247,3.42247c0,1.89018 -1.53229,3.42247 -3.42247,3.42247c-1.89018,0 -3.42247,-1.53229 -3.42247,-3.42247z" fill="#ff25ed" stroke="#000000" stroke-width="1" stroke-linecap="butt"/><path d="M172.3351,278.0018c0,-1.89018 1.53229,-3.42247 3.42247,-3.42247c1.89018,0 3.42247,1.53229 3.42247,3.42247c0,1.89018 -1.53229,3.42247 -3.42247,3.42247c-1.89018,0 -3.42247,-1.53229 -3.42247,-3.42247z" fill="#ffd626" stroke="#000000" stroke-width="1" stroke-linecap="butt"/><path d="M179.46456,267.66081c0,-1.89018 1.53229,-3.42247 3.42247,-3.42247c1.89018,0 3.42247,1.53229 3.42247,3.42247c0,1.89018 -1.53229,3.42247 -3.42247,3.42247c-1.89018,0 -3.42247,-1.53229 -3.42247,-3.42247z" fill="#ff25ed" stroke="#000000" stroke-width="1" stroke-linecap="butt"/><path d="M178.59267,287.6907c0,-1.89018 1.53229,-3.42247 3.42247,-3.42247c1.89018,0 3.42247,1.53229 3.42247,3.42247c0,1.89018 -1.53229,3.42247 -3.42247,3.42247c-1.89018,0 -3.42247,-1.53229 -3.42247,-3.42247z" fill="#26a0ff" stroke="#000000" stroke-width="1" stroke-linecap="butt"/><path d="M162.87318,268.96898c0,-1.89018 1.53229,-3.42247 3.42247,-3.42247c1.89018,0 3.42247,1.53229 3.42247,3.42247c0,1.89018 -1.53229,3.42247 -3.42247,3.42247c-1.89018,0 -3.42247,-1.53229 -3.42247,-3.42247z" fill="#26ff41" stroke="#000000" stroke-width="1" stroke-linecap="butt"/><path d="M191.39561,268.18866c0,-1.89018 1.53229,-3.42247 3.42247,-3.42247c1.89018,0 3.42247,1.53229 3.42247,3.42247c0,1.89018 -1.53229,3.42247 -3.42247,3.42247c-1.89018,0 -3.42247,-1.53229 -3.42247,-3.42247z" fill="#26ff41" stroke="#000000" stroke-width="1" stroke-linecap="butt"/><path d="M194.13555,283.56998c0,-1.89018 1.53229,-3.42247 3.42247,-3.42247c1.89018,0 3.42247,1.53229 3.42247,3.42247c0,1.89018 -1.53229,3.42247 -3.42247,3.42247c-1.89018,0 -3.42247,-1.53229 -3.42247,-3.42247z" fill="#ffd626" stroke="#000000" stroke-width="1" stroke-linecap="butt"/><path d="M160.66633,282.23369c0,-1.89018 1.53229,-3.42247 3.42247,-3.42247c1.89018,0 3.42247,1.53229 3.42247,3.42247c0,1.89018 -1.53229,3.42247 -3.42247,3.42247c-1.89018,0 -3.42247,-1.53229 -3.42247,-3.42247z" fill="#26ff41" stroke="#000000" stroke-width="1" stroke-linecap="butt"/></g><g stroke="none" stroke-width="1" stroke-linecap="butt"><g fill="#009cff"><path d="M170.75428,238.4375l-11.80998,-8.44902l15.69876,2.67963z"/><path d="M185.29869,232.66812l15.69913,-2.67963l-11.81086,8.44902z"/></g><path d="M193.17845,253.85931c0,1.84517 -1.49583,3.34099 -3.34049,3.34099h-9.95321h-9.79495c-1.84467,0 -3.3405,-1.49583 -3.3405,-3.34099c0,0 -9.28873,-23.0582 -7.80513,-23.87082c0,0 11.04928,6.50438 11.80961,5.74367c0.8467,-0.8447 8.07023,-14.36543 9.13035,-14.37054c1.06112,0.00462 8.44253,13.52522 9.28873,14.37054c0.76121,0.76071 11.81047,-5.74367 11.81047,-5.74367c1.48322,0.81262 -7.80538,23.87082 -7.80488,23.87082z" fill="#00e6ff"/><g><path d="M179.88475,221.36149v35.83882h-9.79495c-1.84467,0 -3.3405,-1.49583 -3.3405,-3.34099c0,0 -9.28873,-23.0582 -7.80501,-23.87095c0,0 11.04928,6.50438 11.80961,5.74367c0.8467,-0.8447 8.07022,-14.36544 9.13034,-14.37055z" fill="#00f2ff"/><path d="M176.59556,221.36149c0,-1.77191 1.43641,-3.20832 3.20832,-3.20832c1.77191,0 3.20832,1.43641 3.20832,3.20832c0,1.77191 -1.43642,3.20833 -3.20832,3.20833c-1.77191,0 -3.20832,-1.43642 -3.20832,-3.20833z" fill="#00ceff"/></g><path d="M193.22276,253.85931c0,1.84517 -1.49582,3.34099 -3.34136,3.34099h-19.79159c-1.84467,0 -3.3405,-1.49583 -3.3405,-3.34099c0,0 7.69992,-0.45855 13.2167,-0.45855c5.51715,0 13.25675,0.45855 13.25675,0.45855z" fill="#00b3ff"/><path d="M179.88425,257.20069h-9.79445c-1.84467,0 -3.3405,-1.49583 -3.3405,-3.34099c0,0 7.69992,-0.45855 13.2167,-0.45855z" fill="#00ceff"/><path d="M177.20362,221.99764c-0.56363,-0.56364 0.05466,-2.12436 0.6193,-2.6885c0.56363,-0.56326 1.92829,-1.09843 2.49192,-0.53467c0.56363,0.56351 -2.54708,3.78731 -3.11122,3.22317z" fill="#00ffff"/><g><path d="M198.93086,230.15011c0,-1.16477 0.94423,-2.10901 2.10901,-2.10901c1.16478,0 2.10901,0.94423 2.10901,2.10901c0,1.16477 -0.94423,2.10901 -2.10901,2.10901c-1.16478,0 -2.10901,-0.94424 -2.10901,-2.10901z" fill="#00ceff"/><path d="M199.33062,230.57034c-0.3703,-0.3708 0.03594,-1.39723 0.40675,-1.76766c0.3703,-0.37031 1.26793,-0.72202 1.63824,-0.35171c0.37093,0.37093 -1.67368,2.49017 -2.04498,2.11937z" fill="#00ffff"/><path d="M156.79797,230.15011c0,-1.16477 0.94423,-2.10901 2.10901,-2.10901c1.16478,0 2.10901,0.94423 2.10901,2.10901c0,1.16477 -0.94423,2.10901 -2.10901,2.10901c-1.16478,0 -2.10901,-0.94424 -2.10901,-2.10901z" fill="#00ceff"/></g><path d="M157.19636,230.57034c-0.3703,-0.3708 0.03645,-1.39723 0.40675,-1.76766c0.37131,-0.37031 1.26792,-0.72202 1.63923,-0.35171c0.37018,0.37093 -1.6748,2.49017 -2.04598,2.11937z" fill="#00ffff"/><path d="M183.51942,241.86149l-3.67673,6.51711l-3.67773,-6.51711l3.67773,-6.51699z" fill="#a8213b"/><path d="M183.51942,241.86149l-3.67673,6.51711l-3.67773,-6.51711z" fill="#951d38"/><path d="M179.84269,248.37861l-3.67773,-6.51711l3.67773,-6.51699z" fill="#c0355a"/><path d="M179.84269,248.37861l-3.67773,-6.51711h3.67773z" fill="#b72d4c"/></g></g></g></svg>