<svg xmlns:xlink="http://www.w3.org/1999/xlink" xmlns="http://www.w3.org/2000/svg" viewBox="0 0 421.6 546.6" version="1.1" id="Layer_1">
  
  <defs>
    <style>
      .st0 {
        fill: none;
      }

      .st1 {
        fill: #c098c6;
      }

      .st2 {
        fill: #f3e9f3;
      }

      .st3 {
        clip-path: url(#clippath);
      }
    </style>
    <clipPath id="clippath">
      <path d="M411.8,319.5c0,129.5-89.5,215.7-199.9,215.7S12.1,449,12.1,319.5,101.6,15.9,212,15.9s199.9,162.5,199.9,303.6Z" class="st0"/>
    </clipPath>
  </defs>
  <g class="st3">
    <path d="M411.8,319.5c0,129.5-89.5,215.7-199.9,215.7S12.1,449,12.1,319.5,101.6,15.9,212,15.9s199.9,162.5,199.9,303.6Z" class="st1"/>
    <path d="M166.9,24.7c-8.5,6.2-15.9,13.9-21.8,23.1-4.8-1.3-9.9-1.9-14.9-2.3-3.6,2.7-7.1,5.5-10.6,8.5,1.3,0,2.5-.2,3.8-.2,25.6,0,48.9,12.5,63.2,33.6-16.9,6.4-31.4,18.1-41.5,33.9-6.3-1.6-12.9-2.5-19.6-2.7-9.6-13.9-22.9-24.3-38-30.4-1.8,2.4-3.6,4.8-5.4,7.2,12.8,4.7,24.1,12.8,32.8,23.6-25,2.4-47.4,15.6-61.7,36.4-1.9,0-3.8.3-5.8.5-1.4,3.1-2.7,6.1-4,9.3,3.9-.6,7.9-1,11.9-1,23.5,0,45.1,10.5,59.6,28.4-25,2.4-47.4,15.6-61.7,36.4-6.7.2-13.3,1.1-19.6,2.7-2.6-4.1-5.5-7.8-8.6-11.4-.9,3.6-1.8,7.2-2.6,10.9.8,1.1,1.7,2.1,2.5,3.3-1.2.5-2.4,1-3.7,1.6-.8,3.6-1.5,7.2-2.1,10.8,10.9-5.9,23.3-9.2,36.3-9.2,23.5,0,45.1,10.5,59.6,28.4-25,2.4-47.4,15.6-61.7,36.4-6.7.2-13.3,1.1-19.6,2.7-5.4-8.5-12.1-15.7-19.8-21.6-.3,3.6-.7,7.2-.9,10.8,4.4,4,8.4,8.6,11.9,13.7-4.4,1.7-8.6,3.7-12.7,6.1,0,1.8-.1,3.7-.1,5.5s0,3.3.1,4.9c12.5-8.6,27.4-13.4,43.2-13.4,23.5,0,45.1,10.5,59.6,28.4-25,2.4-47.4,15.5-61.7,36.4-6.7.2-13.3,1.1-19.6,2.7-5.2-8.1-11.6-15.1-18.8-20.9.7,4.9,1.6,9.8,2.6,14.5,2.7,2.9,5.2,5.9,7.5,9.2-1.6.6-3.3,1.3-4.9,2.1.8,2.9,1.6,5.8,2.4,8.6,10.1-4.8,21.2-7.6,32.9-7.6,23.5,0,45.1,10.5,59.6,28.4-25,2.4-47.4,15.5-61.7,36.4-1.3,0-2.5.2-3.7.3,1.9,2.9,3.9,5.7,6,8.4,23.4,0,45,10.5,59.5,28.4-8.9.9-17.5,3.2-25.5,6.6,2.7,2.1,5.4,4.2,8.1,6.1,8.1-2.9,16.9-4.5,25.9-4.5,25.6,0,48.9,12.6,63.2,33.6-3,1.2-6,2.5-8.9,4,5.9,1,12,1.7,18.1,2.2,6.8-2,13.9-3.1,21.2-3.1s12.7.8,18.7,2.4c6-.7,12-1.6,17.8-2.9-8.8-4.1-18.2-6.8-28.1-7.8,14.5-18,36.1-28.4,59.6-28.4s24.6,3.1,35.2,8.6c2.7-1.8,5.4-3.7,8.1-5.6-4.1-2.4-8.3-4.5-12.8-6.2,12.2-18,31-29.7,52.2-32.7,2.3-3,4.5-6.2,6.7-9.4-6,.3-11.8,1.1-17.4,2.5-10-15.8-24.6-27.5-41.4-33.9,14.3-21,37.6-33.6,63.2-33.6s16.3,1.4,23.8,3.8c.8-2.8,1.5-5.6,2.2-8.5-5.6-1.8-11.5-3-17.5-3.6,6.1-7.6,13.6-13.7,21.8-18.4.5-3.5.9-7,1.3-10.6-13.4,6.3-25,16-33.7,28.6-6.7.2-13.3,1.1-19.6,2.7-10-15.8-24.6-27.5-41.4-33.9,14.3-21,37.6-33.6,63.2-33.6s22.9,2.6,33,7.4c0-3.2,0-6.3-.2-9.5-7.7-3.2-15.9-5.4-24.4-6.2,6.3-7.9,14.1-14.2,22.7-18.9-.3-3.1-.7-6.2-1.1-9.3-12.7,6.3-23.9,15.7-32.2,27.9-6.7.2-13.3,1.1-19.6,2.7-10-15.8-24.6-27.5-41.4-33.9,14.3-21,37.6-33.6,63.2-33.6s16.8,1.4,24.6,4c-.7-3.2-1.4-6.5-2.2-9.7-4.5-1.2-9.2-2.2-13.9-2.7,3.2-3.9,6.7-7.5,10.5-10.6-.8-3.1-1.7-6.1-2.6-9.2-7.1,5.4-13.3,11.9-18.6,19.4-6.7.2-13.3,1.1-19.6,2.7-10-15.8-24.6-27.5-41.4-33.9,14.3-21,37.6-33.6,63.2-33.6s0,0,0,0c-1.2-2.9-2.5-5.7-3.8-8.6-6.1.3-12.2,1.1-18,2.6-10-15.8-24.6-27.5-41.4-33.9,7.2-10.6,16.6-19,27.5-24.7-1.7-2.4-3.4-4.8-5.2-7.2-12.4,6.8-23.1,16.6-31.1,29.1-6.3-1.6-12.9-2.5-19.6-2.7-14.3-20.8-36.7-33.9-61.7-36.3,14.5-18,36.1-28.4,59.6-28.4s14.3,1.1,21,3c-4.4-4-9-7.8-13.6-11.3-1.8-.1-3.5-.4-5.3-.4-1.7-2.5-3.6-4.9-5.6-7.2-21.7-14-45.2-22.1-69.7-22.1s-30.6,3.2-45.1,8.9ZM63.9,155.8c14.4-18,36.1-28.5,59.6-28.5s48.9,12.6,63.2,33.6c-16.9,6.4-31.4,18.1-41.5,33.9-6.3-1.6-12.9-2.5-19.6-2.7-14.4-20.8-36.8-33.9-61.8-36.3ZM214.9,375.8c-6.7.2-13.2,1.1-19.5,2.7-10.1-15.8-24.6-27.5-41.5-33.9,14.3-21,37.6-33.6,63.2-33.6s45.1,10.5,59.5,28.4c-25,2.4-47.4,15.6-61.7,36.4ZM217.1,384.5c23.5,0,45.1,10.5,59.5,28.4-25,2.4-47.4,15.6-61.7,36.4-6.7.2-13.2,1.1-19.5,2.7-10.1-15.8-24.6-27.5-41.5-33.9,14.3-21,37.6-33.6,63.2-33.6ZM214.9,302.4c-6.7.2-13.2,1.1-19.5,2.7-10.1-15.8-24.6-27.5-41.5-33.9,14.3-21,37.6-33.6,63.2-33.6s45.1,10.5,59.5,28.4c-25,2.4-47.4,15.6-61.7,36.4ZM214.9,228.9c-6.7.2-13.2,1.1-19.5,2.7-10.1-15.8-24.6-27.5-41.5-33.9,14.3-21,37.6-33.6,63.2-33.6s45.1,10.5,59.5,28.4c-25,2.4-47.4,15.6-61.7,36.4ZM63.9,229.3c14.4-18,36.1-28.5,59.6-28.5s48.9,12.6,63.2,33.6c-16.9,6.4-31.4,18.1-41.5,33.9-6.3-1.6-12.9-2.5-19.6-2.7-14.4-20.8-36.8-33.9-61.7-36.3ZM63.9,302.8c14.4-18,36.1-28.5,59.6-28.5s48.9,12.6,63.2,33.6c-16.9,6.4-31.4,18.1-41.5,33.9-6.3-1.6-12.9-2.5-19.6-2.7-14.4-20.8-36.8-33.9-61.7-36.3ZM63.9,376.2c14.4-18,36-28.5,59.6-28.5s48.9,12.5,63.2,33.6c-16.9,6.4-31.4,18.1-41.5,33.9-6.3-1.6-12.9-2.5-19.6-2.7-14.4-20.8-36.8-33.9-61.7-36.3ZM125.6,486c-14.4-20.8-36.8-33.9-61.7-36.3,14.4-18,36-28.5,59.6-28.5s48.9,12.5,63.2,33.6c-16.9,6.4-31.4,18.1-41.5,33.9-6.3-1.6-12.9-2.5-19.6-2.7ZM214.9,522.8c-6.7.2-13.2,1.1-19.5,2.7-10.1-15.8-24.6-27.5-41.5-33.9,14.3-21,37.6-33.6,63.2-33.6s45.1,10.5,59.5,28.4c-25,2.4-47.4,15.6-61.7,36.4ZM348.3,454.8c-16.8,6.4-31.4,18.1-41.4,33.9-6.3-1.6-12.9-2.5-19.6-2.7-14.3-20.8-36.7-33.9-61.7-36.3,14.5-18,36.1-28.4,59.6-28.4s48.9,12.6,63.2,33.6ZM348.3,381.4c-16.8,6.4-31.4,18.1-41.4,33.9-6.3-1.6-12.9-2.5-19.6-2.7-14.3-20.8-36.7-33.9-61.7-36.3,14.5-18,36.1-28.4,59.6-28.4s48.9,12.6,63.2,33.6ZM348.3,307.9c-16.8,6.4-31.4,18.1-41.4,33.9-6.3-1.6-12.9-2.5-19.6-2.7-14.3-20.8-36.7-33.9-61.7-36.3,14.5-18,36.1-28.5,59.6-28.5s48.9,12.6,63.2,33.6ZM348.3,234.4c-16.8,6.4-31.4,18.1-41.4,33.9-6.3-1.6-12.9-2.5-19.6-2.7-14.3-20.8-36.7-33.9-61.7-36.3,14.5-18,36.1-28.4,59.6-28.4s48.9,12.6,63.2,33.6ZM348.3,160.9c-16.8,6.4-31.4,18.1-41.4,33.9-6.3-1.6-12.9-2.5-19.6-2.7-14.3-20.8-36.7-33.9-61.7-36.3,14.5-18,36.1-28.4,59.6-28.4s48.9,12.6,63.2,33.6ZM276.7,119.1c-25,2.4-47.4,15.6-61.7,36.4-6.7.2-13.2,1.1-19.5,2.7-10.1-15.8-24.6-27.5-41.5-33.9,14.3-21,37.6-33.6,63.2-33.6s45.1,10.5,59.5,28.4ZM276.7,45.6c-25,2.4-47.4,15.6-61.7,36.4-6.7.2-13.2,1.1-19.5,2.7-10.1-15.8-24.6-27.5-41.5-33.9,14.3-21,37.6-33.6,63.2-33.6s45.1,10.5,59.5,28.4Z" class="st2"/>
  </g>
</svg>