<svg version="1.1" xmlns="http://www.w3.org/2000/svg" xmlns:xlink="http://www.w3.org/1999/xlink" width="98.09833" height="127.66515" viewBox="0,0,98.09833,127.66515"><g transform="translate(-165.7037,-222.19703)"><g stroke-miterlimit="10"><path d="M214.83654,222.19703c21.19302,0 48.52113,31.47156 48.96131,73.13715c0.39791,37.66348 -27.76829,54.528 -48.96131,54.528c-21.19302,0 -49.77851,-15.58475 -49.12173,-54.36758c0.70016,-41.34503 27.92872,-73.29757 49.12173,-73.29757z" fill="#005fff" stroke="none" stroke-width="0" stroke-linecap="butt"/><path d="M259.77844,318.54216c0,0 -12.87852,12.04129 -45.90791,13.63601c-26.40943,1.27509 -42.83312,-9.94626 -42.83312,-9.94626" fill="none" stroke="#000000" stroke-width="1" stroke-linecap="round"/><path d="M262.34521,309.71885c0,0 -11.4773,14.60684 -48.63512,16.52363c-29.79046,1.53673 -45.56033,-12.1922 -45.56033,-12.1922" fill="none" stroke="#000000" stroke-width="1" stroke-linecap="round"/><path d="M247.71992,244.69378c0,0 -13.37912,4.66437 -35.29322,4.97313c-22.77202,0.32085 -30.80134,-4.17102 -30.80134,-4.17102" fill="none" stroke="#000000" stroke-width="1" stroke-linecap="round"/><path d="M250.76796,249.18565c0,0 -17.22929,5.30608 -39.14337,5.61483c-22.77202,0.32085 -32.566,-4.97313 -32.566,-4.97313" fill="none" stroke="#000000" stroke-width="1" stroke-linecap="round"/><path d="M177.45435,274.13152c0,-4.03129 3.268,-7.29928 7.29928,-7.29928c4.03129,0 7.29928,3.268 7.29928,7.29928c0,4.03129 -3.268,7.29928 -7.29928,7.29928c-4.03129,0 -7.29928,-3.268 -7.29928,-7.29928z" fill="#ff25ed" stroke="#000000" stroke-width="1" stroke-linecap="butt"/><path d="M190.76951,301.7244c0,-4.03129 3.268,-7.29928 7.29928,-7.29928c4.03129,0 7.29928,3.268 7.29928,7.29928c0,4.03129 -3.268,7.29928 -7.29928,7.29928c-4.03129,0 -7.29928,-3.268 -7.29928,-7.29928z" fill="#ffd626" stroke="#000000" stroke-width="1" stroke-linecap="butt"/><path d="M217.23943,304.45161c0,-4.03129 3.268,-7.29928 7.29928,-7.29928c4.03129,0 7.29928,3.268 7.29928,7.29928c0,4.03129 -3.268,7.29928 -7.29928,7.29928c-4.03129,0 -7.29928,-3.268 -7.29928,-7.29928z" fill="#26a0ff" stroke="#000000" stroke-width="1" stroke-linecap="butt"/><path d="M204.56595,270.12095c0,-4.03129 3.268,-7.29928 7.29928,-7.29928c4.03129,0 7.29928,3.268 7.29928,7.29928c0,4.03129 -3.268,7.29928 -7.29928,7.29928c-4.03129,0 -7.29928,-3.268 -7.29928,-7.29928z" fill="#26a0ff" stroke="#000000" stroke-width="1" stroke-linecap="butt"/><path d="M232.31925,286.96543c0,-4.03129 3.268,-7.29928 7.29928,-7.29928c4.03129,0 7.29928,3.268 7.29928,7.29928c0,4.03129 -3.268,7.29928 -7.29928,7.29928c-4.03129,0 -7.29928,-3.268 -7.29928,-7.29928z" fill="#26ff41" stroke="#000000" stroke-width="1" stroke-linecap="butt"/><path d="M241.78423,263.22273c0,-4.03129 3.268,-7.29928 7.29928,-7.29928c4.03129,0 7.29928,3.268 7.29928,7.29928c0,4.03129 -3.268,7.29928 -7.29928,7.29928c-4.03129,0 -7.29928,-3.268 -7.29928,-7.29928z" fill="#26ff41" stroke="#000000" stroke-width="1" stroke-linecap="butt"/><path d="M246.27611,301.88482c0,-4.03129 3.268,-7.29928 7.29928,-7.29928c4.03129,0 7.29928,3.268 7.29928,7.29928c0,4.03129 -3.268,7.29928 -7.29928,7.29928c-4.03129,0 -7.29928,-3.268 -7.29928,-7.29928z" fill="#ff25ed" stroke="#000000" stroke-width="1" stroke-linecap="butt"/><path d="M172.64162,297.23254c0,-4.03129 3.268,-7.29928 7.29928,-7.29928c4.03129,0 7.29928,3.268 7.29928,7.29928c0,4.03129 -3.268,7.29928 -7.29928,7.29928c-4.03129,0 -7.29928,-3.268 -7.29928,-7.29928z" fill="#ffd626" stroke="#000000" stroke-width="1" stroke-linecap="butt"/></g></g></svg>