<svg version="1.1" xmlns="http://www.w3.org/2000/svg" xmlns:xlink="http://www.w3.org/1999/xlink" width="204.94365" height="55.82852" viewBox="0,0,204.94365,55.82852"><g transform="translate(-147.8306,-292.08573)"><g stroke-miterlimit="10"><g stroke="#000000" stroke-width="2.5" stroke-linecap="butt"><path d="M351.52425,320.24594c0,13.71176 -6.63736,24.82734 -14.82496,24.82734c-8.1876,0 -14.82496,-11.11558 -14.82496,-24.82734c0,-13.71176 6.63736,-24.82734 14.82496,-24.82734c8.1876,0 14.82496,11.11558 14.82496,24.82734z" fill="#ffd658"/><path d="M334.83267,293.90184c7.85258,0 14.21836,11.81127 14.21836,26.38121c0,14.56994 -6.36578,26.38121 -14.21836,26.38121c-7.85258,0 -14.21835,-11.81127 -14.21835,-26.38121c0,-14.56994 6.36577,-26.38121 14.21835,-26.38121z" fill="none"/><path d="M332.85136,293.33574c7.85258,0 14.21836,11.81127 14.21836,26.38121c0,14.56994 -6.36578,26.38121 -14.21836,26.38121c-7.85258,0 -14.21835,-11.81127 -14.21835,-26.38121c0,-14.56994 6.36577,-26.38121 14.21835,-26.38121z" fill="none"/></g><g><path d="M278.14894,319.5494c0,-9.93693 14.75631,-22.75047 34.29237,-22.95686c17.65956,-0.18657 25.56696,13.01993 25.56696,22.95686c0,9.93693 -7.30734,23.34003 -25.49174,23.03208c-19.38576,-0.32829 -34.36759,-13.09515 -34.36759,-23.03208z" fill="#9966ff" stroke="none" stroke-width="0" stroke-linecap="butt"/><path d="M323.32301,298.47716c0,0 5.64589,6.03845 6.39362,21.52519c0.59786,12.38279 -4.66358,20.08349 -4.66358,20.08349" fill="none" stroke="#000000" stroke-width="1" stroke-linecap="round"/><path d="M319.18596,297.27365c0,0 6.84882,5.38145 7.74756,22.80392c0.72054,13.96808 -5.71665,21.36222 -5.71665,21.36222" fill="none" stroke="#000000" stroke-width="1" stroke-linecap="round"/><path d="M288.69716,304.13113c0,0 2.18702,6.27317 2.33179,16.5482c0.15044,10.67729 -1.9557,14.44206 -1.9557,14.44206" fill="none" stroke="#000000" stroke-width="1" stroke-linecap="round"/><path d="M290.8033,302.70196c0,0 2.4879,8.07843 2.63267,18.35345c0.15044,10.67729 -2.33179,15.26947 -2.33179,15.26947" fill="none" stroke="#000000" stroke-width="1" stroke-linecap="round"/><path d="M308.20409,314.89397c-1.89018,0 -3.42247,-1.53229 -3.42247,-3.42247c0,-1.89018 1.53229,-3.42247 3.42247,-3.42247c1.89018,0 3.42247,1.53229 3.42247,3.42247c0,1.89018 -1.53229,3.42247 -3.42247,3.42247z" fill="#ffd626" stroke="#000000" stroke-width="1" stroke-linecap="butt"/><path d="M309.09951,327.66488c-1.89018,0 -3.42247,-1.53229 -3.42247,-3.42247c0,-1.89018 1.53229,-3.42247 3.42247,-3.42247c1.89018,0 3.42247,1.53229 3.42247,3.42247c0,1.89018 -1.53229,3.42247 -3.42247,3.42247z" fill="#ff25ed" stroke="#000000" stroke-width="1" stroke-linecap="butt"/><path d="M298.75852,320.53542c-1.89018,0 -3.42247,-1.53229 -3.42247,-3.42247c0,-1.89018 1.53229,-3.42247 3.42247,-3.42247c1.89018,0 3.42247,1.53229 3.42247,3.42247c0,1.89018 -1.53229,3.42247 -3.42247,3.42247z" fill="#26ff41" stroke="#000000" stroke-width="1" stroke-linecap="butt"/><path d="M318.78841,321.40732c-1.89018,0 -3.42247,-1.53229 -3.42247,-3.42247c0,-1.89018 1.53229,-3.42247 3.42247,-3.42247c1.89018,0 3.42247,1.53229 3.42247,3.42247c0,1.89018 -1.53229,3.42247 -3.42247,3.42247z" fill="#26a0ff" stroke="#000000" stroke-width="1" stroke-linecap="butt"/><path d="M300.06669,337.12681c-1.89018,0 -3.42247,-1.53229 -3.42247,-3.42247c0,-1.89018 1.53229,-3.42247 3.42247,-3.42247c1.89018,0 3.42247,1.53229 3.42247,3.42247c0,1.89018 -1.53229,3.42247 -3.42247,3.42247z" fill="#ffd626" stroke="#000000" stroke-width="1" stroke-linecap="butt"/><path d="M299.28638,308.60437c-1.89018,0 -3.42247,-1.53229 -3.42247,-3.42247c0,-1.89018 1.53229,-3.42247 3.42247,-3.42247c1.89018,0 3.42247,1.53229 3.42247,3.42247c0,1.89018 -1.53229,3.42247 -3.42247,3.42247z" fill="#26ff41" stroke="#000000" stroke-width="1" stroke-linecap="butt"/><path d="M314.66769,305.86443c-1.89018,0 -3.42247,-1.53229 -3.42247,-3.42247c0,-1.89018 1.53229,-3.42247 3.42247,-3.42247c1.89018,0 3.42247,1.53229 3.42247,3.42247c0,1.89018 -1.53229,3.42247 -3.42247,3.42247z" fill="#ff25ed" stroke="#000000" stroke-width="1" stroke-linecap="butt"/><path d="M313.33141,339.33365c-1.89018,0 -3.42247,-1.53229 -3.42247,-3.42247c0,-1.89018 1.53229,-3.42247 3.42247,-3.42247c1.89018,0 3.42247,1.53229 3.42247,3.42247c0,1.89018 -1.53229,3.42247 -3.42247,3.42247z" fill="#26a0ff" stroke="#000000" stroke-width="1" stroke-linecap="butt"/></g><g><path d="M225.03832,319.5494c0,-9.93693 14.75631,-22.75047 34.29237,-22.95686c17.65956,-0.18657 25.56696,13.01993 25.56696,22.95686c0,9.93693 -7.30734,23.34003 -25.49174,23.03208c-19.38576,-0.32829 -34.36759,-13.09515 -34.36759,-23.03208z" fill="#9966ff" stroke="none" stroke-width="0" stroke-linecap="butt"/><path d="M270.21239,298.47716c0,0 5.64589,6.03845 6.39362,21.52519c0.59786,12.38279 -4.66358,20.08349 -4.66358,20.08349" fill="none" stroke="#000000" stroke-width="1" stroke-linecap="round"/><path d="M266.07534,297.27365c0,0 6.84882,5.38145 7.74756,22.80392c0.72054,13.96808 -5.71665,21.36222 -5.71665,21.36222" fill="none" stroke="#000000" stroke-width="1" stroke-linecap="round"/><path d="M235.58654,304.13112c0,0 2.18702,6.27317 2.33179,16.5482c0.15044,10.67729 -1.9557,14.44206 -1.9557,14.44206" fill="none" stroke="#000000" stroke-width="1" stroke-linecap="round"/><path d="M237.69268,302.70196c0,0 2.4879,8.07843 2.63267,18.35345c0.15044,10.67729 -2.33179,15.26947 -2.33179,15.26947" fill="none" stroke="#000000" stroke-width="1" stroke-linecap="round"/><path d="M255.09347,314.89397c-1.89018,0 -3.42247,-1.53229 -3.42247,-3.42247c0,-1.89018 1.53229,-3.42247 3.42247,-3.42247c1.89018,0 3.42247,1.53229 3.42247,3.42247c0,1.89018 -1.53229,3.42247 -3.42247,3.42247z" fill="#ffd626" stroke="#000000" stroke-width="1" stroke-linecap="butt"/><path d="M255.98889,327.66489c-1.89018,0 -3.42247,-1.53229 -3.42247,-3.42247c0,-1.89018 1.53229,-3.42247 3.42247,-3.42247c1.89018,0 3.42247,1.53229 3.42247,3.42247c0,1.89018 -1.53229,3.42247 -3.42247,3.42247z" fill="#ff25ed" stroke="#000000" stroke-width="1" stroke-linecap="butt"/><path d="M245.6479,320.53543c-1.89018,0 -3.42247,-1.53229 -3.42247,-3.42247c0,-1.89018 1.53229,-3.42247 3.42247,-3.42247c1.89018,0 3.42247,1.53229 3.42247,3.42247c0,1.89018 -1.53229,3.42247 -3.42247,3.42247z" fill="#26a0ff" stroke="#000000" stroke-width="1" stroke-linecap="butt"/><path d="M265.67779,321.40732c-1.89018,0 -3.42247,-1.53229 -3.42247,-3.42247c0,-1.89018 1.53229,-3.42247 3.42247,-3.42247c1.89018,0 3.42247,1.53229 3.42247,3.42247c0,1.89018 -1.53229,3.42247 -3.42247,3.42247z" fill="#ffd626" stroke="#000000" stroke-width="1" stroke-linecap="butt"/><path d="M246.95607,337.12681c-1.89018,0 -3.42247,-1.53229 -3.42247,-3.42247c0,-1.89018 1.53229,-3.42247 3.42247,-3.42247c1.89018,0 3.42247,1.53229 3.42247,3.42247c0,1.89018 -1.53229,3.42247 -3.42247,3.42247z" fill="#26a0ff" stroke="#000000" stroke-width="1" stroke-linecap="butt"/><path d="M246.17576,308.60437c-1.89018,0 -3.42247,-1.53229 -3.42247,-3.42247c0,-1.89018 1.53229,-3.42247 3.42247,-3.42247c1.89018,0 3.42247,1.53229 3.42247,3.42247c0,1.89018 -1.53229,3.42247 -3.42247,3.42247z" fill="#26ff41" stroke="#000000" stroke-width="1" stroke-linecap="butt"/><path d="M261.55707,305.86443c-1.89018,0 -3.42247,-1.53229 -3.42247,-3.42247c0,-1.89018 1.53229,-3.42247 3.42247,-3.42247c1.89018,0 3.42247,1.53229 3.42247,3.42247c0,1.89018 -1.53229,3.42247 -3.42247,3.42247z" fill="#ff25ed" stroke="#000000" stroke-width="1" stroke-linecap="butt"/><path d="M260.22079,339.33365c-1.89018,0 -3.42247,-1.53229 -3.42247,-3.42247c0,-1.89018 1.53229,-3.42247 3.42247,-3.42247c1.89018,0 3.42247,1.53229 3.42247,3.42247c0,1.89018 -1.53229,3.42247 -3.42247,3.42247z" fill="#26ff41" stroke="#000000" stroke-width="1" stroke-linecap="butt"/></g><g><path d="M176.72865,319.54941c0,-9.93693 14.75631,-22.75047 34.29237,-22.95686c17.65956,-0.18657 25.56696,13.01993 25.56696,22.95686c0,9.93693 -7.30734,23.34003 -25.49174,23.03208c-19.38576,-0.32829 -34.36759,-13.09515 -34.36759,-23.03208z" fill="#9966ff" stroke="none" stroke-width="0" stroke-linecap="butt"/><path d="M221.90272,298.47716c0,0 5.64589,6.03845 6.39362,21.52519c0.59786,12.38279 -4.66358,20.08349 -4.66358,20.08349" fill="none" stroke="#000000" stroke-width="1" stroke-linecap="round"/><path d="M217.76567,297.27365c0,0 6.84882,5.38145 7.74756,22.80392c0.72054,13.96808 -5.71665,21.36222 -5.71665,21.36222" fill="none" stroke="#000000" stroke-width="1" stroke-linecap="round"/><path d="M187.27687,304.13113c0,0 2.18702,6.27317 2.33179,16.5482c0.15044,10.67729 -1.9557,14.44206 -1.9557,14.44206" fill="none" stroke="#000000" stroke-width="1" stroke-linecap="round"/><path d="M189.38301,302.70197c0,0 2.4879,8.07843 2.63267,18.35345c0.15044,10.67729 -2.33179,15.26947 -2.33179,15.26947" fill="none" stroke="#000000" stroke-width="1" stroke-linecap="round"/><path d="M206.7838,314.89398c-1.89018,0 -3.42247,-1.53229 -3.42247,-3.42247c0,-1.89018 1.53229,-3.42247 3.42247,-3.42247c1.89018,0 3.42247,1.53229 3.42247,3.42247c0,1.89018 -1.53229,3.42247 -3.42247,3.42247z" fill="#ff25ed" stroke="#000000" stroke-width="1" stroke-linecap="butt"/><path d="M207.67922,327.66489c-1.89018,0 -3.42247,-1.53229 -3.42247,-3.42247c0,-1.89018 1.53229,-3.42247 3.42247,-3.42247c1.89018,0 3.42247,1.53229 3.42247,3.42247c0,1.89018 -1.53229,3.42247 -3.42247,3.42247z" fill="#ffd626" stroke="#000000" stroke-width="1" stroke-linecap="butt"/><path d="M197.33823,320.53544c-1.89018,0 -3.42247,-1.53229 -3.42247,-3.42247c0,-1.89018 1.53229,-3.42247 3.42247,-3.42247c1.89018,0 3.42247,1.53229 3.42247,3.42247c0,1.89018 -1.53229,3.42247 -3.42247,3.42247z" fill="#ff25ed" stroke="#000000" stroke-width="1" stroke-linecap="butt"/><path d="M217.36812,321.40732c-1.89018,0 -3.42247,-1.53229 -3.42247,-3.42247c0,-1.89018 1.53229,-3.42247 3.42247,-3.42247c1.89018,0 3.42247,1.53229 3.42247,3.42247c0,1.89018 -1.53229,3.42247 -3.42247,3.42247z" fill="#26a0ff" stroke="#000000" stroke-width="1" stroke-linecap="butt"/><path d="M198.6464,337.12682c-1.89018,0 -3.42247,-1.53229 -3.42247,-3.42247c0,-1.89018 1.53229,-3.42247 3.42247,-3.42247c1.89018,0 3.42247,1.53229 3.42247,3.42247c0,1.89018 -1.53229,3.42247 -3.42247,3.42247z" fill="#26ff41" stroke="#000000" stroke-width="1" stroke-linecap="butt"/><path d="M197.86609,308.60438c-1.89018,0 -3.42247,-1.53229 -3.42247,-3.42247c0,-1.89018 1.53229,-3.42247 3.42247,-3.42247c1.89018,0 3.42247,1.53229 3.42247,3.42247c0,1.89018 -1.53229,3.42247 -3.42247,3.42247z" fill="#26ff41" stroke="#000000" stroke-width="1" stroke-linecap="butt"/><path d="M213.2474,305.86444c-1.89018,0 -3.42247,-1.53229 -3.42247,-3.42247c0,-1.89018 1.53229,-3.42247 3.42247,-3.42247c1.89018,0 3.42247,1.53229 3.42247,3.42247c0,1.89018 -1.53229,3.42247 -3.42247,3.42247z" fill="#ffd626" stroke="#000000" stroke-width="1" stroke-linecap="butt"/><path d="M211.91112,339.33366c-1.89018,0 -3.42247,-1.53229 -3.42247,-3.42247c0,-1.89018 1.53229,-3.42247 3.42247,-3.42247c1.89018,0 3.42247,1.53229 3.42247,3.42247c0,1.89018 -1.53229,3.42247 -3.42247,3.42247z" fill="#26ff41" stroke="#000000" stroke-width="1" stroke-linecap="butt"/></g><g stroke="none" stroke-width="1" stroke-linecap="butt"><g fill="#009cff"><path d="M168.11493,329.24572l-8.44902,11.80998l2.67963,-15.69876z"/><path d="M162.34555,314.7013l-2.67963,-15.69913l8.44902,11.81086z"/></g><path d="M183.53674,306.82155c1.84517,0 3.34099,1.49583 3.34099,3.34049v9.95321l0,9.79495c0,1.84467 -1.49583,3.3405 -3.34099,3.3405c0,0 -23.0582,9.28873 -23.87082,7.80513c0,0 6.50438,-11.04928 5.74367,-11.80961c-0.8447,-0.8467 -14.36543,-8.07023 -14.37054,-9.13035c0.00462,-1.06112 13.52522,-8.44253 14.37054,-9.28873c0.76071,-0.76121 -5.74367,-11.81047 -5.74367,-11.81047c0.81262,-1.48322 23.87082,7.80538 23.87082,7.80488z" fill="#00e6ff"/><g><path d="M151.03892,320.11524h35.83882v9.79495c0,1.84467 -1.49583,3.3405 -3.34099,3.3405c0,0 -23.0582,9.28873 -23.87095,7.80501c0,0 6.50438,-11.04928 5.74367,-11.80961c-0.8447,-0.8467 -14.36544,-8.07022 -14.37055,-9.13034z" fill="#00f2ff"/><path d="M151.03892,323.40443c-1.77191,0 -3.20832,-1.43641 -3.20832,-3.20832c0,-1.77191 1.43641,-3.20832 3.20832,-3.20832c1.77191,0 3.20833,1.43642 3.20833,3.20832c0,1.77191 -1.43642,3.20832 -3.20833,3.20832z" fill="#00ceff"/></g><path d="M183.53674,306.77723c1.84517,0 3.34099,1.49582 3.34099,3.34136l0,19.79159c0,1.84467 -1.49583,3.3405 -3.34099,3.3405c0,0 -0.45855,-7.69992 -0.45855,-13.2167c0,-5.51715 0.45855,-13.25675 0.45855,-13.25675z" fill="#00b3ff"/><path d="M186.87811,320.11576l0,9.79445c0,1.84467 -1.49583,3.3405 -3.34099,3.3405c0,0 -0.45855,-7.69992 -0.45855,-13.2167z" fill="#00ceff"/><path d="M151.67507,322.79637c-0.56364,0.56363 -2.12436,-0.05466 -2.6885,-0.6193c-0.56326,-0.56363 -1.09843,-1.92829 -0.53467,-2.49192c0.56351,-0.56363 3.78731,2.54708 3.22317,3.11122z" fill="#00ffff"/><g><path d="M159.82754,301.06913c-1.16477,0 -2.10901,-0.94423 -2.10901,-2.10901c0,-1.16478 0.94423,-2.10901 2.10901,-2.10901c1.16477,0 2.10901,0.94423 2.10901,2.10901c0,1.16478 -0.94424,2.10901 -2.10901,2.10901z" fill="#00ceff"/><path d="M160.24777,300.66937c-0.3708,0.3703 -1.39723,-0.03594 -1.76766,-0.40675c-0.37031,-0.3703 -0.72202,-1.26793 -0.35171,-1.63824c0.37093,-0.37093 2.49017,1.67368 2.11937,2.04498z" fill="#00ffff"/><path d="M159.82754,343.20204c-1.16477,0 -2.10901,-0.94423 -2.10901,-2.10901c0,-1.16478 0.94423,-2.10901 2.10901,-2.10901c1.16477,0 2.10901,0.94423 2.10901,2.10901c0,1.16478 -0.94424,2.10901 -2.10901,2.10901z" fill="#00ceff"/></g><path d="M160.24777,342.80363c-0.3708,0.3703 -1.39723,-0.03645 -1.76766,-0.40675c-0.37031,-0.37131 -0.72202,-1.26792 -0.35171,-1.63923c0.37093,-0.37018 2.49017,1.6748 2.11937,2.04598z" fill="#00ffff"/><path d="M171.53892,316.48059l6.51711,3.67673l-6.51711,3.67773l-6.51699,-3.67773z" fill="#a8213b"/><path d="M171.53892,316.48059l6.51711,3.67673l-6.51711,3.67773z" fill="#951d38"/><path d="M178.05604,320.1573l-6.51711,3.67773l-6.51699,-3.67773z" fill="#c0355a"/><path d="M178.05604,320.1573l-6.51711,3.67773l0,-3.67773z" fill="#b72d4c"/></g></g></g></svg>