<svg xmlns:xlink="http://www.w3.org/1999/xlink" xmlns="http://www.w3.org/2000/svg" viewBox="0 0 421.6 546.6" version="1.1" id="Layer_1">
  
  <defs>
    <style>
      .st0 {
        fill: #f2f2f2;
      }

      .st1 {
        fill: none;
      }

      .st2 {
        fill: #96d7e0;
      }

      .st3 {
        fill: #c098c6;
      }

      .st4 {
        fill: #f1de6e;
      }

      .st5 {
        fill: #fcb124;
      }

      .st6 {
        clip-path: url(#clippath);
      }
    </style>
    <clipPath id="clippath">
      <path d="M411.8,319.5c0,129.5-89.5,215.7-199.9,215.7S12.1,449,12.1,319.5,101.6,15.9,212,15.9s199.9,162.5,199.9,303.6Z" class="st1"/>
    </clipPath>
  </defs>
  <g class="st6">
    <path d="M411.8,319.5c0,129.5-89.5,215.7-199.9,215.7S12.1,449,12.1,319.5,101.6,15.9,212,15.9s199.9,162.5,199.9,303.6Z" class="st3"/>
    <g>
      <path d="M127.2,67.6c-2.3,1.6-4.6,3.2-7,4.8-10.4,7-21.2,14.2-28,25.6-5.9,9.9-8.4,22.1-8,38.3.5,16.7,3.6,33.2,9.3,48.9.8,2.1,1.6,4.2,2.4,6.3,3,7.7,5.8,15,6.1,22.3.8,16.8-11.4,32.2-22.8,45.4-9.5,11-29.4,33.8-20.9,56.9,2.7,7.4,7.6,12.9,12.4,18.2,2.6,2.9,5.1,5.7,7,8.6,5.4,8,7.3,18.5,5.1,27.9-1.7,7.3-5.8,14.3-10,21.7-6.6,11.4-13.4,23.2-12.2,37.4,1.2,13.7,9.4,24.1,17.3,34.1,2,2.5,4,5,5.8,7.6,6,8.3,10.6,17.7,13.7,27.5,5.5,3.9,11.1,7.5,16.9,10.8,0-.5,0-.9-.2-1.5-2.9-16.2-9.5-31.7-19.1-45-2-2.7-4.1-5.4-6.2-8-7-8.8-13.5-17.1-14.4-26.7-.8-9.8,4.6-19.2,10.3-29.2,4.6-7.9,9.3-16.1,11.5-25.4,3.1-13.2.5-27.7-7.1-39-2.5-3.7-5.4-7-8.2-10.1-4.1-4.5-7.9-8.8-9.7-13.7-5-13.5,5.9-28.6,18.3-43,14.2-16.3,27.1-34.2,26.2-55.2-.4-9.7-3.8-18.3-7-26.8-.8-2-1.6-4-2.3-6-5.2-14.3-8-29.3-8.5-44.6-.4-13.5,1.5-23.2,6-30.7,5.2-8.8,14.3-14.8,23.8-21.2,2.4-1.6,4.9-3.3,7.2-4.9,10.3-7.3,27.3-30.1,32.6-54.7-5.7,2.2-11.3,4.8-16.9,7.8-6,16.1-16.7,30.4-23.8,35.5Z" class="st4"/>
      <path d="M166.8,84.3c.9,4.1,2.1,8.3,3.3,12.3,3.1,10.2,6,19.9,2.5,27.9-2,4.6-6,8.4-10.3,12.5-4.1,3.9-8.4,8-11.5,13.2-10.5,17.3-4.2,38.8,1.4,53.5l1.1,2.8c5.3,13.6,10.7,27.8,7.1,40.3-1.4,4.9-4.1,9.5-7,14.4-2.9,4.9-5.9,9.9-7.8,15.7-6.2,18.5-.4,40.6,16,60.6,1.5,1.8,3,3.6,4.6,5.4,5.8,6.7,11.3,13,13.1,20.4,3.2,13.1-5.5,26.8-13.9,40-1.3,2.1-2.6,4.1-3.8,6.1-12.1,19.5-20.2,41.9-23.6,64.6-.5,3.2-1.4,9.2,1.2,14.7,3.7,8,11.7,10.6,18.2,12.7,1,.3,1.9.6,2.9,1,10.3,3.6,19,12.7,23.2,24.4.8,2.2,1.4,4.4,1.8,6.7,4.8.6,9.6,1.1,14.5,1.4-.6-4.3-1.6-8.6-3.1-12.9-5.8-15.8-17.3-27.7-31.7-32.8-1-.4-2.1-.7-3.2-1.1-4.3-1.4-8.7-2.8-9.8-5.2-.7-1.6-.4-4.3,0-6.8,3.1-20.9,10.6-41.4,21.7-59.3,1.2-2,2.5-3.9,3.7-5.9,9.6-15,20.4-32,15.7-50.9-2.6-10.7-9.5-18.6-16.1-26.3-1.5-1.7-2.9-3.4-4.4-5.1-13.1-15.9-18.1-33.6-13.5-47.2,1.5-4.4,4-8.6,6.6-13.1,3.2-5.4,6.5-11.1,8.4-17.7,4.8-17.1-1.7-34.1-7.5-49.2l-1-2.7c-4.9-13-9.7-29.4-2.5-41.2,2.2-3.7,5.6-6.9,9.2-10.3,5.1-4.9,10.4-9.9,13.5-17.1,5.5-12.7,1.5-25.9-2-37.5-1.2-3.9-2.3-7.6-3-11.2-3.8-17.8,1.9-47,14.5-63.5.1-.2.3-.5.4-.7-6.4.9-12.7,2.3-18.9,4.2-9.8,19.7-13.5,45.1-9.7,62.9Z" class="st0"/>
      <path d="M191.9,33.2c.8,5.9,3.5,10.9,5.9,15.4,2.3,4.3,4.3,8,4.4,11.6,0,3.8-2.2,8-4.6,12.5-3.3,6.1-7,13-6.1,21.2,1.2,10.5,8.9,16.8,15.6,22.4,4,3.3,7.7,6.4,9.9,9.9,3.1,5.1,3.3,12.5.7,20.2-2.1,6.1-5.5,11.8-9.2,17.8-.9,1.6-1.9,3.1-2.8,4.7-9,15.4-13.8,28.5-15.2,41.4-1.8,17.1,3,33.2,13.2,44.1,3.7,3.9,8,7.2,12.2,10.4,7.6,5.8,14.2,10.8,14.9,17.8.8,7-4.7,13.8-10.5,21-1.5,1.8-2.9,3.6-4.3,5.4-9.2,12.3-15,27.5-16.2,42.8-.9,11,1,19.5,5.7,26.1,6,8.5,15.6,12,24,15.2,1.3.5,2.6,1,3.8,1.5,4.3,1.7,14.4,6.4,15.1,13.5.6,6.2-5.7,12.2-12.8,18.3-6.5,5.6-13.7,12.3-17.7,21.4-4.8,11-3.2,23.4,3.9,31,3.5,3.7,7.9,5.8,11.7,7.7,1,.5,2,1,3,1.5,14.8,7.9,24.5,24.4,24.1,41.2,4.7-1.1,9.3-2.5,13.8-4-1.1-20.4-13.2-40-31.3-49.6-1.1-.6-2.2-1.2-3.4-1.7-3-1.5-5.9-2.9-7.7-4.8-3.8-4-3.4-11-1.3-15.7,2.8-6.5,8.7-11.9,14-16.5,7.5-6.5,18.9-16.4,17.6-30.3-1-10.6-9.5-19.5-23.9-25.2-1.3-.5-2.7-1-4-1.5-7.2-2.7-14-5.2-17.5-10.2-2.7-3.8-3.7-9.5-3.1-16.9,1-12.7,5.8-25.3,13.4-35.5,1.3-1.7,2.6-3.4,4-5.1,7-8.7,15-18.6,13.5-31.3-1.4-12.9-11.5-20.6-20.4-27.4-3.9-3-7.6-5.8-10.5-8.8-7.3-7.8-10.9-20.2-9.5-33,1.2-10.8,5.4-22.2,13.4-35.8.9-1.5,1.8-3,2.7-4.6,3.9-6.4,7.9-13,10.5-20.6,4-11.7,3.3-23.4-2-32-3.4-5.6-8.5-9.8-12.9-13.5-5.4-4.5-10.1-8.3-10.6-13.2-.4-3.9,1.9-8.1,4.5-13,3-5.5,6.4-11.8,6.3-19.3,0-7.1-3.2-13-6-18.2-2-3.7-3.9-7.2-4.4-10.6-.8-5.8,3.7-12.1,9.5-13.3l-.4-2c-1,0-1.9-.1-2.9-.1-5.6,0-11.1.5-16.6,1.3-.1.2-.3.5-.4.7-2.5,4.7-3.7,10-3,15.3Z" class="st2"/>
      <path d="M244.9,80.3c3.3,3.1,6.9,5.6,10.4,7.9,2.7,1.8,5.2,3.5,7.5,5.5,8.1,6.9,13.4,20.3,7.8,29.8-1.9,3.3-5.1,6.4-8.5,9.7-6.6,6.4-14,13.6-13.6,24.6.5,14.3,13.2,21.2,23.5,26.8,2.7,1.5,5.4,2.9,7.8,4.5,11.9,7.7,18.7,22.9,16.6,36.9-1.6,10.2-7.2,19.5-13.2,29.3-1.7,2.8-3.4,5.6-5,8.4-10.7,18.8-13.2,35.2-7.5,48.6,4.9,11.5,14.8,18.9,24.4,26.1,10.2,7.6,18.9,14.1,19.8,23.9.7,8-4.3,15.8-9.7,24.2-1.3,2-2.5,3.9-3.7,5.9-8.6,14.1-11.7,33.1.6,43.8,4.2,3.7,9.2,5.3,13.6,6.7,3.2,1,6.2,2,8.3,3.6,7.3,5.4,6.1,18.5,3.7,28.6-2.2,9.5-5.4,20.6-10.7,30.7,7.4-4.6,14.4-9.8,21.1-15.4,1.2-4.2,2.3-8.3,3.2-12.1,4.8-20.6,1.8-35.1-9-43-3.9-2.9-8.3-4.3-12.2-5.6-3.4-1.1-6.7-2.2-8.8-4-6.5-5.7-2.3-18.6,2.1-25.9,1.1-1.8,2.3-3.7,3.5-5.5,6.1-9.5,13.1-20.3,11.9-33.1-1.5-15.9-14.2-25.4-25.4-33.8-8.5-6.3-16.5-12.3-19.9-20.3-3.9-9.3-1.6-21.5,6.8-36.3,1.5-2.7,3.2-5.4,4.8-8,6.4-10.6,13.1-21.5,15-34.5,3-19.6-6.2-40-22.8-50.7-2.7-1.7-5.7-3.4-8.7-5-9.7-5.3-16-9.2-16.2-15-.1-4.5,3.5-8.3,9.4-14.1,3.9-3.8,7.9-7.7,10.8-12.7,9.6-16.6,1.6-36.8-10.8-47.4-2.9-2.4-5.9-4.5-8.8-6.4-3.2-2.1-6.1-4.1-8.6-6.5-6.8-6.4-10.4-16.6-9.1-25.8,1.1-7.5,5.2-14.5,11.2-19.2-.1,0-.3-.2-.4-.2h0c-4.7-2-9.5-3.6-14.3-4.9-5.4,6.3-9.2,14.1-10.3,22.4-2,13.8,3.1,28.4,13.3,38Z" class="st5"/>
      <path d="M256.6,25.1c7.4,3.6,12.5,12.6,15.6,27.5l.9,4.6c2.4,11.9,5.1,25.5,14.4,35.4,3.9,4.2,8.6,7.3,13,10.3,4.8,3.2,9.3,6.2,12.1,10.2,6.4,9.1,3.6,22.8.3,36.1-2.7,10.5-8.2,32.4,3.8,47.6,5.8,7.4,14.3,11.2,21.8,14.6,1.5.7,3,1.4,4.5,2.1,6.2,3,13.7,7.8,14.6,14.4.7,5.1-2.6,10.9-6.4,16.8l-17.8,28c-2.1,3.3-4.7,7.3-5.5,12.3-1.6,9.1,2.9,18.7,12.7,27.1,7.5,6.4,16.1,11.4,25.4,14.8l2.1.7c4.8,1.7,9.8,3.5,11.2,6.5.7,1.6.7,4,.6,6.3-.6,13.4-4.4,26.8-11,38.5-1.5,2.7-3.2,5.3-4.8,7.9-4.9,7.8-10,15.9-11.9,25.7-1.5,8.1-.6,15.9.4,23.5l.5,4.4c1.3,11.9,1.2,23.9-.3,35.8v.3c5.3-5.6,10.4-11.5,15.2-17.8,0-6.6-.3-13.3-1-19.8-.2-1.5-.4-3.1-.6-4.6-.8-6.8-1.6-13.2-.5-19.2,1.4-7.2,5.5-13.8,10-20.8,1.8-2.8,3.6-5.6,5.2-8.5,7.7-13.6,12.1-29.1,12.8-44.7.2-4.2,0-8.6-2-12.9-3.9-8.3-12.4-11.3-19.2-13.8l-2-.7c-7.7-2.8-14.8-7-21.1-12.3-2.7-2.3-9-8.4-8-14.1.4-2.2,2-4.8,3.5-7.2l17.8-28c4-6.2,10-15.6,8.5-26.3-1.4-10.2-9-18.6-22.4-25.1-1.6-.7-3.1-1.5-4.7-2.2-6.6-3-12.8-5.8-16.6-10.6-6.8-8.6-4.6-22.2-1.2-35.5,4.2-16.4,7.4-33.6-2.4-47.5-4.3-6.2-10.2-10.1-15.9-13.8-4-2.6-7.7-5.1-10.5-8.1-6.6-7.1-8.7-17.6-10.9-28.7l-1-4.7c-.8-3.9-1.8-7.5-3-10.8-8.6-5.7-17.6-10.4-26.7-14.1h0c.1.1.3.2.4.3Z" class="st4"/>
    </g>
  </g>
</svg>