<svg version="1.1" xmlns="http://www.w3.org/2000/svg" xmlns:xlink="http://www.w3.org/1999/xlink" width="22.97976" height="22.97993" viewBox="0,0,22.97976,22.97993"><g transform="translate(-168.51012,-300.11003)"><g stroke="none" stroke-miterlimit="10"><path d="M177.38946,300.37041c0.15085,-0.16221 0.36088,-0.25622 0.58229,-0.26021c0.22193,-0.00451 0.43536,0.08166 0.59222,0.23852l12.68723,12.68723c0.15686,0.15686 0.24296,0.37036 0.23852,0.59222c-0.00399,0.22127 -0.098,0.43131 -0.26021,0.58229c-0.40746,0.37754 -10.10597,9.24244 -21.91857,8.86797c-0.43026,-0.01346 -0.77579,-0.35899 -0.78925,-0.78925c-0.37506,-11.81318 8.49023,-21.51143 8.86777,-21.91876z" fill="#707487"/><path d="M177.38946,300.37041c0.15085,-0.16221 0.36088,-0.25622 0.58229,-0.26021c0.22193,-0.00451 0.43536,0.08166 0.59222,0.23852l6.34362,6.34362l-16.14757,16.14757c-0.1419,-0.1419 -0.23153,-0.33567 -0.23832,-0.55073c-0.37506,-11.81318 8.49023,-21.51143 8.86777,-21.91876z" fill="#65687a"/><path d="M180.87142,308.42182l6.92028,-6.92028l2.30674,2.30674l-6.92028,6.92028c-0.63703,0.63703 -1.66977,0.63703 -2.30681,0v0c-0.63697,-0.63697 -0.63703,-1.66977 0.00007,-2.30674z" fill="#5b5d6e"/></g></g></svg>