<svg version="1.1" xmlns="http://www.w3.org/2000/svg" xmlns:xlink="http://www.w3.org/1999/xlink" width="115.43604" height="188.80911" viewBox="0,0,115.43604,188.80911"><g transform="translate(-122.28198,-225.59544)"><g stroke-miterlimit="10"><g stroke="none" stroke-width="1" stroke-linecap="butt"><g fill="#ca842a"><path d="M147.72717,250.79889l-15.82164,-2.96375l17.02959,-4.65369z"/><path d="M159.64293,238.19501l14.52203,-10.03937l-7.91486,14.01744z"/></g><path d="M177.47797,255.80252c0.86347,1.8542 0.06031,4.05734 -1.79339,4.92057l-10.00194,4.65774l-9.84291,4.58368c-1.8537,0.86324 -4.05685,0.06008 -4.92032,-1.79412c0,0 -20.1246,-18.82431 -19.01401,-20.33518c0,0 14.14719,1.36557 14.55526,0.24533c0.45556,-1.24506 1.38725,-18.21234 2.45017,-18.71357c1.06848,-0.49192 14.81317,9.64065 16.05909,10.09412c1.12092,0.40822 9.18047,-11.29866 9.18047,-11.29866c1.87076,0.12251 3.32707,27.64033 3.32757,27.64009z" fill="#edb20f"/><g fill="#ffc50b"><path d="M148.9114,229.36655l16.77125,36.01429l-9.84291,4.58368c-1.8537,0.86324 -4.05685,0.06008 -4.92032,-1.79412c0,0 -20.1246,-18.82431 -19.01395,-20.33537c0,0 14.14719,1.36557 14.55526,0.24533c0.45556,-1.24506 1.38724,-18.21234 2.45015,-18.71357z"/><path d="M145.6061,230.90577c-0.82919,-1.78059 -0.05793,-3.89622 1.72265,-4.7254c1.78059,-0.82919 3.89622,-0.05793 4.7254,1.72265c0.82919,1.78059 0.05793,3.89623 -1.72265,4.72541c-1.78059,0.82919 -3.89622,0.05792 -4.72541,-1.72266z"/></g><path d="M177.5225,255.78179c0.86347,1.8542 0.06032,4.05734 -1.79426,4.92098l-19.88849,9.26174c-1.8537,0.86324 -4.05685,0.06008 -4.92032,-1.79412c0,0 7.52304,-4.06407 13.06683,-6.64573c5.54416,-2.58182 13.53624,-5.74288 13.53624,-5.74288z" fill="#b8972f"/><path d="M165.68232,265.38145l-9.84241,4.58344c-1.8537,0.86324 -4.05685,0.06008 -4.92032,-1.79412c0,0 7.52304,-4.06407 13.06683,-6.64573z" fill="#c4a12e"/><path d="M146.51483,231.26048c-0.83015,-0.30264 -0.93919,-2.16034 -0.63579,-2.99147c0.3028,-0.82978 1.42371,-2.00618 2.25392,-1.70341c0.83009,0.30251 -0.78723,4.99779 -1.61813,4.69489z" fill="#f6e568"/><g fill="#ffc50b"><path d="M172.16351,229.28532c-0.54507,-1.17047 -0.03809,-2.5612 1.1324,-3.10628c1.17048,-0.54507 2.5612,-0.03809 3.10628,1.1324c0.54507,1.17047 0.03809,2.5612 -1.1324,3.10628c-1.17048,0.54507 -2.56121,0.03808 -3.10628,-1.1324z"/><path d="M172.76188,229.52053c-0.54563,-0.19933 -0.61774,-1.42089 -0.41846,-1.96666c0.19882,-0.54541 0.93626,-1.3189 1.48167,-1.12007c0.54633,0.19916 -0.51657,3.28558 -1.06321,3.08672z"/><path d="M129.82433,249.00196c-0.54507,-1.17047 -0.03809,-2.5612 1.1324,-3.10628c1.17048,-0.54507 2.5612,-0.03809 3.10628,1.1324c0.54507,1.17047 0.03809,2.5612 -1.1324,3.10628c-1.17048,0.54507 -2.56121,0.03808 -3.10628,-1.1324z"/></g><path d="M130.42132,249.23782c-0.54563,-0.19933 -0.61722,-1.42113 -0.41846,-1.96666c0.19984,-0.54588 0.93625,-1.3189 1.48267,-1.12053c0.54557,0.19952 -0.51769,3.28611 -1.06421,3.08719z" fill="#f6e568"/><path d="M162.15711,248.26603l-0.64496,8.26959l-6.74551,-4.82798l0.64602,-8.26994z" fill="#a8213b"/><path d="M162.15711,248.26603l-0.64496,8.26959l-6.74551,-4.82798z" fill="#951d38"/><path d="M161.51215,256.53563l-6.74551,-4.82798l0.64602,-8.26994z" fill="#c0355a"/><path d="M161.51215,256.53563l-6.74551,-4.82798l3.69574,-1.72104z" fill="#b72d4c"/></g><g stroke="none" stroke-width="1" stroke-linecap="butt"><g fill="#ca842a"><path d="M198.36327,241.97186l-7.82736,-14.06557l14.45946,10.12858z"/><path d="M215.6722,243.08727l17.00093,4.75882l-15.8405,2.86569z"/></g><path d="M213.51978,268.05685c-0.87489,1.84884 -3.08295,2.63839 -4.93128,1.76374l-9.97302,-4.71934l-9.81445,-4.6443c-1.84834,-0.87466 -2.6379,-3.08272 -1.76301,-4.93155c0,0 1.62589,-27.50838 3.49775,-27.61916c0,0 7.9872,11.75637 9.10974,11.35466c1.2489,-0.44492 14.8977,-10.5675 15.96236,-10.06996c1.06104,0.50776 2.04631,17.55519 2.49339,18.80342c0.40203,1.12315 14.55736,-0.15514 14.55736,-0.15514c1.10087,1.51751 -19.13933,20.21739 -19.13883,20.21763z" fill="#edb20f"/><g fill="#ffc50b"><path d="M215.60855,229.1911l-16.99308,35.91016l-9.81445,-4.6443c-1.84834,-0.87466 -2.6379,-3.08272 -1.76301,-4.93155c0,0 1.62589,-27.50838 3.49793,-27.61923c0,0 7.9872,11.75637 9.10974,11.35466c1.2489,-0.44492 14.8977,-10.56752 15.96235,-10.06998z"/><path d="M212.31281,227.63152c0.84016,-1.77544 2.9605,-2.53363 4.73594,-1.69347c1.77544,0.84016 2.53363,2.9605 1.69347,4.73594c-0.84016,1.77544 -2.96052,2.53363 -4.73595,1.69348c-1.77544,-0.84016 -2.53362,-2.96051 -1.69347,-4.73595z"/></g><path d="M213.56418,268.07786c-0.87489,1.84884 -3.08294,2.63839 -4.93215,1.76333l-19.83099,-9.38424c-1.84834,-0.87466 -2.6379,-3.08272 -1.76301,-4.93155c0,0 7.93267,3.19148 13.46043,5.80727c5.52813,2.61597 13.06572,6.74519 13.06572,6.74519z" fill="#b8972f"/><path d="M198.6148,265.10139l-9.81395,-4.64407c-1.84834,-0.87466 -2.6379,-3.08272 -1.76301,-4.93155c0,0 7.93267,3.19148 13.46043,5.80727z" fill="#c4a12e"/><path d="M212.62045,228.55725c-0.2975,-0.83201 1.06204,-2.10267 1.89529,-2.40021c0.83182,-0.29713 2.45295,-0.18631 2.7504,0.64582c0.29756,0.83188 -4.34791,2.58714 -4.64569,1.75439z" fill="#f6e568"/><g fill="#ffc50b"><path d="M230.52542,247.02798c0.55228,-1.16709 1.9461,-1.6655 3.1132,-1.11322c1.1671,0.55228 1.6655,1.9461 1.11322,3.1132c-0.55228,1.16709 -1.9461,1.6655 -3.1132,1.11322c-1.1671,-0.55228 -1.66549,-1.94611 -1.11322,-3.1132z"/><path d="M230.72673,247.6386c-0.19522,-0.54712 0.69851,-1.38297 1.2457,-1.57832c0.54662,-0.19547 1.6128,-0.12226 1.80827,0.42437c0.19579,0.54755 -2.85773,1.70155 -3.05396,1.15396z"/><path d="M188.30867,227.05055c0.55228,-1.16709 1.9461,-1.6655 3.1132,-1.11322c1.1671,0.55228 1.6655,1.9461 1.11322,3.1132c-0.55228,1.16709 -1.9461,1.6655 -3.1132,1.11322c-1.1671,-0.55228 -1.66549,-1.94611 -1.11322,-3.1132z"/></g><path d="M188.5086,227.66052c-0.19522,-0.54712 0.69902,-1.38273 1.2457,-1.57832c0.54763,-0.19499 1.61279,-0.12227 1.80926,0.42484c0.19504,0.54719 -2.85885,1.70102 -3.05496,1.15348z" fill="#f6e568"/><path d="M209.53032,251.4553l-6.77415,4.78675l-0.59494,-8.27389l6.7751,-4.78616z" fill="#a8213b"/><path d="M209.53032,251.4553l-6.77415,4.78675l-0.59494,-8.27389z" fill="#951d38"/><path d="M202.75616,256.24206l-0.59494,-8.27389l6.7751,-4.78616z" fill="#c0355a"/><path d="M202.75616,256.24206l-0.59494,-8.27389l3.68505,1.74381z" fill="#b72d4c"/></g><g><path d="M180.09847,264.17612c24.93863,0 57.09666,37.03378 57.61464,86.06327c0.46824,44.32005 -32.676,64.16517 -57.61464,64.16517c-24.93863,0 -58.57627,-18.33917 -57.80341,-63.9764c0.8239,-48.65227 32.86479,-86.25204 57.80341,-86.25204z" fill="#005fff" stroke="none" stroke-width="0" stroke-linecap="butt"/><path d="M232.98332,377.5491c0,0 -15.15464,14.16944 -54.02158,16.04601c-31.07698,1.50045 -50.40336,-11.70414 -50.40336,-11.70414" fill="none" stroke="#000000" stroke-width="1" stroke-linecap="round"/><path d="M236.00373,367.16637c0,0 -13.50578,17.18842 -57.2308,19.44398c-35.05557,1.80833 -53.61257,-14.34703 -53.61257,-14.34703" fill="none" stroke="#000000" stroke-width="1" stroke-linecap="round"/><path d="M218.7936,290.6489c0,0 -15.74372,5.48874 -41.53087,5.85207c-26.7967,0.37756 -36.24511,-4.9082 -36.24511,-4.9082" fill="none" stroke="#000000" stroke-width="1" stroke-linecap="round"/><path d="M222.38034,295.93465c0,0 -20.27436,6.24387 -46.06149,6.60718c-26.7967,0.37756 -38.32165,-5.85207 -38.32165,-5.85207" fill="none" stroke="#000000" stroke-width="1" stroke-linecap="round"/><path d="M136.10943,325.28941c0,-4.74377 3.84558,-8.58934 8.58934,-8.58934c4.74377,0 8.58934,3.84558 8.58934,8.58934c0,4.74377 -3.84558,8.58934 -8.58934,8.58934c-4.74377,0 -8.58934,-3.84558 -8.58934,-8.58934z" fill="#ff25ed" stroke="#000000" stroke-width="1" stroke-linecap="butt"/><path d="M151.77788,357.759c0,-4.74377 3.84558,-8.58934 8.58934,-8.58934c4.74377,0 8.58934,3.84558 8.58934,8.58934c0,4.74377 -3.84558,8.58934 -8.58934,8.58934c-4.74377,0 -8.58934,-3.84558 -8.58934,-8.58934z" fill="#ffd626" stroke="#000000" stroke-width="1" stroke-linecap="butt"/><path d="M182.92604,360.96821c0,-4.74377 3.84558,-8.58934 8.58934,-8.58934c4.74377,0 8.58934,3.84558 8.58934,8.58934c0,4.74377 -3.84558,8.58934 -8.58934,8.58934c-4.74377,0 -8.58934,-3.84558 -8.58934,-8.58934z" fill="#26a0ff" stroke="#000000" stroke-width="1" stroke-linecap="butt"/><path d="M168.01268,320.57002c0,-4.74377 3.84558,-8.58934 8.58934,-8.58934c4.74377,0 8.58934,3.84558 8.58934,8.58934c0,4.74377 -3.84558,8.58934 -8.58934,8.58934c-4.74377,0 -8.58934,-3.84558 -8.58934,-8.58934z" fill="#26a0ff" stroke="#000000" stroke-width="1" stroke-linecap="butt"/><path d="M200.67104,340.39156c0,-4.74377 3.84558,-8.58934 8.58934,-8.58934c4.74377,0 8.58934,3.84558 8.58934,8.58934c0,4.74377 -3.84558,8.58934 -8.58934,8.58934c-4.74377,0 -8.58934,-3.84558 -8.58934,-8.58934z" fill="#26ff41" stroke="#000000" stroke-width="1" stroke-linecap="butt"/><path d="M211.80884,312.45262c0,-4.74377 3.84558,-8.58934 8.58934,-8.58934c4.74377,0 8.58934,3.84558 8.58934,8.58934c0,4.74377 -3.84558,8.58934 -8.58934,8.58934c-4.74377,0 -8.58934,-3.84558 -8.58934,-8.58934z" fill="#26ff41" stroke="#000000" stroke-width="1" stroke-linecap="butt"/><path d="M217.09461,357.94777c0,-4.74377 3.84558,-8.58934 8.58934,-8.58934c4.74377,0 8.58934,3.84558 8.58934,8.58934c0,4.74377 -3.84558,8.58934 -8.58934,8.58934c-4.74377,0 -8.58934,-3.84558 -8.58934,-8.58934z" fill="#ff25ed" stroke="#000000" stroke-width="1" stroke-linecap="butt"/><path d="M130.4461,352.47326c0,-4.74377 3.84558,-8.58934 8.58934,-8.58934c4.74377,0 8.58934,3.84558 8.58934,8.58934c0,4.74377 -3.84558,8.58934 -8.58934,8.58934c-4.74377,0 -8.58934,-3.84558 -8.58934,-8.58934z" fill="#ffd626" stroke="#000000" stroke-width="1" stroke-linecap="butt"/></g></g></g></svg>