<svg xmlns:xlink="http://www.w3.org/1999/xlink" xmlns="http://www.w3.org/2000/svg" viewBox="0 0 421.6 546.6" version="1.1" id="Layer_1">
  
  <defs>
    <style>
      .st0 {
        fill: #e6e7e7;
      }

      .st1 {
        fill: none;
      }

      .st2 {
        clip-path: url(#clippath);
      }

      .st3 {
        fill: #7eb743;
      }
    </style>
    <clipPath id="clippath">
      <path d="M411.8,319.5c0,129.5-89.5,215.7-199.9,215.7S12.1,449,12.1,319.5,101.6,15.9,212,15.9s199.9,162.5,199.9,303.6Z" class="st1"/>
    </clipPath>
  </defs>
  <g class="st2">
    <path d="M411.8,319.5c0,129.5-89.5,215.7-199.9,215.7S12.1,449,12.1,319.5,101.6,15.9,212,15.9s199.9,162.5,199.9,303.6Z" class="st3"/>
    <g>
      <path d="M335.8,89.5c-3.6-4.7-7.4-9.4-11.2-13.7-81.4,46.1-197.2,79.4-277.6,81.2-2.6,5.8-5,11.6-7.3,17.6.2,0,.3,0,.4,0,84.9,0,208.9-35.1,295.6-85.1Z" class="st0"/>
      <path d="M350.5,110.4c-3.1-4.8-6.3-9.5-9.5-14-86.3,52-218.4,88.7-304.5,86.9-2.1,5.7-4,11.5-5.8,17.3,3.3.1,6.7.2,10.2.2,89.1,0,221.6-37.5,309.6-90.3Z" class="st0"/>
      <path d="M216.9,16.1c-27.1,10.5-55.3,19.6-83.1,26.8-9.9,7-19.3,15.4-28.3,24.7,47.4-9.8,97.7-25.7,143.3-45.6-10.4-3.4-21-5.4-31.9-5.9Z" class="st0"/>
      <path d="M260.7,26.6c-51.5,23.7-110.9,42.2-165.5,52.3-5.3,6.3-10.5,12.9-15.4,19.9,64.8-10.2,138.2-32.7,199.5-62.4-6-3.8-12.2-7.1-18.5-9.8Z" class="st0"/>
      <path d="M383.1,174.3c-2.3-5.7-4.7-11.2-7.1-16.8-83.7,70.8-265.6,125.5-360.9,115.5-.7,5.8-1.3,11.6-1.8,17.4,8.3.9,17,1.3,26.4,1.3,102.2,0,261.2-50.8,343.4-117.4Z" class="st0"/>
      <path d="M391.8,198.4c-1.9-5.9-4-11.7-6.2-17.4C302.1,254.9,111.7,310.8,12.8,298.8c-.3,5.9-.5,11.7-.6,17.6,8.8,1,18.2,1.5,28.2,1.5,104.8,0,269.5-51.9,351.4-119.4Z" class="st0"/>
      <path d="M408,267.4c-1.1-7.4-2.4-14.8-3.9-22.2l-.4-.3c-59.4,82.4-271,153.2-381.6,145.7,1.8,6.1,3.8,12.1,6.1,17.9,3.6.1,7.2.2,11,.2,114.2,0,299.2-63.4,368.8-141.4Z" class="st0"/>
      <path d="M411.1,297.2c-.5-7.6-1.2-15.1-2.2-22.7l-.8-.6c-60.9,80.6-261.8,147.5-376.3,143.5,2.7,6.1,5.6,11.9,8.7,17.6,114.2-.2,298.8-61.7,370.6-137.7Z" class="st0"/>
      <path d="M406.8,370.9c-52.8,63.1-191.8,118.1-300.5,134.2,8.1,5.1,16.6,9.7,25.4,13.6,95-17.8,204.4-61.1,265.4-113.4,4-10.9,7.3-22.3,9.7-34.3Z" class="st0"/>
      <path d="M391.6,418.6c-55.3,47.6-154.5,87.5-244.1,106.1,11.9,4,24.3,6.9,37,8.6,66.6-17.4,134.9-44.8,185.5-77.5,8.3-11.4,15.6-23.8,21.6-37.3Z" class="st0"/>
    </g>
  </g>
</svg>