<svg version="1.1" xmlns="http://www.w3.org/2000/svg" xmlns:xlink="http://www.w3.org/1999/xlink" width="46.35091" height="114.73277" viewBox="0,0,46.35091,114.73277"><g transform="translate(-156.82454,-262.63362)"><g stroke-miterlimit="10"><path d="M179.4873,274.62767c9.93524,-0.31454 23.01872,24.60517 23.58533,58.12714c0.51219,30.30207 -12.54624,44.29108 -22.48148,44.60562c-9.93524,0.31454 -23.47081,-11.80232 -23.49825,-43.0208c-0.02925,-33.28094 12.45916,-59.39742 22.3944,-59.71197z" fill="#9966ff" stroke="none" stroke-width="0" stroke-linecap="butt"/><g stroke="none" stroke-width="1" stroke-linecap="butt"><g fill="#ca842a"><path d="M170.78086,282.91795l-11.80998,-8.44902l15.69876,2.67963z"/><path d="M185.32527,277.14857l15.69913,-2.67963l-11.81086,8.44902z"/></g><path d="M193.20503,298.33976c0,1.84517 -1.49583,3.34099 -3.34049,3.34099h-9.95321h-9.79495c-1.84467,0 -3.3405,-1.49583 -3.3405,-3.34099c0,0 -9.28873,-23.0582 -7.80513,-23.87082c0,0 11.04928,6.50438 11.80961,5.74367c0.8467,-0.8447 8.07023,-14.36543 9.13035,-14.37054c1.06112,0.00462 8.44253,13.52522 9.28873,14.37054c0.76121,0.76071 11.81047,-5.74367 11.81047,-5.74367c1.48322,0.81262 -7.80538,23.87082 -7.80488,23.87082z" fill="#edb20f"/><g fill="#ffc50b"><path d="M179.91133,265.84194v35.83882h-9.79495c-1.84467,0 -3.3405,-1.49583 -3.3405,-3.34099c0,0 -9.28873,-23.0582 -7.80501,-23.87095c0,0 11.04928,6.50438 11.80961,5.74367c0.8467,-0.8447 8.07022,-14.36544 9.13034,-14.37055z"/><path d="M176.62214,265.84194c0,-1.77191 1.43641,-3.20832 3.20832,-3.20832c1.77191,0 3.20832,1.43641 3.20832,3.20832c0,1.77191 -1.43642,3.20833 -3.20832,3.20833c-1.77191,0 -3.20832,-1.43642 -3.20832,-3.20833z"/></g><path d="M193.24934,298.33976c0,1.84517 -1.49582,3.34099 -3.34136,3.34099h-19.79159c-1.84467,0 -3.3405,-1.49583 -3.3405,-3.34099c0,0 7.69992,-0.45855 13.2167,-0.45855c5.51715,0 13.25675,0.45855 13.25675,0.45855z" fill="#b8972f"/><path d="M179.91083,301.68113h-9.79445c-1.84467,0 -3.3405,-1.49583 -3.3405,-3.34099c0,0 7.69992,-0.45855 13.2167,-0.45855z" fill="#c4a12e"/><path d="M177.2302,266.47809c-0.56363,-0.56364 0.05466,-2.12436 0.6193,-2.6885c0.56363,-0.56326 1.92829,-1.09843 2.49192,-0.53467c0.56363,0.56351 -2.54708,3.78731 -3.11122,3.22317z" fill="#f6e568"/><g fill="#ffc50b"><path d="M198.95744,274.63056c0,-1.16477 0.94423,-2.10901 2.10901,-2.10901c1.16478,0 2.10901,0.94423 2.10901,2.10901c0,1.16477 -0.94423,2.10901 -2.10901,2.10901c-1.16478,0 -2.10901,-0.94424 -2.10901,-2.10901z"/><path d="M199.3572,275.05079c-0.3703,-0.3708 0.03594,-1.39723 0.40675,-1.76766c0.3703,-0.37031 1.26793,-0.72202 1.63824,-0.35171c0.37093,0.37093 -1.67368,2.49017 -2.04498,2.11937z"/><path d="M156.82455,274.63056c0,-1.16477 0.94423,-2.10901 2.10901,-2.10901c1.16478,0 2.10901,0.94423 2.10901,2.10901c0,1.16477 -0.94423,2.10901 -2.10901,2.10901c-1.16478,0 -2.10901,-0.94424 -2.10901,-2.10901z"/></g><path d="M157.22294,275.05079c-0.3703,-0.3708 0.03645,-1.39723 0.40675,-1.76766c0.37131,-0.37031 1.26792,-0.72202 1.63923,-0.35171c0.37018,0.37093 -1.6748,2.49017 -2.04598,2.11937z" fill="#f6e568"/><path d="M183.546,286.34194l-3.67673,6.51711l-3.67773,-6.51711l3.67773,-6.51699z" fill="#a8213b"/><path d="M183.546,286.34194l-3.67673,6.51711l-3.67773,-6.51711z" fill="#951d38"/><path d="M179.86927,292.85906l-3.67773,-6.51711l3.67773,-6.51699z" fill="#c0355a"/><path d="M179.86927,292.85906l-3.67773,-6.51711h3.67773z" fill="#b72d4c"/></g><g stroke="#000000" stroke-width="1"><path d="M201.38901,350.23683c0,0 -5.93331,5.75628 -21.40363,6.78947c-12.36966,0.82611 -20.16607,-4.29243 -20.16607,-4.29243" fill="none" stroke-linecap="round"/><path d="M202.51602,346.07829c0,0 -5.25424,6.94689 -22.65717,8.16676c-13.95242,0.978 -21.46401,-5.32174 -21.46401,-5.32174" fill="none" stroke-linecap="round"/><path d="M201.16524,313.86709c0,0 -12.29953,4.15637 -22.57015,4.49059c-10.6727,0.34731 -19.44786,-3.71164 -19.44786,-3.71164" fill="none" stroke-linecap="round"/><path d="M201.36888,316.0308c0,0 -12.83482,4.40621 -23.10542,4.74043c-10.6727,0.34731 -19.52359,-3.90385 -19.52359,-3.90385" fill="none" stroke-linecap="round"/><path d="M162.41166,330.12903c-0.03486,-1.88986 1.46892,-3.45014 3.35878,-3.485c1.88986,-0.03486 3.45014,1.46892 3.485,3.35878c0.03486,1.88986 -1.46892,3.45014 -3.35878,3.485c-1.88986,0.03486 -3.45014,-1.46892 -3.485,-3.35878z" fill="#ff25ed" stroke-linecap="butt"/><path d="M168.89236,342.94938c-0.03486,-1.88986 1.46892,-3.45014 3.35878,-3.485c1.88986,-0.03486 3.45014,1.46892 3.485,3.35878c0.03486,1.88986 -1.46892,3.45014 -3.35878,3.485c-1.88986,0.03486 -3.45014,-1.46892 -3.485,-3.35878z" fill="#ffd626" stroke-linecap="butt"/><path d="M181.32499,343.99902c-0.03486,-1.88986 1.46892,-3.45014 3.35878,-3.485c1.88986,-0.03486 3.45014,1.46892 3.485,3.35878c0.03486,1.88986 -1.46892,3.45014 -3.35878,3.485c-1.88986,0.03486 -3.45014,-1.46892 -3.485,-3.35878z" fill="#26a0ff" stroke-linecap="butt"/><path d="M175.08684,328.01446c-0.03486,-1.88986 1.46892,-3.45014 3.35878,-3.485c1.88986,-0.03486 3.45014,1.46892 3.485,3.35878c0.03486,1.88986 -1.46892,3.45014 -3.35878,3.485c-1.88986,0.03486 -3.45014,-1.46892 -3.485,-3.35878z" fill="#26a0ff" stroke-linecap="butt"/><path d="M188.24317,335.67115c-0.03486,-1.88986 1.46892,-3.45014 3.35878,-3.485c1.88986,-0.03486 3.45014,1.46892 3.485,3.35878c0.03486,1.88986 -1.46892,3.45014 -3.35878,3.485c-1.88986,0.03486 -3.45014,-1.46892 -3.485,-3.35878z" fill="#26ff41" stroke-linecap="butt"/><path d="M192.47505,324.45879c-0.03486,-1.88986 1.46892,-3.45014 3.35878,-3.485c1.88986,-0.03486 3.45014,1.46892 3.485,3.35878c0.03486,1.88986 -1.46892,3.45014 -3.35878,3.485c-1.88986,0.03486 -3.45014,-1.46892 -3.485,-3.35878z" fill="#26ff41" stroke-linecap="butt"/><path d="M194.91512,342.54466c-0.03486,-1.88986 1.46892,-3.45014 3.35878,-3.485c1.88986,-0.03486 3.45014,1.46892 3.485,3.35878c0.03486,1.88986 -1.46892,3.45014 -3.35878,3.485c-1.88986,0.03486 -3.45014,-1.46892 -3.485,-3.35878z" fill="#ff25ed" stroke-linecap="butt"/><path d="M160.35521,341.00035c-0.03486,-1.88986 1.46892,-3.45014 3.35878,-3.485c1.88986,-0.03486 3.45014,1.46892 3.485,3.35878c0.03486,1.88986 -1.46892,3.45014 -3.35878,3.485c-1.88986,0.03486 -3.45014,-1.46892 -3.485,-3.35878z" fill="#ffd626" stroke-linecap="butt"/></g></g></g></svg>