<svg version="1.1" xmlns="http://www.w3.org/2000/svg" xmlns:xlink="http://www.w3.org/1999/xlink" width="45.99611" height="59.85933" viewBox="0,0,45.99611,59.85933"><g transform="translate(-157.00195,-290.07033)"><g stroke-miterlimit="10"><path d="M180.03925,290.07033c9.93693,0 22.75047,14.75631 22.95686,34.29237c0.18657,17.65956 -13.01993,25.56696 -22.95686,25.56696c-9.93693,0 -23.34003,-7.30734 -23.03208,-25.49174c0.32829,-19.38576 13.09515,-34.36759 23.03208,-34.36759z" fill="#9966ff" stroke="none" stroke-width="0" stroke-linecap="butt"/><path d="M201.1115,335.2444c0,0 -6.03845,5.64589 -21.52519,6.39362c-12.38279,0.59786 -20.08349,-4.66358 -20.08349,-4.66358" fill="none" stroke="#000000" stroke-width="1" stroke-linecap="round"/><path d="M202.315,331.10735c0,0 -5.38145,6.84882 -22.80392,7.74756c-13.96808,0.72054 -21.36222,-5.71665 -21.36222,-5.71665" fill="none" stroke="#000000" stroke-width="1" stroke-linecap="round"/><path d="M195.45753,300.61855c0,0 -6.27317,2.18702 -16.5482,2.33179c-10.67729,0.15044 -14.44206,-1.9557 -14.44206,-1.9557" fill="none" stroke="#000000" stroke-width="1" stroke-linecap="round"/><path d="M196.88669,302.72469c0,0 -8.07843,2.4879 -18.35345,2.63267c-10.67729,0.15044 -15.26947,-2.33179 -15.26947,-2.33179" fill="none" stroke="#000000" stroke-width="1" stroke-linecap="round"/><path d="M184.69468,320.12548c0,-1.89018 1.53229,-3.42247 3.42247,-3.42247c1.89018,0 3.42247,1.53229 3.42247,3.42247c0,1.89018 -1.53229,3.42247 -3.42247,3.42247c-1.89018,0 -3.42247,-1.53229 -3.42247,-3.42247z" fill="#ff25ed" stroke="#000000" stroke-width="1" stroke-linecap="butt"/><path d="M171.92377,321.0209c0,-1.89018 1.53229,-3.42247 3.42247,-3.42247c1.89018,0 3.42247,1.53229 3.42247,3.42247c0,1.89018 -1.53229,3.42247 -3.42247,3.42247c-1.89018,0 -3.42247,-1.53229 -3.42247,-3.42247z" fill="#ffd626" stroke="#000000" stroke-width="1" stroke-linecap="butt"/><path d="M179.05323,310.67991c0,-1.89018 1.53229,-3.42247 3.42247,-3.42247c1.89018,0 3.42247,1.53229 3.42247,3.42247c0,1.89018 -1.53229,3.42247 -3.42247,3.42247c-1.89018,0 -3.42247,-1.53229 -3.42247,-3.42247z" fill="#26a0ff" stroke="#000000" stroke-width="1" stroke-linecap="butt"/><path d="M178.18134,330.7098c0,-1.89018 1.53229,-3.42247 3.42247,-3.42247c1.89018,0 3.42247,1.53229 3.42247,3.42247c0,1.89018 -1.53229,3.42247 -3.42247,3.42247c-1.89018,0 -3.42247,-1.53229 -3.42247,-3.42247z" fill="#26a0ff" stroke="#000000" stroke-width="1" stroke-linecap="butt"/><path d="M162.46185,311.98808c0,-1.89018 1.53229,-3.42247 3.42247,-3.42247c1.89018,0 3.42247,1.53229 3.42247,3.42247c0,1.89018 -1.53229,3.42247 -3.42247,3.42247c-1.89018,0 -3.42247,-1.53229 -3.42247,-3.42247z" fill="#26ff41" stroke="#000000" stroke-width="1" stroke-linecap="butt"/><path d="M190.98428,311.20777c0,-1.89018 1.53229,-3.42247 3.42247,-3.42247c1.89018,0 3.42247,1.53229 3.42247,3.42247c0,1.89018 -1.53229,3.42247 -3.42247,3.42247c-1.89018,0 -3.42247,-1.53229 -3.42247,-3.42247z" fill="#26ff41" stroke="#000000" stroke-width="1" stroke-linecap="butt"/><path d="M193.72422,326.58908c0,-1.89018 1.53229,-3.42247 3.42247,-3.42247c1.89018,0 3.42247,1.53229 3.42247,3.42247c0,1.89018 -1.53229,3.42247 -3.42247,3.42247c-1.89018,0 -3.42247,-1.53229 -3.42247,-3.42247z" fill="#ff25ed" stroke="#000000" stroke-width="1" stroke-linecap="butt"/><path d="M160.255,325.2528c0,-1.89018 1.53229,-3.42247 3.42247,-3.42247c1.89018,0 3.42247,1.53229 3.42247,3.42247c0,1.89018 -1.53229,3.42247 -3.42247,3.42247c-1.89018,0 -3.42247,-1.53229 -3.42247,-3.42247z" fill="#ffd626" stroke="#000000" stroke-width="1" stroke-linecap="butt"/></g></g></svg>