<svg xmlns:xlink="http://www.w3.org/1999/xlink" xmlns="http://www.w3.org/2000/svg" viewBox="0 0 421.6 546.6" version="1.1" id="Layer_1">
  
  <defs>
    <style>
      .st0 {
        fill: #fff;
      }

      .st1 {
        fill: none;
      }

      .st2 {
        fill: #e7e4f2;
      }

      .st3 {
        fill: #fed249;
      }

      .st4 {
        clip-path: url(#clippath);
      }
    </style>
    <clipPath id="clippath">
      <path d="M411.8,319.5c0,129.5-89.5,215.7-199.9,215.7S12.1,449,12.1,319.5,101.6,15.9,212,15.9s199.9,162.5,199.9,303.6Z" class="st1"/>
    </clipPath>
  </defs>
  <g class="st4">
    <path d="M411.8,319.5c0,129.5-89.5,215.7-199.9,215.7S12.1,449,12.1,319.5,101.6,15.9,212,15.9s199.9,162.5,199.9,303.6Z" class="st2"/>
    <g>
      <path d="M240.1,111.9c.1-.7.3-1.4.5-2.1-5.1-27.9,7.2-65.5,12.5-71.5,1.3-1.4,1.1-3.6-.3-4.9-1.4-1.3-3.6-1.1-4.9.3-6.9,7.9-18.7,45.2-14.6,74.3,0,.2.2.4.2.6,2.5.5,4.7,1.7,6.6,3.2Z" class="st3"/>
      <path d="M242.6,114.4c1.7-1.8,3.5-3.7,5.4-5.5,5.2-17.4,21.1-43.6,28.3-47.4,1.7-.9,2.3-3,1.4-4.7-.9-1.7-3-2.3-4.7-1.4-9.8,5.2-27.7,35.8-32.4,54.4-.2.7-.3,1.4-.5,2.1.9.7,1.7,1.6,2.5,2.5Z" class="st3"/>
      <path d="M242.6,114.4c.4.5.8,1.1,1.2,1.6,2.9-1.4,7.1-3.2,12.1-5.2,14.2-13.9,26.7-23.3,36.4-27.3,1.8-.7,2.6-2.8,1.9-4.5-.7-1.8-2.8-2.6-4.5-1.9-13.4,5.6-29,19.1-41.6,31.7-1.9,1.9-3.7,3.7-5.4,5.5Z" class="st3"/>
      <path d="M243.7,116c.7,1.2,1.3,2.5,1.7,3.9.1,0,.2,0,.4-.1,2-.2,4.7-.4,7.7-.5,17.4-7.3,52.1-19.8,67-22.7,1.9-.4,3.1-2.2,2.7-4.1-.4-1.9-2.1-3.1-4.1-2.7-14.2,2.7-44.5,13.5-63.3,21.1-5,2-9.2,3.8-12.1,5.2Z" class="st3"/>
      <path d="M230.2,108.4c1.1,0,2.3.1,3.3.4,0-.2-.2-.4-.2-.6-8.6-20.5-10.3-55.4-6.2-67.3.6-1.8-.3-3.8-2.1-4.4-1.8-.6-3.8.3-4.4,2.1-4.7,13.5-2.9,45.6,4.5,67.4.5,1,.9,2,1.4,2.9,1.2-.3,2.4-.5,3.7-.5Z" class="st3"/>
      <path d="M226.5,108.8c-.4-.9-.9-1.9-1.4-2.9-1.3-2.8-2.8-5.7-4.3-8.8-7.6-15.4-18.1-36.4-17.7-43,.1-1.9-1.3-3.5-3.2-3.7-2,0-3.5,1.3-3.7,3.2-.5,7.7,7.1,23.7,17.8,45.4,3,4,5.8,7.9,8,11.6,1.4-.8,2.9-1.5,4.5-1.9Z" class="st3"/>
      <path d="M222,110.7c-2.2-3.7-5-7.6-8-11.6-6.4-8.5-14-17.1-20.1-24.1-5.1-5.8-9.4-10.7-11.3-13.5-1.1-1.6-3.2-2-4.8-.9-1.6,1.1-2,3.2-.9,4.8,2.1,3.1,6.4,8,11.8,14.1,9.2,10.5,21.7,24.7,28.2,35.9,0,0,0,0,0,0,1.3-2,3.1-3.6,5.1-4.8Z" class="st3"/>
      <path d="M216.9,115.5s0,0,0,0c-13-4-40.3-16.1-46.9-22.4-1.4-1.3-3.6-1.3-4.9.1-1.3,1.4-1.3,3.6.1,4.9,7.2,6.8,30.2,17.2,44.9,22.4,1.6-.2,3.3-.3,4.9-.6.4-1.6,1.1-3.1,2-4.4Z" class="st3"/>
      <path d="M214.5,126.1c0-.6-.2-1.2-.2-1.9,0-1.5.3-3,.7-4.3-1.6.2-3.3.4-4.9.6-15,1.8-31.9,1.7-51.9-.7-1.9-.3-3.6,1.1-3.8,3-.2,1.9,1.1,3.6,3,3.8,11.5,1.4,22,2,31.9,2s15.9-.6,23.2-1.6c.7-.4,1.4-.7,2-1,0,0,0,0,0,0Z" class="st3"/>
      <path d="M214.5,126.1s0,0,0,0c-.6.3-1.2.7-2,1-10.8,5.4-35.2,13.3-55.6,19-1.8.5-2.9,2.4-2.4,4.3.4,1.5,1.8,2.5,3.3,2.5s.6,0,.9-.1c16.7-4.7,38.1-11.4,51.4-17,2.2-2.1,4.2-3.8,5.7-4.9-.7-1.5-1.1-3.1-1.3-4.8Z" class="st3"/>
      <path d="M215.8,130.9c-1.5,1.1-3.5,2.8-5.7,4.9-10,9.5-25.7,27.9-33.4,43.2-.9,1.7-.2,3.8,1.5,4.6.5.3,1,.4,1.6.4,1.3,0,2.5-.7,3.1-1.9,9.3-18.5,30.5-41.2,37.2-45.7-1.8-1.5-3.2-3.3-4.2-5.5Z" class="st3"/>
      <path d="M220.8,137c-2,5.1-5.6,13.8-9.4,23.1-5.8,14.1-12.1,29.6-14.7,36.4-.7,1.8.2,3.8,2,4.5.4.2.8.2,1.2.2,1.4,0,2.7-.8,3.2-2.2,2.6-6.8,8.9-22.3,14.7-36.3,3.5-8.6,6.8-16.7,8.9-21.9,0-.4,0-.7,0-1.1-2.2-.5-4.2-1.4-5.9-2.7Z" class="st3"/>
      <path d="M230.2,140.2c-1.2,0-2.3-.1-3.4-.4,0,.4,0,.7,0,1.1-.1,15.6,1.5,37.9,5.7,56.2.4,1.6,1.8,2.7,3.4,2.7s.5,0,.8,0c1.9-.4,3-2.3,2.6-4.1-4.2-18-5.7-40.2-5.5-55.3,0-.1,0-.2,0-.3-1.1.2-2.2.4-3.4.4Z" class="st3"/>
      <path d="M238.3,137.9c-1.4.9-3,1.5-4.7,1.9,0,.1,0,.2,0,.3.7,2.5,1.6,5.5,2.6,9.1,3.8,13.4,9.5,33.7,13.8,45.2.5,1.4,1.8,2.2,3.2,2.2s.8,0,1.2-.2c1.8-.7,2.7-2.7,2-4.4-3.9-10.4-9-28.2-12.7-41.4-.7-1.7-1.4-3.3-2.1-4.9-1.2-2.9-2.4-5.6-3.4-7.8Z" class="st3"/>
      <path d="M238.3,137.9c1,2.3,2.2,5,3.4,7.8.7,1.6,1.4,3.2,2.1,4.9,6,13.7,13.6,30.3,20.7,37.5.7.7,1.6,1,2.5,1s1.8-.3,2.4-1c1.4-1.3,1.4-3.5,0-4.9-7.1-7.2-15.7-27.1-21.4-40.3-.5-1.1-.9-2.1-1.3-3.1-1.7-1.7-3.3-3.4-4.7-5-1.1,1.2-2.3,2.2-3.7,3Z" class="st3"/>
      <path d="M242,134.8c1.4,1.6,3,3.3,4.7,5,7.6,7.7,17.2,16.1,26,23.8,4.7,4.1,9.1,7.9,12.6,11.2.7.6,1.5.9,2.3.9s1.9-.4,2.5-1.1c1.3-1.4,1.2-3.6-.2-4.9-3.6-3.3-8-7.2-12.8-11.3-11.2-9.8-23.6-20.7-31.2-29.6-.2-.1-.4-.2-.7-.3-.7,2.3-1.8,4.4-3.4,6.2Z" class="st3"/>
      <path d="M245.9,126.6c-.1.7-.3,1.4-.5,2,.2,0,.4.2.7.3,11.5,4.8,41.5,21.5,45.8,27.8.7,1,1.8,1.5,2.9,1.5s1.3-.2,1.9-.6c1.6-1.1,2-3.2.9-4.8-4.4-6.5-26.4-19.5-41.3-26.8-3.9.2-7.3.4-9.9.6-.2,0-.4,0-.6,0Z" class="st3"/>
      <path d="M318.6,128.7c1.5,0,2.8-1,3.3-2.4.6-1.8-.5-3.8-2.3-4.3-12.5-3.8-47.2-3.7-66.1-2.7-3,.2-5.6.3-7.7.5-.1,0-.2,0-.4.1.4,1.4.7,2.8.7,4.3s-.1,1.6-.2,2.4c.2,0,.4,0,.6,0,2.6-.2,6-.4,9.9-.6,19.1-.9,50.4-.8,61.2,2.5.3.1.7.2,1,.2Z" class="st3"/>
      <path d="M230.2,140.2c1.2,0,2.3-.1,3.4-.4,1.7-.4,3.3-1,4.7-1.9,1.4-.8,2.6-1.8,3.7-3,1.6-1.7,2.7-3.8,3.4-6.2.2-.7.4-1.3.5-2,.1-.8.2-1.6.2-2.4,0-1.5-.3-3-.7-4.3-.4-1.4-.9-2.7-1.7-3.9-.4-.6-.7-1.1-1.2-1.6-.7-.9-1.5-1.7-2.5-2.5-1.9-1.5-4.1-2.7-6.6-3.2-1.1-.2-2.2-.4-3.3-.4s-2.5.2-3.7.5c-1.6.4-3.1,1-4.5,1.9-2,1.2-3.8,2.9-5.1,4.8-.9,1.3-1.5,2.8-2,4.4-.4,1.4-.7,2.8-.7,4.3s.1,1.2.2,1.9c.2,1.7.6,3.3,1.3,4.8,1,2.1,2.4,4,4.2,5.5.3.2.5.5.8.7,1.8,1.3,3.8,2.2,5.9,2.7,1.1.2,2.2.4,3.4.4Z" class="st0"/>
      <path d="M52.6,268.4c.4-1.8,1-3.9,1.8-6-1.3-17.3,5.6-37.7,8.6-41.2,1.3-1.4,1.1-3.6-.3-4.9-1.4-1.3-3.6-1.1-4.9.3-4,4.5-10.3,23.3-10.5,40.8.9,3.7,2,7.1,3.4,10.1.6.2,1.2.5,1.8.9Z" class="st3"/>
      <path d="M54.5,269.9c2.5-2.6,4.8-5,7.2-7.2,4.3-10.7,12.6-23.9,16.4-26,1.7-.9,2.3-3,1.4-4.7-.9-1.7-3-2.3-4.7-1.4-6.4,3.4-16,19.6-20.4,31.7-.8,2.2-1.4,4.2-1.8,6,.7.4,1.3.9,1.9,1.5Z" class="st3"/>
      <path d="M54.5,269.9c.3.3.6.7.8,1,2.9-1.4,7.9-3.5,13.9-5.8,7.5-6.8,14.1-11.5,19.4-13.7,1.8-.7,2.6-2.8,1.9-4.5-.7-1.8-2.8-2.6-4.5-1.9-6.8,2.8-14.9,8.8-24.3,17.7-2.3,2.2-4.7,4.6-7.2,7.2Z" class="st3"/>
      <path d="M55.4,270.9c.6.7,1.1,1.6,1.4,2.4.2,0,.3-.1.5-.1,2.7-.3,7-.5,11.8-.6,12.1-4.8,29.7-10.9,37.9-12.5,1.9-.4,3.1-2.2,2.7-4.1-.4-1.9-2.1-3.1-4.1-2.7-8.1,1.6-24.2,7.1-36.5,11.8-5.9,2.3-11,4.4-13.9,5.8Z" class="st3"/>
      <path d="M45.8,266.9c.4,0,.8-.1,1.3-.1,1.3,0,2.6.3,3.7.7-1.4-2.9-2.5-6.4-3.4-10.1-3.1-12.9-3.4-28.8-1.3-35,.6-1.8-.3-3.8-2.1-4.4-1.8-.6-3.8.3-4.4,2.1-2.4,7-2.3,21.5.2,34.4.7,1.5,1.4,2.9,2.1,4.3,1.5,2.9,2.8,5.6,3.9,8Z" class="st3"/>
      <path d="M45.8,266.9c-1.2-2.5-2.5-5.1-3.9-8-.7-1.3-1.4-2.8-2.1-4.3-4.5-9.1-9.7-20.1-9.5-23.7.1-1.9-1.3-3.5-3.2-3.7-2-.1-3.5,1.3-3.7,3.2-.3,4.2,2.7,11.5,7.4,21.3,4.5,5.3,8.9,10.8,11.9,15.9,1-.4,2-.7,3.1-.9Z" class="st3"/>
      <path d="M39.1,270.6c1-1.2,2.2-2.1,3.6-2.8-3.1-5.1-7.4-10.6-11.9-15.9-2.3-2.8-4.7-5.4-6.9-7.9-1.3-1.4-2.4-2.7-3.5-4-.6,2.9-1.2,5.7-1.7,8.6,5.3,6,12.3,14,16.8,20.8,1.3.5,2.5.9,3.5,1.2Z" class="st3"/>
      <path d="M37.2,273.3c0,0,.1,0,.2,0,.4-1,1-1.9,1.7-2.7-1-.3-2.2-.7-3.5-1.2-5.5-2-13-5.2-18.9-8.2-.4,2.4-.7,4.8-1,7.2,4.3,2.1,9,4.1,13.2,5.8,2.9-.2,5.7-.5,8.4-1Z" class="st3"/>
      <path d="M27.8,281.2c3.5-1.3,6.4-2.6,8.3-3.6.2,0,.3,0,.5-.2,0,0,0,0,0,0,0-1.4.3-2.8.8-4.1,0,0-.1,0-.2,0-2.7.4-5.5.8-8.4,1-4.4.3-9.1.3-14,.1-.3,2.3-.5,4.6-.8,6.9,2,0,4,.2,5.8.2,2.7,0,5.3-.1,7.8-.3Z" class="st3"/>
      <path d="M37.1,280.6c-.3-1-.6-2.1-.6-3.2-.2,0-.3,0-.5.2-1.9,1-4.8,2.3-8.3,3.6-4.1,1.6-8.9,3.2-14.1,4.9-.2,2.5-.4,5-.6,7.4,5.6-1.8,11.2-3.6,16-5.4,3.3-3.5,6.2-6.2,8-7.4Z" class="st3"/>
      <path d="M16.8,316.2c5.1-10.2,16.1-22.6,21.9-27.8.5-1.3,1-2.4,1.3-3.3-1.3-1.2-2.2-2.7-2.8-4.4-1.8,1.3-4.7,3.9-8,7.4-5.7,6-12.3,14.3-16.8,22,0,2.6-.1,5.1-.1,7.7.5.2,1,.4,1.5.4,1.3,0,2.5-.7,3.1-1.9Z" class="st3"/>
      <path d="M43.7,287.2c-1.4-.5-2.7-1.2-3.7-2.2-.4.9-.8,2-1.3,3.3-1.4,3.4-3.2,7.8-5.1,12.4-3.8,9.3-8,19.6-9.7,24.1-.7,1.8.2,3.8,2,4.5.4.2.8.2,1.2.2,1.4,0,2.7-.8,3.2-2.2,1.7-4.5,5.9-14.7,9.7-23.9,1.3-3.3,2.6-6.5,3.8-9.2,0-2.5,0-4.8,0-6.9Z" class="st3"/>
      <path d="M48.2,287.8c-.4,0-.7.1-1.1.1-1.2,0-2.3-.2-3.4-.6,0,2.1,0,4.4,0,6.9.3,9.7,1.4,21.6,3.7,31.6.4,1.6,1.8,2.7,3.4,2.7s.5,0,.8,0c1.9-.4,3-2.3,2.6-4.1-2-8.6-3.1-18.7-3.5-27.4-.3-.9-.5-1.8-.7-2.6-.7-2.6-1.3-4.7-1.8-6.4Z" class="st3"/>
      <path d="M51.4,286.9c-1,.5-2.1.7-3.3.8.5,1.7,1.1,3.9,1.8,6.4.2.8.5,1.7.7,2.6,2.6,9.1,5.8,20.4,8.4,27.4.5,1.4,1.8,2.2,3.2,2.2s.8,0,1.2-.2c1.8-.7,2.7-2.7,2-4.4-1.3-3.4-2.7-8-4.2-12.9-2.8-5.4-5.4-11.5-7.8-16.9-.8-1.9-1.6-3.6-2.2-5.1Z" class="st3"/>
      <path d="M54.1,285.2c-.8.7-1.7,1.3-2.6,1.7.7,1.5,1.4,3.2,2.2,5.1,2.3,5.4,5,11.5,7.8,16.9,2.5,4.8,5,9,7.6,11.6.7.7,1.6,1,2.5,1s1.8-.3,2.4-1c1.4-1.3,1.4-3.5,0-4.9-4-4-8.8-14.5-12.5-22.9-2.7-2.6-5.3-5.1-7.4-7.5Z" class="st3"/>
      <path d="M54.1,285.2c2.1,2.4,4.7,4.9,7.4,7.5,4.1,3.9,8.7,7.9,13,11.7,3.1,2.7,6,5.2,8.3,7.4.7.6,1.5.9,2.3.9s1.9-.4,2.5-1.1c1.3-1.4,1.2-3.6-.2-4.9-2.4-2.2-5.3-4.8-8.5-7.5-5.6-4.9-11.8-10.3-16.6-15.2-2.2-1.1-4.2-2-5.6-2.6-.6,1.5-1.6,2.8-2.7,3.8Z" class="st3"/>
      <path d="M57.9,280.1c-.2,0-.5,0-.7,0-.1.5-.2.9-.4,1.3,1.4.6,3.4,1.5,5.6,2.6,9,4.5,22.4,12.4,24.5,15.5.7,1,1.8,1.5,2.9,1.5s1.3-.2,1.9-.6c1.6-1.1,2-3.2.9-4.8-2.6-3.9-14.3-11-23.9-16.1-4.3.1-8.1.3-10.9.6Z" class="st3"/>
      <path d="M57.3,273.2c-.2,0-.3.1-.5.1.5,1.2.8,2.6.8,4s-.2,1.8-.4,2.7c.2,0,.5.1.7,0,2.8-.3,6.6-.5,10.9-.6,12.9-.4,29.8,0,35.8,1.8.3.1.7.2,1,.2,1.5,0,2.8-1,3.3-2.4.6-1.8-.5-3.8-2.3-4.3-7.1-2.2-24.6-2.4-37.5-2.1-4.9.1-9.1.4-11.8.6Z" class="st3"/>
      <path d="M43.7,287.2c1.1.4,2.2.6,3.4.6s.7,0,1.1-.1c1.1-.1,2.2-.4,3.3-.8,1-.4,1.9-1,2.6-1.7,1.2-1,2.1-2.3,2.7-3.8.2-.4.3-.9.4-1.3.2-.9.4-1.8.4-2.7,0-1.4-.3-2.7-.8-4-.4-.9-.9-1.7-1.4-2.4-.3-.4-.5-.7-.8-1-.6-.6-1.2-1.1-1.9-1.5-.6-.4-1.2-.7-1.8-.9-1.2-.4-2.4-.7-3.7-.7s-.8,0-1.3.1c-1.1.1-2.2.4-3.1.9-1.4.6-2.6,1.6-3.6,2.8-.7.8-1.3,1.7-1.7,2.7-.5,1.3-.8,2.6-.8,4.1s0,0,0,0c0,1.1.2,2.2.6,3.2.6,1.7,1.5,3.2,2.8,4.4,1.1,1,2.3,1.7,3.7,2.2Z" class="st0"/>
      <path d="M264.2,461.8c1.3-.1,2.7-.2,4.3-.2,20.3-9.5,49.9-9.1,55.5-6.5,1.7.8,3.8,0,4.6-1.7.8-1.7,0-3.8-1.7-4.6-7.3-3.2-35.6-3.5-57.1,4.8-1.8,1.3-3.4,2.5-4.9,3.9,0,1.5-.2,3-.6,4.4Z" class="st3"/>
      <path d="M264.2,461.8c-.3.9-.7,1.8-1.2,2.6,2.6,1.3,5.2,2.6,7.9,4.1,14.7.4,36.3,5.9,40.6,10.1.7.7,1.5,1,2.4,1s1.8-.3,2.5-1c1.3-1.4,1.3-3.6,0-4.9-6.6-6.5-32.4-12.1-47.9-12.1-1.5,0-3,0-4.3.2Z" class="st3"/>
      <path d="M262,465.9c2.2,2.3,5.4,6.1,9.1,10.7,12.7,7.1,22,13.9,27.1,19.9.7.8,1.7,1.2,2.6,1.2s1.6-.3,2.2-.8c1.5-1.2,1.6-3.4.4-4.9-7.2-8.6-20.4-16.9-32.6-23.5-2.7-1.5-5.4-2.8-7.9-4.1-.3.5-.6,1-.9,1.4Z" class="st3"/>
      <path d="M262,465.9c-.7.9-1.6,1.7-2.5,2.4,0,.1.2.2.2.4,1,2.3,2.2,5.5,3.6,9.3,9.2,11.2,23.2,29.5,29.8,40.3,2.1-.9,4.2-1.9,6.3-2.9-6.2-10.2-18.8-27.1-28.3-38.8-3.7-4.5-6.9-8.3-9.1-10.7Z" class="st3"/>
      <path d="M264.2,453.9c.4,1.2.5,2.4.5,3.5,1.5-1.3,3.1-2.6,4.9-3.9,14.4-10.1,37.1-18.2,46.2-18,1.9,0,3.5-1.4,3.6-3.4,0-1.9-1.4-3.5-3.4-3.6-10.4-.4-30.3,6.6-45.3,15.8-2.7,2.6-5.2,5-7.5,7.1.4.7.7,1.4.9,2.2Z" class="st3"/>
      <path d="M263.3,451.7c2.3-2.2,4.8-4.5,7.5-7.1,0,0,.2-.2.3-.2,9.4-9.1,23.7-22.8,28.8-24.1,1.9-.5,3-2.3,2.5-4.2-.5-1.9-2.4-3-4.2-2.5-5.6,1.4-14.7,9.4-26.7,20.8-3.5,5.2-7.1,10.2-10.6,14.2.9.9,1.8,1.9,2.4,3.1Z" class="st3"/>
      <path d="M260.9,448.6c3.5-4,7.1-9,10.6-14.2,3.7-5.6,7.3-11.5,10.3-16.4,3.2-5.3,6-9.9,7.7-12,1.2-1.5.9-3.7-.6-4.9-1.5-1.2-3.7-.9-4.9.6-1.9,2.4-4.7,7-8.1,12.7-5.6,9.2-13,21.4-19.8,29.3,0,.7,0,1.4,0,2,1.8.6,3.4,1.6,4.8,3Z" class="st3"/>
      <path d="M256.1,445.6c0-.6,0-1.3,0-2,.2-11.6,2.7-33.6,5.8-39.9.8-1.7.1-3.8-1.6-4.6-1.7-.8-3.8-.1-4.6,1.6-3.3,6.8-5.7,25.1-6.3,37.9.9,2.2,1.8,4.4,2.9,6.4,1.3,0,2.6.3,3.8.7Z" class="st3"/>
      <path d="M247.2,445.8c.3-.1.5-.3.8-.3,1.4-.4,2.8-.6,4.2-.5-1-2-1.9-4.2-2.9-6.4-4.5-10.6-8.2-23-11.1-37.9-.4-1.9-2.2-3.1-4-2.7-1.9.4-3.1,2.2-2.7,4,2.9,15.3,6.7,28.2,11.5,39.2,1.5,1.7,2.9,3.3,4,4.4,0,0,.1.2.2.3Z" class="st3"/>
      <path d="M247.2,445.8c0,0-.1-.2-.2-.3-1.1-1.1-2.5-2.6-4-4.4-7-8.2-17.2-22.7-25.5-35.3-1-1.6-3.2-2-4.8-1-1.6,1-2,3.2-1,4.8,7.1,10.8,16.4,24.2,23.8,33.3,3.6,1.9,6.5,3.6,8.2,4.9,1-.8,2.2-1.5,3.5-2Z" class="st3"/>
      <path d="M243.7,447.8c-1.7-1.3-4.6-3-8.2-4.9-10.3-5.3-26.5-11.9-39.1-14-1.9-.3-3.7,1-4,2.9-.3,1.9,1,3.7,2.8,4,15.7,2.6,37.8,12.9,43.8,17.2.3,0,.6,0,.9,0,.8-2,2.1-3.8,3.8-5.2Z" class="st3"/>
      <path d="M239.9,453.1c-.3,0-.6,0-.9,0-4.6-.3-11.9-.9-19.7-1.6-12.3-1-25.8-2.1-31.8-2.5-2-.2-3.5,1.3-3.7,3.2-.1,1.9,1.3,3.5,3.2,3.7,5.9.4,19.4,1.5,31.6,2.5,6,.5,11.7,1,16.1,1.3,1.4-.5,2.8-.9,4.1-1.3,0-1.8.3-3.6.9-5.2Z" class="st3"/>
      <path d="M239.5,461.7c-.4-1.1-.5-2.3-.5-3.4-1.3.4-2.7.8-4.1,1.3-11.9,3.9-27.2,10.1-39.3,17.3-1.6,1-2.2,3.1-1.2,4.7.6,1.1,1.8,1.7,3,1.7s1.2-.2,1.8-.5c11.4-6.7,25.8-12.6,37.1-16.4,1.6-1,3-2,4.2-2.7-.3-.6-.6-1.3-.8-2Z" class="st3"/>
      <path d="M242.8,467c-1-1-1.8-2.1-2.4-3.3-1.2.8-2.6,1.7-4.2,2.7-.8.5-1.7,1.1-2.6,1.7-9.5,6.2-23.9,15.6-31.8,21.8-1.5,1.2-1.8,3.3-.6,4.8.7.9,1.7,1.3,2.7,1.3s1.5-.2,2.1-.7c5.3-4.2,13.7-9.9,21.6-15.1,3.4-3.1,6.8-6.1,9.9-8.7,1.9-1.7,3.7-3.2,5.2-4.6Z" class="st3"/>
      <path d="M242.8,467c-1.5,1.4-3.3,2.9-5.2,4.6-3.1,2.7-6.5,5.7-9.9,8.7-7.4,6.7-14.5,13.9-17.5,19.6-.9,1.7-.2,3.8,1.4,4.7.5.3,1.1.4,1.6.4,1.2,0,2.4-.7,3.1-1.8,3.7-7.1,16.6-18.3,25.4-25.9,1.4-2.8,2.9-5.5,4.3-7.9-1.2-.6-2.2-1.4-3.1-2.3Z" class="st3"/>
      <path d="M246,469.3c-1.4,2.4-2.9,5-4.3,7.9-3.6,7.2-7.3,15.4-10.6,23-2,4.6-3.9,9-5.6,12.5-.8,1.7,0,3.8,1.7,4.6.5.2,1,.3,1.5.3,1.3,0,2.5-.7,3.1-2,1.7-3.6,3.6-8,5.7-12.7,4.4-9.9,9.2-21,13.8-28.9.2-1.3.3-2.4.4-3.4-2,0-3.9-.5-5.6-1.4Z" class="st3"/>
      <path d="M253.3,470.7c-.6,0-1.1,0-1.7,0,0,1-.2,2.1-.4,3.4-1.5,11.7-6.7,35.1-9.9,39.2-1.2,1.5-.9,3.7.6,4.9.6.5,1.4.7,2.1.7s2-.4,2.7-1.3c3.8-4.8,8.2-23.2,10.4-36.5-1.4-3.8-2.7-7.2-3.7-9.8,0-.2,0-.4-.1-.6Z" class="st3"/>
      <path d="M259.7,468.6c0-.1-.2-.2-.2-.4-1.1.8-2.3,1.5-3.7,1.9-.8.3-1.7.4-2.5.5,0,.2,0,.4.1.6,1.1,2.6,2.4,6,3.7,9.8,5.4,15.2,12.1,37.5,12.2,45.7,0,.1,0,.2,0,.3,2.3-.7,4.5-1.4,6.7-2.1-.8-10.7-7.7-32.8-12.8-46.9-1.4-3.8-2.6-7-3.6-9.3Z" class="st3"/>
      <path d="M264.2,461.8c.5-1.4.6-2.9.6-4.4,0-1.2-.2-2.4-.5-3.5-.2-.8-.6-1.5-.9-2.2-.6-1.2-1.5-2.2-2.4-3.1-1.4-1.3-3-2.4-4.8-3-1.2-.4-2.5-.6-3.8-.7-1.4,0-2.8,0-4.2.5-.3,0-.5.2-.8.3-1.3.5-2.5,1.2-3.5,2-1.7,1.4-3,3.2-3.8,5.2-.7,1.6-1,3.4-.9,5.2,0,1.1.2,2.3.5,3.4.2.7.5,1.3.8,2,.6,1.3,1.5,2.4,2.4,3.3.9.9,2,1.7,3.1,2.3,1.7.9,3.6,1.3,5.6,1.4.6,0,1.1,0,1.7,0,.8,0,1.7-.3,2.5-.5,1.4-.4,2.6-1.1,3.7-1.9.9-.7,1.8-1.5,2.5-2.4.3-.4.6-.9.9-1.4.5-.8.9-1.7,1.2-2.6Z" class="st0"/>
      <path d="M361.7,290.2c-.6,2-1.4,4.2-2.5,6.5,0,15.5-7,33-9.9,35.9-1.3,1.4-1.3,3.5,0,4.9.7.7,1.5,1,2.4,1s1.8-.3,2.5-1c3.6-3.7,10.1-19,11.6-34.7-.7-4.4-1.7-8.6-3.1-12-.4-.2-.7-.4-1-.6Z" class="st3"/>
      <path d="M359.9,288.8c-2.7,2.6-5.4,5-7.9,7.1-4.6,9.3-12.2,20.1-15.7,21.7-1.7.8-2.5,2.9-1.7,4.6.6,1.3,1.8,2,3.1,2s1-.1,1.5-.3c5.9-2.7,15.1-16.3,19.9-27.1,1.1-2.4,1.9-4.6,2.5-6.5-.6-.4-1.2-.9-1.7-1.4Z" class="st3"/>
      <path d="M359.9,288.8c-.3-.3-.5-.6-.8-.9-2.9,1.2-8.3,3.1-14.5,5.1-6.7,5.4-12.6,9-17.2,10.6-1.8.6-2.7,2.6-2.1,4.4.5,1.4,1.8,2.3,3.3,2.3s.8,0,1.2-.2c6.2-2.2,13.6-7,22.2-14.2,2.5-2.1,5.2-4.5,7.9-7.1Z" class="st3"/>
      <path d="M359.2,287.9c-.5-.7-1-1.5-1.3-2.3-.2,0-.3.1-.5.1-1.2,0-2.7,0-4.4,0s-5.1,0-8-.1c-11.3,3.7-26.6,8.1-33.9,9.1-1.9.3-3.2,2-3,3.9.2,1.7,1.7,3,3.4,3s.3,0,.5,0c7.2-1,21.4-5,32.7-8.6,6.2-2,11.6-3.9,14.5-5.1Z" class="st3"/>
      <path d="M367.3,291.8c-.3,0-.6,0-.9,0-1.3,0-2.6-.4-3.7-1,1.4,3.4,2.4,7.6,3.1,12,1.7,11.4,1.2,24.4-.9,29.6-.7,1.8.1,3.8,1.9,4.5.4.2.9.3,1.3.3,1.4,0,2.7-.8,3.2-2.1,2.5-6,3.1-18.2,1.8-29.7-.9-2.1-1.8-4.1-2.5-5.9-1.2-2.8-2.3-5.3-3.3-7.7Z" class="st3"/>
      <path d="M367.3,291.8c1,2.3,2,4.9,3.3,7.7.8,1.8,1.6,3.8,2.5,5.9,3.4,7.9,7.1,17.3,6.7,20.2-.2,1.9,1.1,3.6,3,3.8.1,0,.3,0,.4,0,1.7,0,3.2-1.3,3.4-3.1.4-3.6-1.6-9.9-5-18.1-4.3-5.6-8.6-11.5-11.4-16.9-.9.3-1.9.5-3,.5Z" class="st3"/>
      <path d="M370.3,291.3c2.8,5.4,7.1,11.3,11.4,16.9,1.6,2.1,3.2,4.1,4.6,6,2.9,3.6,5.3,6.8,6.3,8.4.7,1.1,1.8,1.7,3,1.7s1.2-.2,1.8-.5c1.6-1,2.2-3.1,1.2-4.7-1.2-2-3.7-5.2-6.8-9.1-4.4-5.6-10.1-12.9-13.9-19.2-1.5-.7-2.9-1.2-4.1-1.6-1,1-2.1,1.8-3.5,2.2Z" class="st3"/>
      <path d="M375.8,286.7c-.1,0-.2,0-.3,0-.5.9-1.1,1.7-1.7,2.4,1.2.4,2.5,1,4.1,1.6,8.2,3.5,20.6,10.1,23.7,13.4.7.7,1.6,1.1,2.5,1.1s1.7-.3,2.4-.9c1.4-1.3,1.4-3.5.1-4.9-3.4-3.7-13.3-9.1-21.8-13-3.1,0-6.1.1-9,.4Z" class="st3"/>
      <path d="M377.2,282.8c-.2,0-.4,0-.6.1-.1,1.3-.5,2.6-1.1,3.7.1,0,.2,0,.3,0,2.9-.3,5.9-.4,9-.4,7.6,0,16,.7,25.5,2.3,0,0,0,0,0,0-.2-2.4-.4-4.7-.7-7.1-8.5-1.4-16.1-2.1-23.2-2.1-4,1.2-7.3,2.4-9.3,3.4Z" class="st3"/>
      <path d="M376.3,279.9c.2.9.3,1.8.3,2.8,0,0,0,.1,0,.2.2,0,.4,0,.6-.1,2-1,5.4-2.2,9.3-3.4,6.4-2,14.5-4.1,22.2-5.9-.3-2.3-.6-4.6-.9-6.9-7.4,1.7-15.9,3.9-22.8,6-3.6,3.5-6.8,6.2-8.7,7.3Z" class="st3"/>
      <path d="M376.3,279.9c1.9-1.2,5.1-3.8,8.7-7.3,6.1-5.9,13.3-14.1,17.4-21.3,1-1.7.4-3.8-1.3-4.7-1.7-1-3.8-.4-4.7,1.3-4.9,8.6-14.7,18.7-20.4,23.6-.8,1.7-1.5,3.1-2,4.2,1.1,1.2,1.8,2.6,2.2,4.2Z" class="st3"/>
      <path d="M374.1,275.7c.5-1.1,1.2-2.5,2-4.2,1.3-2.8,3-6.3,4.7-10,3.9-8.4,8.3-17.5,10.1-21.6.8-1.7,0-3.8-1.7-4.6-1.7-.8-3.8,0-4.6,1.7-1.8,4-6.1,13.1-10,21.5-1.2,2.5-2.3,4.9-3.4,7.1,0,2.8-.2,5.4-.3,7.7,1.2.6,2.4,1.3,3.3,2.3Z" class="st3"/>
      <path d="M366.8,272.6c.2,0,.5,0,.7,0,1.2,0,2.3.4,3.4.8.2-2.3.3-4.9.3-7.7.1-8.7-.3-19.1-1.9-28-.3-1.9-2.1-3.1-4-2.8-1.9.3-3.1,2.1-2.8,4,1.3,7.2,1.8,15.4,1.8,22.8.4,1.7.8,3.3,1.1,4.9.5,2.4,1,4.5,1.4,6Z" class="st3"/>
      <path d="M363.7,273.1c1-.3,2-.5,3.1-.5-.4-1.6-.8-3.6-1.4-6-.3-1.5-.7-3.2-1.1-4.9-1.8-8-4-17.2-5.8-23.1-.6-1.8-2.5-2.8-4.3-2.3-1.8.6-2.8,2.5-2.3,4.3.8,2.5,1.7,5.7,2.5,9.2,2.8,5.6,5.3,12.5,7.5,18.5.7,1.8,1.2,3.4,1.8,4.8Z" class="st3"/>
      <path d="M361.1,274.5c.8-.6,1.7-1.1,2.6-1.5-.5-1.4-1.1-3-1.8-4.8-2.2-6-4.8-12.9-7.5-18.5-1.7-3.4-3.4-6.4-5.2-8.4-1.3-1.4-3.4-1.6-4.9-.3-1.4,1.3-1.6,3.4-.3,4.9,3.2,3.7,6.9,12.7,9.8,20.2,2.8,2.9,5.3,5.7,7.3,8.3Z" class="st3"/>
      <path d="M358.4,277.8c.7-1.3,1.6-2.4,2.7-3.2-2.1-2.6-4.5-5.4-7.3-8.3-3.4-3.5-7-7-10.4-10.4-2.7-2.6-5.2-5.1-7.3-7.2-1.3-1.4-3.5-1.4-4.9,0-1.4,1.3-1.4,3.5,0,4.9,2.1,2.1,4.6,4.6,7.4,7.3,4.5,4.3,9.3,9,13.2,13.4,2.7,1.6,5,2.9,6.6,3.6Z" class="st3"/>
      <path d="M357.1,278.8c.3,0,.5.1.7.2.1-.4.3-.8.5-1.2-1.6-.7-3.9-2-6.6-3.6-7.9-4.7-18.5-11.8-20-14.4-1-1.6-3.1-2.2-4.7-1.2-1.6,1-2.2,3.1-1.2,4.7,2.3,3.8,11.9,10.5,20.3,15.5,4.3.1,8.3.1,11.1,0Z" class="st3"/>
      <path d="M357.4,285.7c.2,0,.3,0,.5-.1-.5-1.2-.7-2.5-.6-3.9,0-.9.3-1.8.6-2.7-.2,0-.5-.1-.7-.2-2.8.1-6.7,0-11.1,0-11.6-.3-26.4-1.5-31.6-3.3-1.8-.7-3.8.3-4.4,2.1-.7,1.8.3,3.8,2.1,4.4,6.1,2.2,21.1,3.4,32.8,3.7,2.9,0,5.7.1,8,.1s3.2,0,4.4,0Z" class="st3"/>
      <path d="M374.1,275.7c-.9-1-2-1.8-3.3-2.3-1-.5-2.2-.8-3.4-.8-.2,0-.5,0-.7,0-1.1,0-2.1.2-3.1.5-1,.3-1.8.9-2.6,1.5-1.1.9-2.1,2-2.7,3.2-.2.4-.3.8-.5,1.2-.3.9-.5,1.7-.6,2.7,0,1.4.2,2.7.6,3.9.3.8.8,1.6,1.3,2.3.2.3.5.6.8.9.5.5,1.1,1,1.7,1.4.3.2.7.4,1,.6,1.1.6,2.4.9,3.7,1,.3,0,.6,0,.9,0,1,0,2.1-.2,3-.5,1.3-.5,2.5-1.3,3.5-2.2.7-.7,1.3-1.5,1.7-2.4.6-1.1,1-2.4,1.1-3.7,0,0,0-.1,0-.2,0-1,0-1.9-.3-2.8-.4-1.6-1.1-3.1-2.2-4.2Z" class="st0"/>
      <path d="M223.4,314.7c-.4,1.3-.9,2.8-1.6,4.3,0,10.2-4.5,21.5-6.4,23.4-.9.9-.9,2.3,0,3.2.4.4,1,.7,1.6.7s1.2-.2,1.6-.7c2.3-2.4,6.6-12.3,7.5-22.6-.4-2.9-1.1-5.7-2.1-7.9-.2-.1-.4-.3-.6-.5Z" class="st3"/>
      <path d="M222.3,313.9c-1.8,1.7-3.5,3.3-5.2,4.6-3,6.1-8,13.1-10.2,14.2-1.1.5-1.6,1.9-1.1,3,.4.8,1.2,1.3,2,1.3s.6,0,1-.2c3.8-1.8,9.8-10.6,13-17.7.7-1.6,1.3-3,1.6-4.3-.4-.3-.8-.5-1.1-.8Z" class="st3"/>
      <path d="M222.3,313.9c-.2-.2-.3-.4-.4-.6-1.9.8-5.5,2.1-9.7,3.4-4.3,3.4-8.1,5.8-11.1,6.9-1.2.4-1.8,1.7-1.4,2.9.3.9,1.2,1.5,2.1,1.5s.5,0,.8-.1c4-1.4,8.9-4.5,14.5-9.3,1.6-1.4,3.4-3,5.2-4.6Z" class="st3"/>
      <path d="M221.8,313.3c-.3-.5-.7-.9-.9-1.5-.1,0-.2,0-.4,0-.8,0-1.7,0-2.8,0s-3.4,0-5.3,0c-7.3,2.4-17.3,5.3-22.1,5.9-1.2.2-2.1,1.3-1.9,2.5.2,1.1,1.1,1.9,2.2,1.9s.2,0,.3,0c4.7-.6,13.8-3.2,21.2-5.6,4.2-1.3,7.7-2.6,9.7-3.4Z" class="st3"/>
      <path d="M227.1,315.8c-.2,0-.4,0-.5,0-.9,0-1.7-.3-2.5-.7.9,2.2,1.6,5,2.1,7.9,1.1,7.4.8,15.9-.6,19.2-.5,1.2,0,2.5,1.2,2.9.3.1.6.2.9.2.9,0,1.7-.5,2.1-1.4,1.6-3.9,2-11.9,1.2-19.4-.6-1.4-1.1-2.7-1.6-3.8-.8-1.8-1.5-3.5-2.1-5.1Z" class="st3"/>
      <path d="M227.1,315.8c.6,1.5,1.4,3.2,2.1,5.1.5,1.1,1.1,2.5,1.6,3.8,2.2,5.2,4.6,11.3,4.4,13.2-.1,1.2.7,2.4,2,2.5,0,0,.2,0,.3,0,1.1,0,2.1-.8,2.2-2,.3-2.3-1.1-6.5-3.3-11.9-2.8-3.6-5.6-7.5-7.4-11-.6.2-1.3.3-2,.3Z" class="st3"/>
      <path d="M229,315.5c1.9,3.5,4.6,7.4,7.4,11,1,1.4,2.1,2.7,3.1,3.9,1.9,2.4,3.5,4.4,4.1,5.5.4.7,1.2,1.1,1.9,1.1s.8-.1,1.2-.3c1.1-.7,1.4-2,.8-3.1-.8-1.3-2.4-3.4-4.4-5.9-2.9-3.7-6.6-8.4-9-12.5-1.1-.5-2-.8-2.8-1.1-.6.6-1.4,1.2-2.2,1.5Z" class="st3"/>
      <path d="M232.6,312.5c0,0-.2,0-.2,0-.3.6-.7,1.1-1.2,1.5.8.3,1.7.6,2.8,1.1,5.3,2.3,13.4,6.5,15.4,8.7.4.5,1,.7,1.6.7s1.1-.2,1.5-.6c.9-.9.9-2.3,0-3.2-2.3-2.4-8.7-5.9-14.2-8.5-2,0-4,0-5.9.3Z" class="st3"/>
      <path d="M233.1,310.1c0,.9-.3,1.7-.7,2.4,0,0,.2,0,.2,0,1.9-.2,3.8-.3,5.9-.3,5,0,10.4.4,16.6,1.5.1,0,.3,0,.4,0,1.1,0,2-.8,2.2-1.9.2-1.2-.6-2.4-1.8-2.6-6-1-11.4-1.5-16.3-1.6-2.6.8-4.8,1.6-6.1,2.2-.1,0-.3,0-.4,0Z" class="st3"/>
      <path d="M258.3,300.6c-.3-1.2-1.5-2-2.7-1.7-5.3,1.2-11.8,2.8-16.9,4.4-2.4,2.3-4.5,4.1-5.8,4.8.1.6.3,1.1.3,1.8,0,0,0,0,0,.1.1,0,.3,0,.4,0,1.3-.7,3.5-1.4,6.1-2.2,4.9-1.5,11.3-3.1,17-4.4,1.2-.3,2-1.5,1.7-2.7Z" class="st3"/>
      <path d="M232.9,308.1c1.2-.7,3.4-2.5,5.8-4.8,4-3.8,8.7-9.2,11.4-13.9.6-1.1.2-2.5-.8-3.1-1.1-.6-2.5-.3-3.1.8-3.2,5.6-9.6,12.2-13.3,15.4-.5,1.1-.9,2-1.3,2.7.7.8,1.1,1.8,1.4,2.8Z" class="st3"/>
      <path d="M231.5,305.3c.3-.7.8-1.6,1.3-2.7.9-1.8,1.9-4.1,3-6.4,2.6-5.5,5.5-11.5,6.6-14.2.5-1.1,0-2.5-1.1-3-1.1-.5-2.5,0-3,1.1-1.2,2.6-4,8.7-6.6,14.1-.8,1.6-1.5,3.1-2.1,4.5,0,1.8-.1,3.5-.2,5.1.8.4,1.5.8,2.1,1.5Z" class="st3"/>
      <path d="M226.7,303.3c.2,0,.3,0,.4,0,.8,0,1.5.3,2.2.6.1-1.5.2-3.2.2-5.1,0-5.7-.2-12.4-1.2-18.2-.2-1.2-1.4-2-2.6-1.8-1.2.2-2,1.4-1.8,2.6.8,4.7,1.2,10,1.2,14.9.2,1.1.5,2.2.7,3.2.4,1.7.7,2.9.9,4Z" class="st3"/>
      <path d="M224.7,303.6c.6-.2,1.3-.3,2-.3-.2-1-.5-2.3-.9-4-.2-1-.5-2.1-.7-3.2-1.2-5.2-2.6-11.2-3.8-15.1-.4-1.2-1.6-1.8-2.8-1.5-1.2.4-1.8,1.6-1.5,2.8.5,1.6,1.1,3.7,1.6,6,1.8,3.7,3.5,8.2,4.9,12.1.4,1.2.8,2.2,1.2,3.1Z" class="st3"/>
      <path d="M223.1,304.6c.5-.4,1-.8,1.7-1-.4-.9-.7-2-1.2-3.1-1.4-3.9-3.1-8.4-4.9-12.1-1.1-2.2-2.2-4.1-3.4-5.4-.8-.9-2.3-1-3.2-.2-.9.8-1,2.3-.2,3.2,2.1,2.4,4.5,8.3,6.4,13.2,1.8,1.9,3.5,3.7,4.8,5.5Z" class="st3"/>
      <path d="M221.3,306.7c.4-.8,1.1-1.5,1.8-2.1-1.4-1.7-3-3.6-4.8-5.5-2.2-2.3-4.5-4.6-6.8-6.7-1.8-1.7-3.4-3.3-4.8-4.7-.9-.9-2.3-.9-3.2,0-.9.9-.9,2.3,0,3.2,1.4,1.4,3,3,4.8,4.8,2.9,2.8,5.9,5.8,8.5,8.6,1.8,1.1,3.4,1.9,4.4,2.4Z" class="st3"/>
      <path d="M220.4,307.4c.2,0,.4,0,.6,0,0-.3.1-.5.3-.8-1.1-.5-2.6-1.3-4.4-2.4-5.1-3-12-7.6-13-9.3-.6-1.1-2-1.4-3.1-.8-1.1.6-1.4,2-.8,3.1,1.5,2.5,7.8,6.8,13.2,10.1,2.8,0,5.4,0,7.2,0Z" class="st3"/>
      <path d="M217.8,311.9c1.1,0,2.1,0,2.8,0,.1,0,.2,0,.4,0-.3-.8-.5-1.7-.4-2.6,0-.6.3-1.2.5-1.8-.2,0-.4-.1-.6,0-1.8,0-4.4,0-7.2,0-7.6-.2-17.2-.9-20.6-2.2-1.2-.4-2.5.2-2.9,1.3-.4,1.2.2,2.5,1.3,2.9,4,1.5,13.8,2.2,21.4,2.4,1.9,0,3.8,0,5.3,0Z" class="st3"/>
      <path d="M231.5,305.3c-.6-.6-1.3-1.1-2.1-1.5-.7-.3-1.4-.5-2.2-.6-.2,0-.3,0-.4,0-.7,0-1.4,0-2,.3-.6.2-1.2.6-1.7,1-.7.6-1.4,1.2-1.8,2.1-.1.2-.2.5-.3.8-.2.6-.4,1.1-.5,1.8,0,.9.1,1.8.4,2.6.2.5.5,1,.9,1.5.2.2.3.4.4.6.3.3.7.6,1.1.8.2.1.4.4.6.5.8.4,1.6.6,2.5.7.2,0,.4,0,.5,0,.7,0,1.4,0,2-.3.9-.3,1.6-.8,2.2-1.5.5-.5.9-1,1.2-1.5.4-.7.6-1.6.7-2.4,0,0,0,0,0-.1,0-.6-.1-1.2-.3-1.8-.2-1.1-.7-2-1.4-2.8Z" class="st0"/>
      <path d="M45.7,432.4c-.2,0-.3-.2-.5-.4-.3,1-.7,2.1-1.2,3.3,0,1.6-.2,3.2-.4,4.8.9,1.5,1.7,3,2.6,4.4.5-2,.9-4,1.1-6.1-.3-2.3-.9-4.4-1.6-6.1Z" class="st3"/>
      <path d="M45.3,432.1c-.3-.2-.6-.4-.9-.6-1.2,1.1-2.5,2.3-3.9,3.5.7,1.2,1.4,2.4,2,3.5.6-1,1.1-2,1.5-3,.5-1.2,1-2.3,1.2-3.3Z" class="st3"/>
      <path d="M44.4,431.4c-.1-.1-.2-.3-.3-.5-1,.4-2.7,1-4.7,1.7.4.7.8,1.5,1.2,2.2,1.4-1.2,2.7-2.3,3.9-3.5Z" class="st3"/>
      <path d="M44.1,430.9c-.3-.4-.5-.7-.7-1.2,0,0-.1.1-.2.1-.6,0-1.4,0-2.3,0s-1.9,0-3,0c.5.9,1,1.9,1.5,2.8,2.1-.7,3.7-1.3,4.7-1.7Z" class="st3"/>
      <path d="M51,439.7c-.4-1-.9-2-1.2-2.9-.6-1.4-1.2-2.7-1.7-3.9-.1,0-.3,0-.4,0-.7,0-1.3-.2-1.9-.5.7,1.7,1.2,3.8,1.6,6.1.4,2.8.6,5.8.5,8.5,1,1.5,2,3,3,4.5.5-3.2.6-7.6.1-11.8Z" class="st3"/>
      <path d="M48.1,432.9c.5,1.2,1,2.5,1.7,3.9.4.9.8,1.9,1.2,2.9,1.7,4,3.5,8.6,3.4,10.1-.1.9.6,1.8,1.5,1.9,0,0,.1,0,.2,0,.9,0,1.6-.7,1.7-1.5.2-1.8-.8-4.9-2.5-9.1-2.1-2.8-4.3-5.8-5.7-8.4-.5.2-1,.2-1.5.2Z" class="st3"/>
      <path d="M49.6,432.7c1.4,2.7,3.6,5.7,5.7,8.4.8,1,1.6,2.1,2.4,3,1.4,1.8,2.7,3.4,3.2,4.2.3.5.9.8,1.5.8s.6,0,.9-.3c.8-.5,1.1-1.6.6-2.4-.6-1-1.8-2.6-3.4-4.6-2.2-2.8-5-6.4-6.9-9.6-.8-.4-1.5-.6-2.1-.8-.5.5-1.1.9-1.7,1.1Z" class="st3"/>
      <path d="M52.4,430.4c0,0-.1,0-.2,0-.2.5-.6.9-.9,1.2.6.2,1.3.5,2.1.8,4.1,1.8,10.3,5,11.8,6.7.3.4.8.5,1.3.5s.9-.2,1.2-.5c.7-.7.7-1.8,0-2.4-1.7-1.8-6.7-4.6-10.9-6.5-1.6,0-3.1,0-4.5.2Z" class="st3"/>
      <path d="M52.7,428.5c0,.7-.2,1.3-.5,1.8,0,0,.1,0,.2,0,1.4-.2,2.9-.2,4.5-.2,3.8,0,8,.3,12.8,1.2,0,0,.2,0,.3,0,.8,0,1.6-.6,1.7-1.4.2-.9-.5-1.8-1.4-2-4.6-.8-8.7-1.2-12.5-1.2-2,.6-3.7,1.2-4.7,1.7-.1,0-.2,0-.3,0Z" class="st3"/>
      <path d="M52.5,427c.1.4.2.9.2,1.4,0,0,0,0,0,.1.1,0,.2,0,.3,0,1-.5,2.7-1.1,4.7-1.7,3.7-1.2,8.7-2.4,13-3.4.9-.2,1.5-1.1,1.3-2.1-.2-.9-1.1-1.5-2.1-1.3-4.1.9-9,2.2-13,3.4-1.8,1.8-3.5,3.1-4.4,3.7Z" class="st3"/>
      <path d="M52.5,427c1-.6,2.6-1.9,4.4-3.7,3-2.9,6.6-7,8.7-10.7.5-.8.2-1.9-.6-2.4-.8-.5-1.9-.2-2.4.6-2.5,4.3-7.4,9.4-10.2,11.8-.4.9-.7,1.5-1,2.1.5.6.9,1.3,1.1,2.2Z" class="st3"/>
      <path d="M51.5,424.9c.3-.6.6-1.2,1-2.1.7-1.4,1.5-3.2,2.4-5,2-4.2,4.2-8.8,5.1-10.8.4-.9,0-1.9-.9-2.3-.9-.4-1.9,0-2.3.9-.9,2-3.1,6.6-5,10.8-.6,1.3-1.2,2.5-1.7,3.6,0,1.4,0,2.7-.2,3.9.6.3,1.2.7,1.7,1.2Z" class="st3"/>
      <path d="M47.8,423.3c.1,0,.2,0,.3,0,.6,0,1.2.2,1.7.4,0-1.2.1-2.4.2-3.9,0-4.4-.2-9.6-.9-14-.2-.9-1-1.6-2-1.4-.9.2-1.6,1.1-1.4,2,.6,3.6.9,7.6.9,11.3.2.9.4,1.8.6,2.5.3,1.3.5,2.2.7,3Z" class="st3"/>
      <path d="M46.3,423.5c.5-.2,1-.2,1.5-.2-.2-.8-.4-1.8-.7-3-.2-.8-.4-1.7-.6-2.5-.9-4-2-8.5-2.9-11.5-.3-.9-1.2-1.4-2.2-1.1-.9.3-1.4,1.3-1.1,2.2.4,1.3.9,3,1.3,4.8,1.4,2.8,2.6,6.1,3.7,9.1.3.9.6,1.7.9,2.4Z" class="st3"/>
      <path d="M45,424.3c.4-.3.8-.6,1.3-.8-.3-.7-.6-1.5-.9-2.4-1.1-3-2.4-6.3-3.7-9.1-.9-1.8-1.7-3.4-2.7-4.4-.6-.7-1.7-.8-2.4-.1-.7.6-.8,1.7-.1,2.4,1.6,1.8,3.5,6.3,4.9,10.1,1.4,1.5,2.6,2.9,3.7,4.2Z" class="st3"/>
      <path d="M33.7,417.4c2.2,2.1,4.5,4.5,6.5,6.6,1.4.8,2.6,1.5,3.4,1.9.3-.6.8-1.2,1.4-1.6-1-1.3-2.3-2.7-3.7-4.2-1.7-1.7-3.5-3.5-5.2-5.1-1.4-1.3-2.6-2.6-3.7-3.6-.7-.7-1.8-.7-2.4,0-.2.2-.3.6-.4.9.3.7.6,1.4.9,2.1,1,1,2,2,3.2,3.2Z" class="st3"/>
      <path d="M43,426.4c.2,0,.3.1.4.2,0-.2.1-.5.2-.7-.8-.4-2-1-3.4-1.9-2.6-1.5-5.7-3.5-7.7-5.1.9,2.1,1.9,4.2,2.9,6.3.7.4,1.3.8,2,1.2,2.2,0,4.2,0,5.6,0Z" class="st3"/>
      <path d="M43.1,429.9c0,0,.2,0,.2-.1-.2-.6-.3-1.2-.3-1.9,0-.5.2-.9.3-1.3-.2,0-.2-.1-.4-.2-1.4,0-3.4,0-5.6,0-.5,0-1,0-1.4,0,.6,1.2,1.2,2.4,1.8,3.5,1.1,0,2.1,0,3,0s1.6,0,2.3,0Z" class="st3"/>
      <path d="M49.6,432.7c.7-.2,1.2-.6,1.7-1.1.4-.4.7-.8.9-1.2.3-.6.5-1.2.5-1.8,0,0,0,0,0-.1,0-.5,0-.9-.2-1.4-.2-.8-.5-1.6-1.1-2.2-.5-.5-1-.9-1.7-1.2-.5-.2-1.1-.4-1.7-.4-.1,0-.2,0-.3,0-.5,0-1.1,0-1.5.2-.5.2-.9.5-1.3.8-.6.4-1,.9-1.4,1.6-.1.2-.1.5-.2.7-.1.4-.3.8-.3,1.3,0,.7,0,1.3.3,1.9.2.4.4.8.7,1.2.1.2.2.3.3.5.2.3.6.4.9.6.2.1.3.3.5.4.6.3,1.2.5,1.9.5.1,0,.3,0,.4,0,.5,0,1,0,1.5-.2Z" class="st0"/>
    </g>
  </g>
</svg>