<svg version="1.1" xmlns="http://www.w3.org/2000/svg" xmlns:xlink="http://www.w3.org/1999/xlink" width="405.59297" height="515.27064" viewBox="0,0,405.59297,515.27064"><defs><linearGradient x1="241.9689" y1="396.59265" x2="269.62947" y2="396.59265" gradientUnits="userSpaceOnUse" id="color-1"><stop offset="0" stop-color="#9c9c9c"/><stop offset="1" stop-color="#c1c1c1"/></linearGradient><linearGradient x1="241.9689" y1="396.59265" x2="269.62947" y2="396.59265" gradientUnits="userSpaceOnUse" id="color-2"><stop offset="0" stop-color="#a0a0a0"/><stop offset="1" stop-color="#bdbdbd"/></linearGradient><linearGradient x1="113.11421" y1="299.30129" x2="123.71948" y2="299.30129" gradientUnits="userSpaceOnUse" id="color-3"><stop offset="0" stop-color="#b5b5b5"/><stop offset="1" stop-color="#c8c8c8"/></linearGradient><linearGradient x1="73.19252" y1="206.016" x2="100.8531" y2="206.016" gradientUnits="userSpaceOnUse" id="color-4"><stop offset="0" stop-color="#9c9c9c"/><stop offset="1" stop-color="#c1c1c1"/></linearGradient><linearGradient x1="73.19252" y1="206.016" x2="100.8531" y2="206.016" gradientUnits="userSpaceOnUse" id="color-5"><stop offset="0" stop-color="#a0a0a0"/><stop offset="1" stop-color="#bdbdbd"/></linearGradient></defs><g transform="translate(-31.20559,-92.70678)"><g stroke-miterlimit="10"><path d="M241.9689,434.21572v-75.24613h27.66057v75.24613z" fill="url(#color-1)" stroke="url(#color-2)" stroke-width="4.5" stroke-linecap="butt"/><g stroke="#000000" stroke-width="0.5"><path d="M92.99111,137.93029c0,-0.92408 0.74912,-1.6732 1.6732,-1.6732c0.92408,0 1.6732,0.74912 1.6732,1.6732c0,0.92408 -0.74912,1.6732 -1.6732,1.6732c-0.92408,0 -1.6732,-0.74912 -1.6732,-1.6732z" fill="#bfbfbf" stroke-linecap="butt"/><path d="M104.51,137.93029c0,-0.92408 0.74912,-1.6732 1.67321,-1.6732c0.92408,0 1.6732,0.74912 1.6732,1.6732c0,0.92408 -0.74912,1.6732 -1.6732,1.6732c-0.92409,0 -1.67321,-0.74912 -1.67321,-1.6732z" fill="#bfbfbf" stroke-linecap="butt"/><path d="M116.02889,137.93029c0,-0.92408 0.74912,-1.6732 1.6732,-1.6732c0.92408,0 1.6732,0.74912 1.6732,1.6732c0,0.92408 -0.74912,1.6732 -1.6732,1.6732c-0.92408,0 -1.6732,-0.74912 -1.6732,-1.6732z" fill="#bfbfbf" stroke-linecap="butt"/><path d="M127.54777,137.93029c0,-0.92408 0.74912,-1.6732 1.6732,-1.6732c0.92408,0 1.6732,0.74912 1.6732,1.6732c0,0.92408 -0.74912,1.6732 -1.6732,1.6732c-0.92408,0 -1.6732,-0.74912 -1.6732,-1.6732z" fill="#bfbfbf" stroke-linecap="butt"/><path d="M139.06666,137.93029c0,-0.92408 0.74912,-1.6732 1.6732,-1.6732c0.92408,0 1.6732,0.74912 1.6732,1.6732c0,0.92408 -0.74912,1.6732 -1.6732,1.6732c-0.92408,0 -1.6732,-0.74912 -1.6732,-1.6732z" fill="#bfbfbf" stroke-linecap="butt"/><path d="M150.71948,138.06423c0,-0.92408 0.74912,-1.6732 1.6732,-1.6732c0.92408,0 1.67321,0.74912 1.67321,1.6732c0,0.92408 -0.74912,1.6732 -1.67321,1.6732c-0.92408,0 -1.6732,-0.74912 -1.6732,-1.6732z" fill="#bfbfbf" stroke-linecap="butt"/><path d="M162.10443,137.93029c0,-0.92408 0.74912,-1.6732 1.6732,-1.6732c0.92408,0 1.6732,0.74912 1.6732,1.6732c0,0.92408 -0.74912,1.6732 -1.6732,1.6732c-0.92408,0 -1.6732,-0.74912 -1.6732,-1.6732z" fill="#bfbfbf" stroke-linecap="butt"/><path d="M173.62331,137.93029c0,-0.92408 0.74912,-1.6732 1.6732,-1.6732c0.92408,0 1.6732,0.74912 1.6732,1.6732c0,0.92408 -0.74912,1.6732 -1.6732,1.6732c-0.92408,0 -1.6732,-0.74912 -1.6732,-1.6732z" fill="#bfbfbf" stroke-linecap="butt"/><path d="M92.73729,141.02986h83.72416" fill="none" stroke-linecap="round"/><path d="M176.69586,135.16957h-83.72416" fill="none" stroke-linecap="round"/></g><g stroke-linecap="butt"><path d="M137.80625,313.79931c0,2.00364 -8.66279,3.62791 -19.34887,3.62791c-10.68608,0 -19.34886,-1.62427 -19.34886,-3.62791c0,-2.00364 8.66278,-3.62791 19.34886,-3.62791c10.68608,0 19.34887,1.62427 19.34887,3.62791z" fill="#b40000" stroke="#bbbbbb" stroke-width="1"/><path d="M98.99427,313.787v-3.99225h39.07573v3.99226z" fill="#b40000" stroke="none" stroke-width="0"/><path d="M137.68527,309.95275c0,2.00364 -8.66279,3.62791 -19.34887,3.62791c-10.68608,0 -19.34886,-1.62427 -19.34886,-3.62791c0,-2.00364 8.66278,-3.62791 19.34886,-3.62791c10.68608,0 19.34887,1.62427 19.34887,3.62791z" fill="#b40000" stroke="#bbbbbb" stroke-width="0.5"/><path d="M113.11421,309.6479v-20.69322h10.60528v20.69322z" fill="url(#color-3)" stroke="none" stroke-width="0"/><path d="M31.20559,398.80389v-40.72883h175.24116v40.72883z" fill="#bbbbbb" stroke="none" stroke-width="0"/><path d="M83.37981,386.64652v-104.65116h69.39235v104.65116z" fill="none" stroke="#bbbbbb" stroke-width="25"/><path d="M101.53479,359.03259v-7.0167h31.46882v7.0167z" fill="#bbbbbb" stroke="none" stroke-width="0"/></g><g><path d="M264.25794,463.34521l-12.86866,22.15514" fill="none" stroke="#000000" stroke-width="0.5" stroke-linecap="round"/><path d="M236.39197,486.85312l-7.71538,-24.43206" fill="none" stroke="#000000" stroke-width="0.5" stroke-linecap="round"/><path d="M158.63085,564.18213v-40.72883h175.24116v40.72883z" fill="#bbbbbb" stroke="none" stroke-width="0" stroke-linecap="butt"/><path d="M210.80507,552.02475v-104.65116h69.39235v104.65116z" fill="none" stroke="#bbbbbb" stroke-width="25" stroke-linecap="butt"/><path d="M252.81682,477.28183c-0.96887,-0.53044 -1.32429,-1.74587 -0.79385,-2.71474l15.0609,-27.50921c0.53044,-0.96887 1.74587,-1.32428 2.71474,-0.79384l5.89075,3.2251c0.96887,0.53044 1.32428,1.74587 0.79384,2.71474l-15.0609,27.5092c-0.53044,0.96887 -1.74587,1.32429 -2.71474,0.79385z" fill="#bbbbbb" stroke="none" stroke-width="0" stroke-linecap="butt"/><path d="M227.15137,444.40104c1.06017,-0.31002 2.17093,0.29811 2.48094,1.35828l8.80227,30.10161c0.31001,1.06017 -0.29811,2.17093 -1.35828,2.48095l-6.44588,1.88489c-1.06017,0.31002 -2.17092,-0.29811 -2.48094,-1.35828l-8.80228,-30.10161c-0.31001,-1.06017 0.29811,-2.17093 1.35828,-2.48095z" fill="#bbbbbb" stroke="none" stroke-width="0" stroke-linecap="butt"/></g><g stroke="none" stroke-width="0" stroke-linecap="butt"><path d="M47.26209,607.97743v-83.27082h84.3961v83.27082z" fill="#ffca66"/><path d="M48.38737,606.10196v-79.51988h12.3781v79.51988z" fill="#ffe493"/><path d="M117.40462,606.10196v-79.51988h12.37809v79.51988z" fill="#ffe493"/><path d="M49.3251,526.39454h79.51988v12.3781h-79.51988z" fill="#ffe493"/><path d="M49.3251,593.53631h79.51988v12.3781h-79.51988z" fill="#ffe493"/><path d="M64.22156,534.60137l56.22904,56.22904l-8.75263,8.75264l-56.22905,-56.22905z" fill="#ffe493"/><path d="M121.20079,542.60381l-56.22904,56.22904l-8.75263,-8.75263l56.22904,-56.22905z" fill="#ffe493"/></g><g stroke="#000000" stroke-width="0.5"><path d="M294.65088,134.70974h141.85824" fill="none" stroke-linecap="round"/><path d="M294.97554,137.69588c0,-0.92408 0.74912,-1.6732 1.6732,-1.6732c0.92409,0 1.6732,0.74912 1.6732,1.6732c0,0.92408 -0.74912,1.6732 -1.6732,1.6732c-0.92409,0 -1.6732,-0.74912 -1.6732,-1.6732z" fill="#bfbfbf" stroke-linecap="butt"/><path d="M306.49442,137.69588c0,-0.92408 0.74912,-1.6732 1.6732,-1.6732c0.92409,0 1.6732,0.74912 1.6732,1.6732c0,0.92408 -0.74912,1.6732 -1.6732,1.6732c-0.92409,0 -1.6732,-0.74912 -1.6732,-1.6732z" fill="#bfbfbf" stroke-linecap="butt"/><path d="M318.01331,137.69588c0,-0.92408 0.74912,-1.6732 1.6732,-1.6732c0.92408,0 1.6732,0.74912 1.6732,1.6732c0,0.92408 -0.74912,1.6732 -1.6732,1.6732c-0.92408,0 -1.6732,-0.74912 -1.6732,-1.6732z" fill="#bfbfbf" stroke-linecap="butt"/><path d="M329.53219,137.69588c0,-0.92408 0.74912,-1.6732 1.6732,-1.6732c0.92408,0 1.6732,0.74912 1.6732,1.6732c0,0.92408 -0.74912,1.6732 -1.6732,1.6732c-0.92408,0 -1.6732,-0.74912 -1.6732,-1.6732z" fill="#bfbfbf" stroke-linecap="butt"/><path d="M341.18502,137.82982c0,-0.92408 0.74912,-1.6732 1.6732,-1.6732c0.92408,0 1.67321,0.74912 1.67321,1.6732c0,0.92408 -0.74912,1.6732 -1.67321,1.6732c-0.92408,0 -1.6732,-0.74912 -1.6732,-1.6732z" fill="#bfbfbf" stroke-linecap="butt"/><path d="M352.56996,137.69588c0,-0.92408 0.74912,-1.6732 1.6732,-1.6732c0.92408,0 1.6732,0.74912 1.6732,1.6732c0,0.92408 -0.74912,1.6732 -1.6732,1.6732c-0.92408,0 -1.6732,-0.74912 -1.6732,-1.6732z" fill="#bfbfbf" stroke-linecap="butt"/><path d="M364.08885,137.69588c0,-0.92408 0.74912,-1.6732 1.67321,-1.6732c0.92408,0 1.6732,0.74912 1.6732,1.6732c0,0.92408 -0.74912,1.6732 -1.6732,1.6732c-0.92409,0 -1.67321,-0.74912 -1.67321,-1.6732z" fill="#bfbfbf" stroke-linecap="butt"/><path d="M375.60774,137.69588c0,-0.92408 0.74912,-1.6732 1.6732,-1.6732c0.92408,0 1.6732,0.74912 1.6732,1.6732c0,0.92408 -0.74912,1.6732 -1.6732,1.6732c-0.92408,0 -1.6732,-0.74912 -1.6732,-1.6732z" fill="#bfbfbf" stroke-linecap="butt"/><path d="M387.12662,137.69588c0,-0.92408 0.74912,-1.6732 1.6732,-1.6732c0.92408,0 1.6732,0.74912 1.6732,1.6732c0,0.92408 -0.74912,1.6732 -1.6732,1.6732c-0.92408,0 -1.6732,-0.74912 -1.6732,-1.6732z" fill="#bfbfbf" stroke-linecap="butt"/><path d="M398.64551,137.69588c0,-0.92408 0.74912,-1.6732 1.6732,-1.6732c0.92408,0 1.6732,0.74912 1.6732,1.6732c0,0.92408 -0.74912,1.6732 -1.6732,1.6732c-0.92408,0 -1.6732,-0.74912 -1.6732,-1.6732z" fill="#bfbfbf" stroke-linecap="butt"/><path d="M410.29833,137.82982c0,-0.92408 0.74912,-1.6732 1.6732,-1.6732c0.92408,0 1.67321,0.74912 1.67321,1.6732c0,0.92408 -0.74912,1.6732 -1.67321,1.6732c-0.92408,0 -1.6732,-0.74912 -1.6732,-1.6732z" fill="#bfbfbf" stroke-linecap="butt"/><path d="M421.68328,137.69588c0,-0.92408 0.74912,-1.6732 1.6732,-1.6732c0.92408,0 1.6732,0.74912 1.6732,1.6732c0,0.92408 -0.74912,1.6732 -1.6732,1.6732c-0.92408,0 -1.6732,-0.74912 -1.6732,-1.6732z" fill="#bfbfbf" stroke-linecap="butt"/><path d="M433.20216,137.69588c0,-0.92408 0.74912,-1.6732 1.6732,-1.6732c0.92408,0 1.6732,0.74912 1.6732,1.6732c0,0.92408 -0.74912,1.6732 -1.6732,1.6732c-0.92408,0 -1.6732,-0.74912 -1.6732,-1.6732z" fill="#bfbfbf" stroke-linecap="butt"/><path d="M436.50912,140.43418h-141.85824" fill="none" stroke-linecap="round"/></g><g><path d="M215.29728,160.82034l10.75543,-16.3709l10.75544,16.3709z" fill="#ff0000" stroke="#bbbbbb" stroke-width="0" stroke-linecap="butt"/><path d="M219.79792,160.17739l10.75544,-16.3709l10.75544,16.3709z" fill="#ff9400" stroke="#bbbbbb" stroke-width="0" stroke-linecap="butt"/><path d="M262.44688,161.46329l10.75544,-16.37091l10.75544,16.37091z" fill="#ff0000" stroke="#bbbbbb" stroke-width="0" stroke-linecap="butt"/><path d="M193.2227,161.03466l10.75544,-16.37091l10.75544,16.37091z" fill="#ff0000" stroke="#bbbbbb" stroke-width="0" stroke-linecap="butt"/><path d="M208.01053,159.10582l10.75544,-16.37091l10.75544,16.37091z" fill="#ffea00" stroke="#bbbbbb" stroke-width="0" stroke-linecap="butt"/><path d="M232.87122,158.24855l10.75544,-16.37091l10.75544,16.37091z" fill="#ff0000" stroke="#bbbbbb" stroke-width="0" stroke-linecap="butt"/><path d="M247.65905,160.60602l10.75544,-16.3709l10.75544,16.3709z" fill="#ff0000" stroke="#bbbbbb" stroke-width="0" stroke-linecap="butt"/><path d="M262.23256,165.10668l10.75544,-16.37091l10.75544,16.37091z" fill="#ff9400" stroke="#bbbbbb" stroke-width="0" stroke-linecap="butt"/><path d="M254.08854,164.24941l10.75543,-16.37091l10.75544,16.37091z" fill="#ffea00" stroke="#bbbbbb" stroke-width="0" stroke-linecap="butt"/><path d="M275.09154,161.03466l10.75544,-16.3709l10.75544,16.3709z" fill="#ff0000" stroke="#bbbbbb" stroke-width="0" stroke-linecap="butt"/><path d="M184.86437,159.10582l10.75544,-16.37091l10.75544,16.37091z" fill="#ffea00" stroke="#bbbbbb" stroke-width="0" stroke-linecap="butt"/><path d="M201.36672,161.24897l10.75543,-16.3709l10.75544,16.3709z" fill="#ff9400" stroke="#bbbbbb" stroke-width="0" stroke-linecap="butt"/><path d="M225.37015,159.96308l10.75544,-16.37091l10.75544,16.37091z" fill="#ffea00" stroke="#bbbbbb" stroke-width="0" stroke-linecap="butt"/><path d="M241.87251,162.10624l10.75544,-16.3709l10.75544,16.3709z" fill="#ff9400" stroke="#bbbbbb" stroke-width="0" stroke-linecap="butt"/><path d="M271.01953,162.53487l10.75544,-16.3709l10.75544,16.3709z" fill="#ffea00" stroke="#bbbbbb" stroke-width="0" stroke-linecap="butt"/><path d="M246.58747,166.39256l10.75544,-16.3709l10.75544,16.3709z" fill="#ffea00" stroke="#bbbbbb" stroke-width="0" stroke-linecap="butt"/><path d="M236.5146,166.60689l10.75544,-16.3709l10.75544,16.3709z" fill="#ffea00" stroke="#bbbbbb" stroke-width="0" stroke-linecap="butt"/><path d="M215.29728,166.17826l10.75544,-16.37091l10.75544,16.37091z" fill="#ffea00" stroke="#bbbbbb" stroke-width="0" stroke-linecap="butt"/><path d="M206.72463,165.53531l10.75543,-16.3709l10.75544,16.3709z" fill="#ffea00" stroke="#bbbbbb" stroke-width="0" stroke-linecap="butt"/><path d="M190.86522,165.10668l10.75543,-16.3709l10.75544,16.3709z" fill="#ffea00" stroke="#bbbbbb" stroke-width="0" stroke-linecap="butt"/><path d="M151.2017,197.42224v-40.72883h175.24116v40.72883z" fill="#bbbbbb" stroke="none" stroke-width="0" stroke-linecap="butt"/><g stroke="#000000" stroke-width="0.5"><g fill="none" stroke-linecap="round"><path d="M287.07713,135.2141h-95.86535"/><path d="M287.07713,140.33668h-95.86535"/></g><g fill="#bfbfbf" stroke-linecap="butt"><path d="M168.24391,137.67046c0,-0.92408 0.74912,-1.6732 1.6732,-1.6732c0.92408,0 1.6732,0.74912 1.6732,1.6732c0,0.92408 -0.74912,1.67321 -1.6732,1.67321c-0.92408,0 -1.6732,-0.74912 -1.6732,-1.67321z"/><path d="M179.76279,137.67046c0,-0.92408 0.74912,-1.6732 1.67321,-1.6732c0.92408,0 1.6732,0.74912 1.6732,1.6732c0,0.92408 -0.74912,1.67321 -1.6732,1.67321c-0.92409,0 -1.67321,-0.74912 -1.67321,-1.67321z"/><path d="M191.28168,137.67046c0,-0.92408 0.74912,-1.6732 1.6732,-1.6732c0.92409,0 1.67321,0.74912 1.67321,1.6732c0,0.92408 -0.74912,1.67321 -1.67321,1.67321c-0.92408,0 -1.6732,-0.74912 -1.6732,-1.67321z"/><path d="M202.80056,137.67046c0,-0.92408 0.74912,-1.6732 1.67321,-1.6732c0.92409,0 1.6732,0.74912 1.6732,1.6732c0,0.92408 -0.74912,1.67321 -1.6732,1.67321c-0.92409,0 -1.67321,-0.74912 -1.67321,-1.67321z"/><path d="M214.45339,137.80439c0,-0.92408 0.74912,-1.67321 1.6732,-1.67321c0.92409,0 1.67321,0.74912 1.67321,1.67321c0,0.92408 -0.74912,1.6732 -1.67321,1.6732c-0.92409,0 -1.6732,-0.74912 -1.6732,-1.6732z"/><path d="M225.83833,137.67046c0,-0.92408 0.74912,-1.6732 1.6732,-1.6732c0.92409,0 1.6732,0.74912 1.6732,1.6732c0,0.92408 -0.74912,1.67321 -1.6732,1.67321c-0.92408,0 -1.6732,-0.74912 -1.6732,-1.67321z"/><path d="M237.35722,137.67046c0,-0.92408 0.74912,-1.6732 1.6732,-1.6732c0.92409,0 1.67321,0.74912 1.67321,1.6732c0,0.92408 -0.74912,1.67321 -1.67321,1.67321c-0.92408,0 -1.6732,-0.74912 -1.6732,-1.67321z"/><path d="M248.87611,137.67046c0,-0.92408 0.74912,-1.6732 1.6732,-1.6732c0.92409,0 1.67321,0.74912 1.67321,1.6732c0,0.92408 -0.74912,1.67321 -1.67321,1.67321c-0.92408,0 -1.6732,-0.74912 -1.6732,-1.67321z"/><path d="M260.39499,137.67046c0,-0.92408 0.74912,-1.6732 1.6732,-1.6732c0.92408,0 1.6732,0.74912 1.6732,1.6732c0,0.92408 -0.74912,1.67321 -1.6732,1.67321c-0.92408,0 -1.6732,-0.74912 -1.6732,-1.67321z"/><path d="M271.91388,137.67046c0,-0.92408 0.74912,-1.6732 1.6732,-1.6732c0.92408,0 1.6732,0.74912 1.6732,1.6732c0,0.92408 -0.74912,1.67321 -1.6732,1.67321c-0.92408,0 -1.6732,-0.74912 -1.6732,-1.67321z"/><path d="M283.5667,137.80439c0,-0.92408 0.74912,-1.67321 1.67321,-1.67321c0.92408,0 1.6732,0.74912 1.6732,1.67321c0,0.92408 -0.74912,1.6732 -1.6732,1.6732c-0.92408,0 -1.67321,-0.74912 -1.67321,-1.6732z"/><path d="M294.95165,137.67046c0,-0.92408 0.74912,-1.6732 1.6732,-1.6732c0.92408,0 1.6732,0.74912 1.6732,1.6732c0,0.92408 -0.74912,1.67321 -1.6732,1.67321c-0.92408,0 -1.6732,-0.74912 -1.6732,-1.67321z"/><path d="M306.47053,137.67046c0,-0.92408 0.74912,-1.6732 1.67321,-1.6732c0.92408,0 1.6732,0.74912 1.6732,1.6732c0,0.92408 -0.74912,1.67321 -1.6732,1.67321c-0.92408,0 -1.67321,-0.74912 -1.67321,-1.67321z"/></g></g><path d="M179.0688,179.16177v-73.95498h120.57878v73.95498z" fill="none" stroke="#bbbbbb" stroke-width="25" stroke-linecap="butt"/></g><path d="M73.19252,267.31464v-122.59728h27.66057v122.59728z" fill="url(#color-4)" stroke="url(#color-5)" stroke-width="4.5" stroke-linecap="butt"/><g stroke="#000000" stroke-width="0.5"><path d="M164.72107,353.35458c0,-0.92408 0.74912,-1.6732 1.6732,-1.6732c0.92408,0 1.6732,0.74912 1.6732,1.6732c0,0.92408 -0.74912,1.6732 -1.6732,1.6732c-0.92408,0 -1.6732,-0.74912 -1.6732,-1.6732z" fill="#bfbfbf" stroke-linecap="butt"/><path d="M176.23996,353.35458c0,-0.92408 0.74912,-1.6732 1.67321,-1.6732c0.92408,0 1.6732,0.74912 1.6732,1.6732c0,0.92408 -0.74912,1.6732 -1.6732,1.6732c-0.92409,0 -1.67321,-0.74912 -1.67321,-1.6732z" fill="#bfbfbf" stroke-linecap="butt"/><path d="M187.75885,353.35458c0,-0.92408 0.74912,-1.6732 1.6732,-1.6732c0.92408,0 1.6732,0.74912 1.6732,1.6732c0,0.92408 -0.74912,1.6732 -1.6732,1.6732c-0.92408,0 -1.6732,-0.74912 -1.6732,-1.6732z" fill="#bfbfbf" stroke-linecap="butt"/><path d="M199.27773,353.35458c0,-0.92408 0.74912,-1.6732 1.6732,-1.6732c0.92408,0 1.6732,0.74912 1.6732,1.6732c0,0.92408 -0.74912,1.6732 -1.6732,1.6732c-0.92408,0 -1.6732,-0.74912 -1.6732,-1.6732z" fill="#bfbfbf" stroke-linecap="butt"/><path d="M210.79662,353.35458c0,-0.92408 0.74912,-1.6732 1.6732,-1.6732c0.92408,0 1.6732,0.74912 1.6732,1.6732c0,0.92408 -0.74912,1.6732 -1.6732,1.6732c-0.92408,0 -1.6732,-0.74912 -1.6732,-1.6732z" fill="#bfbfbf" stroke-linecap="butt"/><path d="M222.44944,353.48852c0,-0.92408 0.74912,-1.6732 1.6732,-1.6732c0.92408,0 1.67321,0.74912 1.67321,1.6732c0,0.92408 -0.74912,1.6732 -1.67321,1.6732c-0.92408,0 -1.6732,-0.74912 -1.6732,-1.6732z" fill="#bfbfbf" stroke-linecap="butt"/><path d="M233.83439,353.35458c0,-0.92408 0.74912,-1.6732 1.6732,-1.6732c0.92408,0 1.6732,0.74912 1.6732,1.6732c0,0.92408 -0.74912,1.6732 -1.6732,1.6732c-0.92408,0 -1.6732,-0.74912 -1.6732,-1.6732z" fill="#bfbfbf" stroke-linecap="butt"/><path d="M245.35327,353.35458c0,-0.92408 0.74912,-1.6732 1.6732,-1.6732c0.92408,0 1.6732,0.74912 1.6732,1.6732c0,0.92408 -0.74912,1.6732 -1.6732,1.6732c-0.92408,0 -1.6732,-0.74912 -1.6732,-1.6732z" fill="#bfbfbf" stroke-linecap="butt"/><path d="M248.19141,356.45415h-83.72416" fill="none" stroke-linecap="round"/><path d="M164.70166,350.59386h83.72416" fill="none" stroke-linecap="round"/></g><g stroke="#000000" stroke-width="0.5"><path d="M114.55698,518.38036c0,-0.92408 0.74912,-1.6732 1.6732,-1.6732c0.92408,0 1.6732,0.74912 1.6732,1.6732c0,0.92408 -0.74912,1.6732 -1.6732,1.6732c-0.92408,0 -1.6732,-0.74912 -1.6732,-1.6732z" fill="#bfbfbf" stroke-linecap="butt"/><path d="M126.07587,518.38036c0,-0.92408 0.74912,-1.6732 1.67321,-1.6732c0.92408,0 1.6732,0.74912 1.6732,1.6732c0,0.92408 -0.74912,1.6732 -1.6732,1.6732c-0.92409,0 -1.67321,-0.74912 -1.67321,-1.6732z" fill="#bfbfbf" stroke-linecap="butt"/><path d="M137.59476,518.38036c0,-0.92408 0.74912,-1.6732 1.6732,-1.6732c0.92408,0 1.6732,0.74912 1.6732,1.6732c0,0.92408 -0.74912,1.6732 -1.6732,1.6732c-0.92408,0 -1.6732,-0.74912 -1.6732,-1.6732z" fill="#bfbfbf" stroke-linecap="butt"/><path d="M149.11364,518.38036c0,-0.92408 0.74912,-1.6732 1.6732,-1.6732c0.92408,0 1.6732,0.74912 1.6732,1.6732c0,0.92408 -0.74912,1.6732 -1.6732,1.6732c-0.92408,0 -1.6732,-0.74912 -1.6732,-1.6732z" fill="#bfbfbf" stroke-linecap="butt"/><path d="M160.63253,518.38036c0,-0.92408 0.74912,-1.6732 1.6732,-1.6732c0.92408,0 1.6732,0.74912 1.6732,1.6732c0,0.92408 -0.74912,1.6732 -1.6732,1.6732c-0.92408,0 -1.6732,-0.74912 -1.6732,-1.6732z" fill="#bfbfbf" stroke-linecap="butt"/><path d="M172.28535,518.51429c0,-0.92408 0.74912,-1.6732 1.6732,-1.6732c0.92408,0 1.67321,0.74912 1.67321,1.6732c0,0.92408 -0.74912,1.6732 -1.67321,1.6732c-0.92408,0 -1.6732,-0.74912 -1.6732,-1.6732z" fill="#bfbfbf" stroke-linecap="butt"/><path d="M183.6703,518.38036c0,-0.92408 0.74912,-1.6732 1.6732,-1.6732c0.92408,0 1.6732,0.74912 1.6732,1.6732c0,0.92408 -0.74912,1.6732 -1.6732,1.6732c-0.92408,0 -1.6732,-0.74912 -1.6732,-1.6732z" fill="#bfbfbf" stroke-linecap="butt"/><path d="M195.18918,518.38036c0,-0.92408 0.74912,-1.6732 1.6732,-1.6732c0.92408,0 1.6732,0.74912 1.6732,1.6732c0,0.92408 -0.74912,1.6732 -1.6732,1.6732c-0.92408,0 -1.6732,-0.74912 -1.6732,-1.6732z" fill="#bfbfbf" stroke-linecap="butt"/><path d="M198.02732,521.47993h-83.72416" fill="none" stroke-linecap="round"/><path d="M198.26173,515.61964h-83.72415" fill="none" stroke-linecap="round"/></g><g stroke="#000000" stroke-width="0.5"><path d="M292.60449,515.3373h141.85824" fill="none" stroke-linecap="round"/><path d="M292.92915,518.32344c0,-0.92408 0.74912,-1.6732 1.6732,-1.6732c0.92409,0 1.6732,0.74912 1.6732,1.6732c0,0.92408 -0.74912,1.6732 -1.6732,1.6732c-0.92409,0 -1.6732,-0.74912 -1.6732,-1.6732z" fill="#bfbfbf" stroke-linecap="butt"/><path d="M304.44803,518.32344c0,-0.92408 0.74912,-1.6732 1.6732,-1.6732c0.92409,0 1.6732,0.74912 1.6732,1.6732c0,0.92408 -0.74912,1.6732 -1.6732,1.6732c-0.92409,0 -1.6732,-0.74912 -1.6732,-1.6732z" fill="#bfbfbf" stroke-linecap="butt"/><path d="M315.96692,518.32344c0,-0.92408 0.74912,-1.6732 1.6732,-1.6732c0.92408,0 1.6732,0.74912 1.6732,1.6732c0,0.92408 -0.74912,1.6732 -1.6732,1.6732c-0.92408,0 -1.6732,-0.74912 -1.6732,-1.6732z" fill="#bfbfbf" stroke-linecap="butt"/><path d="M327.4858,518.32344c0,-0.92408 0.74912,-1.6732 1.6732,-1.6732c0.92408,0 1.6732,0.74912 1.6732,1.6732c0,0.92408 -0.74912,1.6732 -1.6732,1.6732c-0.92408,0 -1.6732,-0.74912 -1.6732,-1.6732z" fill="#bfbfbf" stroke-linecap="butt"/><path d="M339.13863,518.45737c0,-0.92408 0.74912,-1.6732 1.6732,-1.6732c0.92408,0 1.67321,0.74912 1.67321,1.6732c0,0.92408 -0.74912,1.6732 -1.67321,1.6732c-0.92408,0 -1.6732,-0.74912 -1.6732,-1.6732z" fill="#bfbfbf" stroke-linecap="butt"/><path d="M350.52357,518.32344c0,-0.92408 0.74912,-1.6732 1.6732,-1.6732c0.92408,0 1.6732,0.74912 1.6732,1.6732c0,0.92408 -0.74912,1.6732 -1.6732,1.6732c-0.92408,0 -1.6732,-0.74912 -1.6732,-1.6732z" fill="#bfbfbf" stroke-linecap="butt"/><path d="M362.04246,518.32344c0,-0.92408 0.74912,-1.6732 1.67321,-1.6732c0.92408,0 1.6732,0.74912 1.6732,1.6732c0,0.92408 -0.74912,1.6732 -1.6732,1.6732c-0.92409,0 -1.67321,-0.74912 -1.67321,-1.6732z" fill="#bfbfbf" stroke-linecap="butt"/><path d="M373.56135,518.32344c0,-0.92408 0.74912,-1.6732 1.6732,-1.6732c0.92408,0 1.6732,0.74912 1.6732,1.6732c0,0.92408 -0.74912,1.6732 -1.6732,1.6732c-0.92408,0 -1.6732,-0.74912 -1.6732,-1.6732z" fill="#bfbfbf" stroke-linecap="butt"/><path d="M385.08023,518.32344c0,-0.92408 0.74912,-1.6732 1.6732,-1.6732c0.92408,0 1.6732,0.74912 1.6732,1.6732c0,0.92408 -0.74912,1.6732 -1.6732,1.6732c-0.92408,0 -1.6732,-0.74912 -1.6732,-1.6732z" fill="#bfbfbf" stroke-linecap="butt"/><path d="M396.59912,518.32344c0,-0.92408 0.74912,-1.6732 1.6732,-1.6732c0.92408,0 1.6732,0.74912 1.6732,1.6732c0,0.92408 -0.74912,1.6732 -1.6732,1.6732c-0.92408,0 -1.6732,-0.74912 -1.6732,-1.6732z" fill="#bfbfbf" stroke-linecap="butt"/><path d="M408.25194,518.45737c0,-0.92408 0.74912,-1.6732 1.6732,-1.6732c0.92408,0 1.67321,0.74912 1.67321,1.6732c0,0.92408 -0.74912,1.6732 -1.67321,1.6732c-0.92408,0 -1.6732,-0.74912 -1.6732,-1.6732z" fill="#bfbfbf" stroke-linecap="butt"/><path d="M419.63689,518.32344c0,-0.92408 0.74912,-1.6732 1.6732,-1.6732c0.92408,0 1.6732,0.74912 1.6732,1.6732c0,0.92408 -0.74912,1.6732 -1.6732,1.6732c-0.92408,0 -1.6732,-0.74912 -1.6732,-1.6732z" fill="#bfbfbf" stroke-linecap="butt"/><path d="M431.15577,518.32344c0,-0.92408 0.74912,-1.6732 1.6732,-1.6732c0.92408,0 1.6732,0.74912 1.6732,1.6732c0,0.92408 -0.74912,1.6732 -1.6732,1.6732c-0.92408,0 -1.6732,-0.74912 -1.6732,-1.6732z" fill="#bfbfbf" stroke-linecap="butt"/><path d="M434.46273,521.06174h-141.85824" fill="none" stroke-linecap="round"/></g></g></g></svg>