<svg xmlns:xlink="http://www.w3.org/1999/xlink" xmlns="http://www.w3.org/2000/svg" viewBox="0 0 421.6 546.6" version="1.1" id="Layer_1">
  
  <defs>
    <style>
      .st0 {
        fill: none;
      }

      .st1 {
        fill: #fee554;
      }

      .st2 {
        fill: #c48d33;
      }

      .st3 {
        clip-path: url(#clippath);
      }
    </style>
    <clipPath id="clippath">
      <path d="M411.8,319.5c0,129.5-89.5,215.7-199.9,215.7S12.1,449,12.1,319.5,101.6,15.9,212,15.9s199.9,162.5,199.9,303.6Z" class="st0"/>
    </clipPath>
  </defs>
  <g class="st3">
    <path d="M411.8,319.5c0,129.5-89.5,215.7-199.9,215.7S12.1,449,12.1,319.5,101.6,15.9,212,15.9s199.9,162.5,199.9,303.6Z" class="st1"/>
    <g>
      <path d="M131.8,327.6c-25.2-10.1-55.5,6.3-67.8,36.8-12.3,30.5-1.9,63.4,23.3,73.5,25.2,10.1,55.5-6.3,67.8-36.8,12.3-30.5,1.9-63.4-23.3-73.5Z" class="st2"/>
      <ellipse ry="59.5" rx="49.1" cy="358.6" cx="295.4" class="st2"/>
      <path d="M154.4,77.8c-26-7.6-54.6,11.7-63.9,43.2-9.3,31.5,4.3,63.3,30.3,70.9,26,7.6,54.6-11.7,63.9-43.2,9.3-31.5-4.3-63.3-30.3-70.9Z" class="st2"/>
      <path d="M343.1,227.9c25.6-8.9,37.6-41.3,26.7-72.4-10.8-31-40.4-48.9-66-40-25.6,8.9-37.6,41.3-26.7,72.4,10.8,31,40.4,48.9,66,40Z" class="st2"/>
      <path d="M175.8,255.5c-4.9,16.6,2.3,33.3,15.9,37.3,13.7,4,28.7-6.2,33.6-22.7,4.9-16.6-2.3-33.3-15.9-37.3s-28.7,6.2-33.6,22.7Z" class="st2"/>
      <path d="M48,254.5c4.1-21.5-3.9-41-17.9-43.7-.8-.2-1.6-.2-2.4-.3-7.1,25.1-11.9,51.3-14.1,77.5.6.2,1.1.3,1.7.5,14,2.7,28.7-12.5,32.8-34Z" class="st2"/>
      <path d="M325.8,458.9c-15.4,15.4-19.8,36.1-9.7,46.2.2.2.5.3.7.5,22.1-13.9,41.3-32.3,56.6-54.6-.5-.6-.8-1.3-1.4-1.9-10.1-10.1-30.8-5.7-46.2,9.7Z" class="st2"/>
      <path d="M212.6,459.9c-15.3-8.1-33-4.4-39.7,8.2-6.7,12.6.3,29.3,15.6,37.4,15.3,8.1,33,4.4,39.7-8.2,6.7-12.6-.3-29.3-15.6-37.4Z" class="st2"/>
    </g>
  </g>
</svg>