<svg version="1.1" xmlns="http://www.w3.org/2000/svg" xmlns:xlink="http://www.w3.org/1999/xlink" width="89.90217" height="72.05219" viewBox="0,0,89.90217,72.05219"><g transform="translate(-135.04891,-283.9739)"><g fill="#000000" stroke="none" stroke-miterlimit="10"><path d="M224.95109,305.27077v49.32072c0,0.79248 -0.64232,1.43461 -1.43461,1.43461h-87.03296c-0.79229,0 -1.43461,-0.64213 -1.43461,-1.43461v-49.32072c0,-11.74314 9.55373,-21.29687 21.29687,-21.29687h47.30844c11.74314,0 21.29687,9.55373 21.29687,21.29687zM222.08187,342.09413v-35.38875h-15.15579v2.78716c0,3.89506 -3.16876,7.06382 -7.06382,7.06382c-3.89506,0 -7.06382,-3.16896 -7.06382,-7.06382v-2.78716h-15.15579v35.38875c5.79295,0.66088 10.40187,5.2698 11.06275,11.06275h22.31353c0.66088,-5.79295 5.26999,-10.40187 11.06294,-11.06275zM137.91813,353.15688h8.17115c-0.62606,-4.20914 -3.96201,-7.54528 -8.17115,-8.17115zM204.05706,303.83616v-2.78716c0,-2.31297 -1.88163,-4.19461 -4.19461,-4.19461c-2.31297,0 -4.19461,1.88163 -4.19461,4.19461v2.78716h8.38902zM195.66765,306.70538v2.78716c0,2.31297 1.88163,4.19461 4.19461,4.19461c2.31297,0 4.19461,-1.88163 4.19461,-4.19461v-2.78716h-2.76v1.00843c0,0.79248 -0.64232,1.43461 -1.43461,1.43461c-0.79229,0 -1.43461,-0.64213 -1.43461,-1.43461v-1.00843zM148.98088,353.15688h14.7298c0.66088,-5.79295 5.2698,-10.40187 11.06275,-11.06275v-15.34764h-5.17186c-0.79229,0 -1.43461,-0.64213 -1.43461,-1.43461c0,-0.79248 0.64232,-1.43461 1.43461,-1.43461h5.17186v-3.81109h-19.91257c-0.79229,0 -1.43461,-0.64213 -1.43461,-1.43461c0,-0.79248 0.64232,-1.43461 1.43461,-1.43461h19.91257v-10.49158h-36.8553v3.81109h11.2043c0.79229,0 1.43461,0.64213 1.43461,1.43461c0,0.79248 -0.64232,1.43461 -1.43461,1.43461h-11.2043v28.70844c5.79295,0.66088 10.40187,5.2698 11.06275,11.06275zM166.60228,353.15688h8.17115v-8.17115c-4.20914,0.62606 -7.54509,3.96201 -8.17115,8.17115zM177.64265,353.15688h8.17115c-0.62606,-4.20914 -3.96201,-7.54528 -8.17115,-8.17115zM222.02621,303.83616c-0.73433,-9.49329 -8.69392,-16.99304 -18.37218,-16.99304h-36.6426c5.96147,3.46391 10.09659,9.7366 10.58168,16.99304h15.20533v-2.78716c0,-3.89506 3.16876,-7.06382 7.06382,-7.06382c3.89506,0 7.06382,3.16896 7.06382,7.06382v2.78716zM137.9736,303.83616h36.74436c-0.73452,-9.49329 -8.69392,-16.99304 -18.37218,-16.99304c-9.67845,0 -17.63766,7.49975 -18.37218,16.99304zM222.08187,353.15688v-8.17115c-4.20914,0.62606 -7.54528,3.96182 -8.17115,8.17115z"/><path d="M150.55723,318.63157c0,0.79248 -0.64232,1.43461 -1.43461,1.43461h-6.60647c-0.79229,0 -1.43461,-0.64213 -1.43461,-1.43461c0,-0.79248 0.64232,-1.43461 1.43461,-1.43461h6.60628c0.79229,0 1.4348,0.64213 1.4348,1.43461z"/></g></g></svg>