<svg version="1.1" xmlns="http://www.w3.org/2000/svg" xmlns:xlink="http://www.w3.org/1999/xlink" width="55.82851" height="204.94365" viewBox="0,0,55.82851,204.94365"><g transform="translate(-151.97447,-144.44893)"><g stroke-miterlimit="10"><g stroke="#000000" stroke-width="2.5" stroke-linecap="butt"><path d="M179.64278,348.14258c-13.71176,0 -24.82734,-6.63736 -24.82734,-14.82496c0,-8.1876 11.11558,-14.82496 24.82734,-14.82496c13.71176,0 24.82734,6.63736 24.82734,14.82496c0,8.1876 -11.11558,14.82496 -24.82734,14.82496z" fill="#ffd658"/><path d="M205.98689,331.451c0,7.85258 -11.81127,14.21836 -26.38121,14.21836c-14.56994,0 -26.38121,-6.36578 -26.38121,-14.21836c0,-7.85258 11.81127,-14.21835 26.38121,-14.21835c14.56994,0 26.38121,6.36577 26.38121,14.21835z" fill="none"/><path d="M206.55298,329.46969c0,7.85258 -11.81127,14.21836 -26.38121,14.21836c-14.56994,0 -26.38121,-6.36578 -26.38121,-14.21836c0,-7.85258 11.81127,-14.21835 26.38121,-14.21835c14.56994,0 26.38121,6.36577 26.38121,14.21835z" fill="none"/></g><g><path d="M180.33931,274.76727c9.93693,0 22.75047,14.75631 22.95686,34.29237c0.18657,17.65956 -13.01993,25.56696 -22.95686,25.56696c-9.93693,0 -23.34003,-7.30734 -23.03208,-25.49174c0.32829,-19.38576 13.09515,-34.36759 23.03208,-34.36759z" fill="#9966ff" stroke="none" stroke-width="0" stroke-linecap="butt"/><path d="M201.41156,319.94134c0,0 -6.03845,5.64589 -21.52519,6.39362c-12.38279,0.59786 -20.08349,-4.66358 -20.08349,-4.66358" fill="none" stroke="#000000" stroke-width="1" stroke-linecap="round"/><path d="M202.61506,315.80429c0,0 -5.38145,6.84882 -22.80392,7.74756c-13.96808,0.72054 -21.36222,-5.71665 -21.36222,-5.71665" fill="none" stroke="#000000" stroke-width="1" stroke-linecap="round"/><path d="M195.75759,285.31549c0,0 -6.27317,2.18702 -16.5482,2.33179c-10.67729,0.15044 -14.44206,-1.9557 -14.44206,-1.9557" fill="none" stroke="#000000" stroke-width="1" stroke-linecap="round"/><path d="M197.18675,287.42163c0,0 -8.07843,2.4879 -18.35345,2.63267c-10.67729,0.15044 -15.26947,-2.33179 -15.26947,-2.33179" fill="none" stroke="#000000" stroke-width="1" stroke-linecap="round"/><path d="M184.99474,304.82242c0,-1.89018 1.53229,-3.42247 3.42247,-3.42247c1.89018,0 3.42247,1.53229 3.42247,3.42247c0,1.89018 -1.53229,3.42247 -3.42247,3.42247c-1.89018,0 -3.42247,-1.53229 -3.42247,-3.42247z" fill="#ffd626" stroke="#000000" stroke-width="1" stroke-linecap="butt"/><path d="M172.22383,305.71784c0,-1.89018 1.53229,-3.42247 3.42247,-3.42247c1.89018,0 3.42247,1.53229 3.42247,3.42247c0,1.89018 -1.53229,3.42247 -3.42247,3.42247c-1.89018,0 -3.42247,-1.53229 -3.42247,-3.42247z" fill="#ff25ed" stroke="#000000" stroke-width="1" stroke-linecap="butt"/><path d="M179.35329,295.37685c0,-1.89018 1.53229,-3.42247 3.42247,-3.42247c1.89018,0 3.42247,1.53229 3.42247,3.42247c0,1.89018 -1.53229,3.42247 -3.42247,3.42247c-1.89018,0 -3.42247,-1.53229 -3.42247,-3.42247z" fill="#26ff41" stroke="#000000" stroke-width="1" stroke-linecap="butt"/><path d="M178.4814,315.40674c0,-1.89018 1.53229,-3.42247 3.42247,-3.42247c1.89018,0 3.42247,1.53229 3.42247,3.42247c0,1.89018 -1.53229,3.42247 -3.42247,3.42247c-1.89018,0 -3.42247,-1.53229 -3.42247,-3.42247z" fill="#26a0ff" stroke="#000000" stroke-width="1" stroke-linecap="butt"/><path d="M162.76191,296.68502c0,-1.89018 1.53229,-3.42247 3.42247,-3.42247c1.89018,0 3.42247,1.53229 3.42247,3.42247c0,1.89018 -1.53229,3.42247 -3.42247,3.42247c-1.89018,0 -3.42247,-1.53229 -3.42247,-3.42247z" fill="#ffd626" stroke="#000000" stroke-width="1" stroke-linecap="butt"/><path d="M191.28434,295.90471c0,-1.89018 1.53229,-3.42247 3.42247,-3.42247c1.89018,0 3.42247,1.53229 3.42247,3.42247c0,1.89018 -1.53229,3.42247 -3.42247,3.42247c-1.89018,0 -3.42247,-1.53229 -3.42247,-3.42247z" fill="#26ff41" stroke="#000000" stroke-width="1" stroke-linecap="butt"/><path d="M194.02428,311.28602c0,-1.89018 1.53229,-3.42247 3.42247,-3.42247c1.89018,0 3.42247,1.53229 3.42247,3.42247c0,1.89018 -1.53229,3.42247 -3.42247,3.42247c-1.89018,0 -3.42247,-1.53229 -3.42247,-3.42247z" fill="#ff25ed" stroke="#000000" stroke-width="1" stroke-linecap="butt"/><path d="M160.55506,309.94974c0,-1.89018 1.53229,-3.42247 3.42247,-3.42247c1.89018,0 3.42247,1.53229 3.42247,3.42247c0,1.89018 -1.53229,3.42247 -3.42247,3.42247c-1.89018,0 -3.42247,-1.53229 -3.42247,-3.42247z" fill="#26a0ff" stroke="#000000" stroke-width="1" stroke-linecap="butt"/></g><g><path d="M180.33931,221.65665c9.93693,0 22.75047,14.75631 22.95686,34.29237c0.18657,17.65956 -13.01993,25.56696 -22.95686,25.56696c-9.93693,0 -23.34003,-7.30734 -23.03208,-25.49174c0.32829,-19.38576 13.09515,-34.36759 23.03208,-34.36759z" fill="#9966ff" stroke="none" stroke-width="0" stroke-linecap="butt"/><path d="M201.41156,266.83072c0,0 -6.03845,5.64589 -21.52519,6.39362c-12.38279,0.59786 -20.08349,-4.66358 -20.08349,-4.66358" fill="none" stroke="#000000" stroke-width="1" stroke-linecap="round"/><path d="M202.61506,262.69367c0,0 -5.38145,6.84882 -22.80392,7.74756c-13.96808,0.72054 -21.36222,-5.71665 -21.36222,-5.71665" fill="none" stroke="#000000" stroke-width="1" stroke-linecap="round"/><path d="M195.75759,232.20487c0,0 -6.27317,2.18702 -16.5482,2.33179c-10.67729,0.15044 -14.44206,-1.9557 -14.44206,-1.9557" fill="none" stroke="#000000" stroke-width="1" stroke-linecap="round"/><path d="M197.18675,234.31101c0,0 -8.07843,2.4879 -18.35345,2.63267c-10.67729,0.15044 -15.26947,-2.33179 -15.26947,-2.33179" fill="none" stroke="#000000" stroke-width="1" stroke-linecap="round"/><path d="M184.99474,251.7118c0,-1.89018 1.53229,-3.42247 3.42247,-3.42247c1.89018,0 3.42247,1.53229 3.42247,3.42247c0,1.89018 -1.53229,3.42247 -3.42247,3.42247c-1.89018,0 -3.42247,-1.53229 -3.42247,-3.42247z" fill="#ffd626" stroke="#000000" stroke-width="1" stroke-linecap="butt"/><path d="M172.22383,252.60722c0,-1.89018 1.53229,-3.42247 3.42247,-3.42247c1.89018,0 3.42247,1.53229 3.42247,3.42247c0,1.89018 -1.53229,3.42247 -3.42247,3.42247c-1.89018,0 -3.42247,-1.53229 -3.42247,-3.42247z" fill="#ff25ed" stroke="#000000" stroke-width="1" stroke-linecap="butt"/><path d="M179.35329,242.26623c0,-1.89018 1.53229,-3.42247 3.42247,-3.42247c1.89018,0 3.42247,1.53229 3.42247,3.42247c0,1.89018 -1.53229,3.42247 -3.42247,3.42247c-1.89018,0 -3.42247,-1.53229 -3.42247,-3.42247z" fill="#26a0ff" stroke="#000000" stroke-width="1" stroke-linecap="butt"/><path d="M178.4814,262.29612c0,-1.89018 1.53229,-3.42247 3.42247,-3.42247c1.89018,0 3.42247,1.53229 3.42247,3.42247c0,1.89018 -1.53229,3.42247 -3.42247,3.42247c-1.89018,0 -3.42247,-1.53229 -3.42247,-3.42247z" fill="#ffd626" stroke="#000000" stroke-width="1" stroke-linecap="butt"/><path d="M162.76191,243.5744c0,-1.89018 1.53229,-3.42247 3.42247,-3.42247c1.89018,0 3.42247,1.53229 3.42247,3.42247c0,1.89018 -1.53229,3.42247 -3.42247,3.42247c-1.89018,0 -3.42247,-1.53229 -3.42247,-3.42247z" fill="#26a0ff" stroke="#000000" stroke-width="1" stroke-linecap="butt"/><path d="M191.28434,242.79409c0,-1.89018 1.53229,-3.42247 3.42247,-3.42247c1.89018,0 3.42247,1.53229 3.42247,3.42247c0,1.89018 -1.53229,3.42247 -3.42247,3.42247c-1.89018,0 -3.42247,-1.53229 -3.42247,-3.42247z" fill="#26ff41" stroke="#000000" stroke-width="1" stroke-linecap="butt"/><path d="M194.02428,258.1754c0,-1.89018 1.53229,-3.42247 3.42247,-3.42247c1.89018,0 3.42247,1.53229 3.42247,3.42247c0,1.89018 -1.53229,3.42247 -3.42247,3.42247c-1.89018,0 -3.42247,-1.53229 -3.42247,-3.42247z" fill="#ff25ed" stroke="#000000" stroke-width="1" stroke-linecap="butt"/><path d="M160.55506,256.83912c0,-1.89018 1.53229,-3.42247 3.42247,-3.42247c1.89018,0 3.42247,1.53229 3.42247,3.42247c0,1.89018 -1.53229,3.42247 -3.42247,3.42247c-1.89018,0 -3.42247,-1.53229 -3.42247,-3.42247z" fill="#26ff41" stroke="#000000" stroke-width="1" stroke-linecap="butt"/></g><g><path d="M180.3393,173.34698c9.93693,0 22.75047,14.75631 22.95686,34.29237c0.18657,17.65956 -13.01993,25.56696 -22.95686,25.56696c-9.93693,0 -23.34003,-7.30734 -23.03208,-25.49174c0.32829,-19.38576 13.09515,-34.36759 23.03208,-34.36759z" fill="#9966ff" stroke="none" stroke-width="0" stroke-linecap="butt"/><path d="M201.41155,218.52105c0,0 -6.03845,5.64589 -21.52519,6.39362c-12.38279,0.59786 -20.08349,-4.66358 -20.08349,-4.66358" fill="none" stroke="#000000" stroke-width="1" stroke-linecap="round"/><path d="M202.61506,214.384c0,0 -5.38145,6.84882 -22.80392,7.74756c-13.96808,0.72054 -21.36222,-5.71665 -21.36222,-5.71665" fill="none" stroke="#000000" stroke-width="1" stroke-linecap="round"/><path d="M195.75758,183.8952c0,0 -6.27317,2.18702 -16.5482,2.33179c-10.67729,0.15044 -14.44206,-1.9557 -14.44206,-1.9557" fill="none" stroke="#000000" stroke-width="1" stroke-linecap="round"/><path d="M197.18674,186.00134c0,0 -8.07843,2.4879 -18.35345,2.63267c-10.67729,0.15044 -15.26947,-2.33179 -15.26947,-2.33179" fill="none" stroke="#000000" stroke-width="1" stroke-linecap="round"/><path d="M184.99473,203.40213c0,-1.89018 1.53229,-3.42247 3.42247,-3.42247c1.89018,0 3.42247,1.53229 3.42247,3.42247c0,1.89018 -1.53229,3.42247 -3.42247,3.42247c-1.89018,0 -3.42247,-1.53229 -3.42247,-3.42247z" fill="#ff25ed" stroke="#000000" stroke-width="1" stroke-linecap="butt"/><path d="M172.22382,204.29755c0,-1.89018 1.53229,-3.42247 3.42247,-3.42247c1.89018,0 3.42247,1.53229 3.42247,3.42247c0,1.89018 -1.53229,3.42247 -3.42247,3.42247c-1.89018,0 -3.42247,-1.53229 -3.42247,-3.42247z" fill="#ffd626" stroke="#000000" stroke-width="1" stroke-linecap="butt"/><path d="M179.35328,193.95656c0,-1.89018 1.53229,-3.42247 3.42247,-3.42247c1.89018,0 3.42247,1.53229 3.42247,3.42247c0,1.89018 -1.53229,3.42247 -3.42247,3.42247c-1.89018,0 -3.42247,-1.53229 -3.42247,-3.42247z" fill="#ff25ed" stroke="#000000" stroke-width="1" stroke-linecap="butt"/><path d="M178.48139,213.98645c0,-1.89018 1.53229,-3.42247 3.42247,-3.42247c1.89018,0 3.42247,1.53229 3.42247,3.42247c0,1.89018 -1.53229,3.42247 -3.42247,3.42247c-1.89018,0 -3.42247,-1.53229 -3.42247,-3.42247z" fill="#26a0ff" stroke="#000000" stroke-width="1" stroke-linecap="butt"/><path d="M162.7619,195.26473c0,-1.89018 1.53229,-3.42247 3.42247,-3.42247c1.89018,0 3.42247,1.53229 3.42247,3.42247c0,1.89018 -1.53229,3.42247 -3.42247,3.42247c-1.89018,0 -3.42247,-1.53229 -3.42247,-3.42247z" fill="#26ff41" stroke="#000000" stroke-width="1" stroke-linecap="butt"/><path d="M191.28433,194.48442c0,-1.89018 1.53229,-3.42247 3.42247,-3.42247c1.89018,0 3.42247,1.53229 3.42247,3.42247c0,1.89018 -1.53229,3.42247 -3.42247,3.42247c-1.89018,0 -3.42247,-1.53229 -3.42247,-3.42247z" fill="#26ff41" stroke="#000000" stroke-width="1" stroke-linecap="butt"/><path d="M194.02427,209.86573c0,-1.89018 1.53229,-3.42247 3.42247,-3.42247c1.89018,0 3.42247,1.53229 3.42247,3.42247c0,1.89018 -1.53229,3.42247 -3.42247,3.42247c-1.89018,0 -3.42247,-1.53229 -3.42247,-3.42247z" fill="#ffd626" stroke="#000000" stroke-width="1" stroke-linecap="butt"/><path d="M160.55505,208.52945c0,-1.89018 1.53229,-3.42247 3.42247,-3.42247c1.89018,0 3.42247,1.53229 3.42247,3.42247c0,1.89018 -1.53229,3.42247 -3.42247,3.42247c-1.89018,0 -3.42247,-1.53229 -3.42247,-3.42247z" fill="#26ff41" stroke="#000000" stroke-width="1" stroke-linecap="butt"/></g><g stroke="none" stroke-width="1" stroke-linecap="butt"><g fill="#009cff"><path d="M170.643,164.73326l-11.80998,-8.44902l15.69876,2.67963z"/><path d="M185.18741,158.96388l15.69913,-2.67963l-11.81086,8.44902z"/></g><path d="M193.06717,180.15507c0,1.84517 -1.49583,3.34099 -3.34049,3.34099h-9.95321h-9.79495c-1.84467,0 -3.3405,-1.49583 -3.3405,-3.34099c0,0 -9.28873,-23.0582 -7.80513,-23.87082c0,0 11.04928,6.50438 11.80961,5.74367c0.8467,-0.8447 8.07023,-14.36543 9.13035,-14.37054c1.06112,0.00462 8.44253,13.52522 9.28873,14.37054c0.76121,0.76071 11.81047,-5.74367 11.81047,-5.74367c1.48322,0.81262 -7.80538,23.87082 -7.80488,23.87082z" fill="#00e6ff"/><g><path d="M179.77347,147.65725v35.83882h-9.79495c-1.84467,0 -3.3405,-1.49583 -3.3405,-3.34099c0,0 -9.28873,-23.0582 -7.80501,-23.87095c0,0 11.04928,6.50438 11.80961,5.74367c0.8467,-0.8447 8.07022,-14.36544 9.13034,-14.37055z" fill="#00f2ff"/><path d="M176.48428,147.65725c0,-1.77191 1.43641,-3.20832 3.20832,-3.20832c1.77191,0 3.20832,1.43641 3.20832,3.20832c0,1.77191 -1.43642,3.20833 -3.20832,3.20833c-1.77191,0 -3.20832,-1.43642 -3.20832,-3.20833z" fill="#00ceff"/></g><path d="M193.11148,180.15507c0,1.84517 -1.49582,3.34099 -3.34136,3.34099h-19.79159c-1.84467,0 -3.3405,-1.49583 -3.3405,-3.34099c0,0 7.69992,-0.45855 13.2167,-0.45855c5.51715,0 13.25675,0.45855 13.25675,0.45855z" fill="#00b3ff"/><path d="M179.77297,183.49644h-9.79445c-1.84467,0 -3.3405,-1.49583 -3.3405,-3.34099c0,0 7.69992,-0.45855 13.2167,-0.45855z" fill="#00ceff"/><path d="M177.09234,148.2934c-0.56363,-0.56364 0.05466,-2.12436 0.6193,-2.6885c0.56363,-0.56326 1.92829,-1.09843 2.49192,-0.53467c0.56363,0.56351 -2.54708,3.78731 -3.11122,3.22317z" fill="#00ffff"/><g><path d="M198.81958,156.44587c0,-1.16477 0.94423,-2.10901 2.10901,-2.10901c1.16478,0 2.10901,0.94423 2.10901,2.10901c0,1.16477 -0.94423,2.10901 -2.10901,2.10901c-1.16478,0 -2.10901,-0.94424 -2.10901,-2.10901z" fill="#00ceff"/><path d="M199.21934,156.8661c-0.3703,-0.3708 0.03594,-1.39723 0.40675,-1.76766c0.3703,-0.37031 1.26793,-0.72202 1.63824,-0.35171c0.37093,0.37093 -1.67368,2.49017 -2.04498,2.11937z" fill="#00ffff"/><path d="M156.68669,156.44587c0,-1.16477 0.94423,-2.10901 2.10901,-2.10901c1.16478,0 2.10901,0.94423 2.10901,2.10901c0,1.16477 -0.94423,2.10901 -2.10901,2.10901c-1.16478,0 -2.10901,-0.94424 -2.10901,-2.10901z" fill="#00ceff"/></g><path d="M157.08508,156.8661c-0.3703,-0.3708 0.03645,-1.39723 0.40675,-1.76766c0.37131,-0.37031 1.26792,-0.72202 1.63923,-0.35171c0.37018,0.37093 -1.6748,2.49017 -2.04598,2.11937z" fill="#00ffff"/><path d="M183.40814,168.15725l-3.67673,6.51711l-3.67773,-6.51711l3.67773,-6.51699z" fill="#a8213b"/><path d="M183.40814,168.15725l-3.67673,6.51711l-3.67773,-6.51711z" fill="#951d38"/><path d="M179.73141,174.67437l-3.67773,-6.51711l3.67773,-6.51699z" fill="#c0355a"/><path d="M179.73141,174.67437l-3.67773,-6.51711h3.67773z" fill="#b72d4c"/></g></g></g></svg>