<svg version="1.1" xmlns="http://www.w3.org/2000/svg" xmlns:xlink="http://www.w3.org/1999/xlink" width="663.95099" height="678.36023" viewBox="0,0,663.95099,678.36023"><g transform="translate(304.15506,21.18012)"><g stroke="none" stroke-miterlimit="10"><path d="M-304.15506,657.18012v-678.36023h663.95099v678.36023z" fill="#71d23b" stroke-width="0"/><path d="M35.25176,463v-287.55556h288.05204v287.55556z" fill="#5fb232" stroke-width="0"/><path d="M229.3723,110.33772c-5.52285,0 -10,-4.47715 -10,-10v-25.96623c0,-5.52285 4.47715,-10 10,-10h66.30394c5.52285,0 10,4.47715 10,10v25.96623c0,5.52285 -4.47715,10 -10,10z" fill="#ff8f66" stroke-width="0"/><g><path d="M67.85421,110.33772c-5.52285,0 -10,-4.47715 -10,-10v-25.96623c0,-5.52285 4.47715,-10 10,-10h66.30394c5.52285,0 10,4.47715 10,10v25.96623c0,5.52285 -4.47715,10 -10,10z" fill="#ff8f66" stroke-width="0"/><g stroke-width="1"><path d="M73.36663,81.34367c0.15085,-0.16221 0.36088,-0.25622 0.58229,-0.26021c0.22193,-0.00451 0.43536,0.08166 0.59222,0.23852l12.68723,12.68723c0.15686,0.15686 0.24296,0.37036 0.23852,0.59222c-0.00399,0.22127 -0.098,0.43131 -0.26021,0.58229c-0.40746,0.37754 -10.10597,9.24244 -21.91857,8.86797c-0.43026,-0.01346 -0.77579,-0.35899 -0.78925,-0.78925c-0.37506,-11.81318 8.49023,-21.51143 8.86777,-21.91876z" fill="#707487"/><path d="M73.36663,81.34367c0.15085,-0.16221 0.36088,-0.25622 0.58229,-0.26021c0.22193,-0.00451 0.43536,0.08166 0.59222,0.23852l6.34362,6.34362l-16.14757,16.14757c-0.1419,-0.1419 -0.23153,-0.33567 -0.23832,-0.55073c-0.37506,-11.81318 8.49023,-21.51143 8.86777,-21.91876z" fill="#65687a"/><path d="M76.84859,89.39508l6.92028,-6.92028l2.30674,2.30674l-6.92028,6.92028c-0.63703,0.63703 -1.66977,0.63703 -2.30681,0v0c-0.63697,-0.63697 -0.63703,-1.66977 0.00007,-2.30674z" fill="#5b5d6e"/><path d="M83.76881,81.32138l3.46014,3.46014l-0.57667,0.57667c-0.31848,0.31848 -0.83485,0.31848 -1.15334,0l-2.30674,-2.30674c-0.31848,-0.31848 -0.31848,-0.83485 0,-1.15334l0.57667,-0.57667z" fill="#c7cfe2"/><path d="M83.76881,81.32138l10.95716,-10.95716c0.95552,-0.95552 2.50462,-0.95552 3.46014,0c0.95552,0.95552 0.95552,2.50462 0,3.46014l-10.95716,10.95716zM95.87944,71.51757c-0.31848,0.31848 -0.31848,0.83485 0,1.15334c0.31848,0.31848 0.83485,0.31848 1.15334,0c0.31848,-0.31848 0.31848,-0.83485 0,-1.15334c-0.31848,-0.31848 -0.83485,-0.31848 -1.15334,0z" fill="#ffdca0"/></g></g><path d="M146.84803,612.37764c-5.52285,0 -10,-4.47715 -10,-10v-25.96623c0,-5.52285 4.47715,-10 10,-10h66.30394c5.52285,0 10,4.47715 10,10v25.96623c0,5.52285 -4.47715,10 -10,10z" fill="#ff8f66" stroke-width="0"/></g></g></svg>