<svg xmlns:xlink="http://www.w3.org/1999/xlink" xmlns="http://www.w3.org/2000/svg" viewBox="0 0 421.6 546.6" version="1.1" id="Layer_1">
  
  <defs>
    <style>
      .st0 {
        fill: #f2f2f2;
      }

      .st1 {
        fill: none;
      }

      .st2 {
        fill: #e976ae;
      }

      .st3 {
        fill: #a778b4;
      }

      .st4 {
        fill: #f4ea43;
      }

      .st5 {
        fill: #ef99c1;
      }

      .st6 {
        fill: #eb9023;
      }

      .st7 {
        clip-path: url(#clippath);
      }
    </style>
    <clipPath id="clippath">
      <path d="M411.8,319.5c0,129.5-89.5,215.7-199.9,215.7S12.1,449,12.1,319.5,101.6,15.9,212,15.9s199.9,162.5,199.9,303.6Z" class="st1"/>
    </clipPath>
  </defs>
  <g class="st7">
    <path d="M411.8,319.5c0,129.5-89.5,215.7-199.9,215.7S12.1,449,12.1,319.5,101.6,15.9,212,15.9s199.9,162.5,199.9,303.6Z" class="st6"/>
    <g>
      <path d="M85.9,119.6c32.1,3.2,54.4,18.1,63.6,25.4,15.7,12.5,27.8,12.6,61.5-19.2,21.3-20.1,42.2-29.3,63.7-28.2,34.2,1.8,58.7,30.1,76.6,50.8,4.6,5.4,9.9,7.4,16.7,6.3,2-.3,3.9-1,5.8-1.7-17.3-37.1-39.7-69.9-65.6-94.1-10-6-21.1-10.2-33.6-10.8-21.5-1.2-42.4,8.1-63.6,28.2-33.7,31.8-45.8,31.7-61.5,19.2-13-10.3-28.2-20.2-46.4-25.4-13.4,14.3-25.7,30.9-36.6,49.2,1.6,0,3.2-.2,4.8-.2,5.3-.6,10.1-.3,14.5.6Z" class="st4"/>
      <path d="M149.5,446.3c15.7,12.5,27.8,12.6,61.5-19.2,21.3-20.1,42.2-29.3,63.6-28.2,34.2,1.8,58.7,30.1,76.6,50.8,5,5.8,12.7,6.7,18.6,6.3,10.7-14.6,19.7-31,26.5-49-4.5,1.3-9.2,2.4-13.8,3.2-5.4.9-10.7,1.3-15.9,1.3-22.4,0-42-8.2-55.1-23.4-11-12.8-27.7-32.1-39.6-32.7-8.1-.6-18,7.4-25,14-21.6,20.4-72.3,68.1-130.2,22.2-15-11.9-46.5-26.7-94.3.8,3.6,11.8,7.9,23,13.1,33.5,59-16.9,100.4,9.9,113.8,20.5Z" class="st4"/>
      <path d="M149.5,297.8c15.7,12.5,27.8,12.6,61.5-19.2,15.2-14.3,35.8-30.6,60.4-29.2,25.6,1.5,41.4,20.2,58.2,40.1,2.3,2.8,4.7,5.6,7.3,8.6,5.7,6.6,23.1,11.5,45.3,7.8,13.1-2.1,22.9-6.5,28.7-10.7-1-14.4-2.9-28.9-5.5-43.4-4.9,2.1-9.9,3.9-15.2,5.2-7.6,1.9-15.1,2.8-22.4,2.8-22.3,0-42.4-8.6-56.2-24.6-11-12.8-27.7-32.1-39.6-32.7-8.1-.5-18,7.4-25,14-21.6,20.4-72.3,68.1-130.2,22.2-15.2-12.1-47.5-27-96.5,2.2-2.8,13.9-5,28-6.3,42.1,56.7-22.4,106.8-7.9,135.5,14.9Z" class="st4"/>
      <path d="M78.8,324.5c35.9,1.5,60.9,18,70.7,25.8,15.7,12.5,27.8,12.6,61.5-19.2,17.9-16.9,35.5-26,53.5-27.9,2.5-1.3,3.7-1.5,3.7-1.5.6.2,1.3.6,2.2,1.2,1.4,0,2.9-.1,4.3,0,34.2,1.7,58.7,30.1,76.6,50.8,5.7,6.6,17.9,5.4,22.9,4.6,15.3-2.5,29.4-11,37-19.5.5-6.3.7-12.8.7-19.3s-.3-16.2-.9-24.3c-5.8,4.1-15.6,8.5-28.7,10.7-22.2,3.6-39.6-1.2-45.3-7.8-2.5-2.9-5-5.8-7.3-8.6-16.7-19.8-32.5-38.6-58.2-40.1-24.6-1.4-45.2,14.8-60.4,29.2-33.8,31.8-45.8,31.7-61.5,19.2-28.8-22.8-78.8-37.3-135.5-14.9-1.2,12.2-1.8,24.5-1.8,36.7s.3,12.7.7,18.8c14-6.4,27.2-10.2,39.4-12.2,9.4-1.9,18.3-2.3,26.5-1.6Z" class="st3"/>
      <path d="M81.2,171.7c34.6,2.1,58.7,18.1,68.3,25.7,15.7,12.5,27.8,12.6,61.5-19.2,20.1-18.9,39.8-28.1,60-28.2.3,0,.6,0,.9,0,.2,0,.3,0,.5,0,.7,0,1.5,0,2.2,0,34.2,1.7,58.7,30.1,76.6,50.8,5.5,6.4,14.4,6.8,20.6,6.2.6,0,1.2-.1,1.9-.2,1.6-.2,3-.5,3.9-.7,4.6-1.1,9.8-3.3,14.6-6.4-5.2-16.1-11.4-31.7-18.4-46.7-1.9.8-3.9,1.4-5.8,1.7-6.7,1.1-12-.9-16.7-6.3-17.9-20.7-42.4-49.1-76.6-50.8-21.5-1.1-42.4,8.1-63.7,28.2-33.8,31.8-45.8,31.7-61.5,19.2-9.2-7.3-31.5-22.1-63.6-25.4-4.6-.5-9.5-.7-14.5-.6-1.6,0-3.2,0-4.8.2-10.5,17.6-19.7,36.7-27.4,56.8,10.2-2.7,19.8-4,28.9-4.4,4.7-.4,9.1-.3,13.2.1Z" class="st0"/>
      <path d="M116.9,391.5c57.9,46,108.6-1.8,130.2-22.2,7-6.6,16.8-14.5,25-14,11.8.6,28.5,19.9,39.6,32.7,13.2,15.3,32.7,23.4,55.1,23.4s10.5-.4,15.9-1.3c4.7-.8,9.3-1.8,13.8-3.2,7.9-20.7,12.9-43.6,14.7-68.2-7.5,8.5-21.6,17-37,19.5-5,.8-17.1,2-22.9-4.6-17.9-20.7-42.4-49.1-76.6-50.8-1.4,0-2.9,0-4.3,0-2,0-3.9.1-5.8.3-18,1.8-35.6,10.9-53.5,27.9-33.8,31.8-45.8,31.7-61.5,19.2-9.8-7.8-34.8-24.3-70.7-25.8-8.3-.4-17.1,0-26.5,1.6-12.3,2-25.5,5.9-39.4,12.2,1.3,19.1,4.6,37.1,9.7,53.9,47.8-27.5,79.3-12.7,94.3-.8Z" class="st0"/>
      <path d="M116.9,238.5c57.9,46,108.6-1.8,130.2-22.2,7-6.6,16.8-14.5,25-14,11.8.6,28.5,19.9,39.6,32.7,13.9,16.1,34,24.6,56.2,24.6,7.3,0,14.8-.9,22.4-2.8,5.3-1.3,10.3-3.1,15.2-5.2-3.3-17.6-7.7-35.2-13.2-52.2-4.8,3.1-9.9,5.3-14.6,6.4-.9.2-2.3.5-3.9.7-.6,0-1.2.2-1.9.2-6.2.7-15,.2-20.6-6.2-17.9-20.7-42.4-49.1-76.6-50.8-.7,0-1.5,0-2.2,0-.5,0-1,0-1.4,0-20.3,0-39.9,9.2-60,28.2-33.8,31.8-45.8,31.7-61.5,19.2-9.6-7.6-33.7-23.6-68.3-25.7-4.2-.3-8.6-.3-13.2-.1-9,.4-18.7,1.8-28.9,4.4-7.9,20.7-14.3,42.5-18.9,64.7,49-29.2,81.3-14.3,96.5-2.2Z" class="st2"/>
      <path d="M116.9,487.4c57.9,46,108.6-1.8,130.2-22.2,7-6.6,17.1-14.4,25-14,11.8.6,28.5,19.9,39.6,32.7,4.8,5.6,10.4,10.2,16.6,13.9,15.8-11.6,29.9-25.6,41.8-41.9-6,.3-13.7-.6-18.6-6.3-17.9-20.7-42.4-49.1-76.6-50.8-21.5-1.1-42.4,8.1-63.6,28.2-33.8,31.8-45.8,31.7-61.5,19.2-13.4-10.6-54.8-37.4-113.8-20.5,8.7,17.6,19.6,33.4,32.2,47.1,23-1.8,39.4,6.9,49,14.5Z" class="st5"/>
    </g>
  </g>
</svg>