<svg version="1.1" xmlns="http://www.w3.org/2000/svg" xmlns:xlink="http://www.w3.org/1999/xlink" width="540" height="960" viewBox="0,0,540,960"><defs><clipPath id="clip-1"><rect x="-180" y="-320" transform="scale(0.5,0.5)" width="1080" height="1920" fill="none" stroke-width="0.5"/></clipPath></defs><g transform="translate(90,160)"><g clip-path="url(#clip-1)" stroke="none" stroke-miterlimit="10"><path d="M379.8,363.95c0,129.5 -89.5,215.7 -199.9,215.7c-110.4,0 -199.8,-86.2 -199.8,-215.7c0,-129.5 89.5,-303.6 199.9,-303.6c110.4,0 199.9,162.5 199.9,303.6z" fill="#f38ebb" stroke-width="1"/><g stroke-width="1"><path d="M163.9,196.15c-57,0 -110.9,-7.3 -134.6,-23.4c0.9,-1.8 1.9,-3.6 2.9,-5.3c46.9,34 230.8,28.2 293.1,-1.6c1,1.8 2.1,3.5 3.1,5.3c-33.2,15.9 -107.5,25 -164.5,25z" fill="#fbd83c"/><path d="M164.4,176.55c-50.7,0 -99,-5.9 -126.3,-18.8c1.5,-2.4 3.1,-4.8 4.7,-7.2c54.9,25.8 205.2,21.2 271,-2.9c1.7,2.4 3.3,5 4.9,7.5c-36.1,13.7 -103.6,21.4 -154.3,21.4z" fill="#feeef0"/><path d="M160.1,486.35c-7.8,0 -15.5,-0.2 -23,-0.6c-65.2,-3.6 -116.4,-20.9 -146.4,-48.6c-1.2,-4 -2.3,-8.1 -3.3,-12.2c27.2,31.1 80.3,50.7 150.1,54.6c103.6,5.8 205.7,-25.4 238.9,-72.5c-0.8,4.3 -1.6,8.6 -2.5,12.8c-40.8,44.5 -133.6,66.4 -213.8,66.4z" fill="#fbd83c"/><path d="M159.9,511.45c-7.8,0 -15.5,-0.2 -23,-0.6c-55,-3 -100.1,-15.9 -131.1,-36.4c-2.8,-5.4 -5.4,-11 -7.8,-16.8c29,25.3 77.7,41.1 139.5,44.5c97.3,5.4 193.2,-21.8 231.5,-64.1c-1.9,6.2 -4.1,12.3 -6.5,18.2c-45.5,37 -129.3,55.3 -202.5,55.3z" fill="#feeef0"/><path d="M195.7,325.65c-3.3,-5.9 -9.3,-9.9 -16.4,-10.4c-0.4,-19.1 10.3,-52.2 36.3,-41.3c21.4,8.9 19.6,33.3 1,41.8c-10.5,4.8 -17.1,8 -21,9.9z" fill="#fbd83c"/><path d="M159,328.25c-34.2,-7.6 -50.3,-42.3 -21.7,-56.6c33.7,-16.8 39.5,22.7 40.4,43.5c-8.6,0.1 -15.8,5.5 -18.7,13.1z" fill="#fbd83c"/><path d="M198.2,335.45c0,-3 -0.7,-5.8 -1.8,-8.3c22.1,-12.7 54.1,-16.8 56,6.6c1.9,23.1 -38.5,24.7 -57.4,12.6c2,-3.2 3.2,-7.9 3.2,-10.9z" fill="#fbd83c"/><path d="M193.7,347.85c20.3,5.1 60.9,28.4 28.3,49.4c-31.8,20.4 -44.5,-21.7 -41.3,-41.9c5.3,-0.8 9.8,-3.5 13,-7.5z" fill="#fbd83c"/><path d="M177.9,355.65c0.4,0 0.8,-0.1 1.2,-0.1c-0.7,19 1.8,56.9 -30.7,42.1c-31.2,-14.2 -6.1,-40.9 15.8,-47.4c3.6,3.3 8.4,5.4 13.7,5.4z" fill="#fbd83c"/><path d="M161.4,347.35c-24.2,21.9 -68.9,22.5 -64.3,-12c4.5,-33.6 37.5,-15.2 61.4,-5.7c-0.5,1.9 -0.9,1.4 -0.9,5.8c0,4.4 1.5,8.5 3.9,11.8z" fill="#fbd83c"/><path d="M157.6,335.45c0,-2 0.3,-4 0.9,-5.8c0.1,-0.5 0.2,-0.9 0.4,-1.4c2.9,-7.6 10.1,-13.1 18.7,-13.1c0.1,0 -0.2,0 0.2,0c0.4,0 0.9,0.1 1.3,0.1c7.1,0.5 13.1,4.5 16.4,10.4c0.3,0.4 0.6,0.9 0.8,1.4c1.1,2.5 1.8,4.3 1.8,8.3c0,4 -1.2,7.7 -3.2,10.9c-0.4,0.6 -0.8,1.1 -1.2,1.6c-3.1,4 -7.7,6.8 -13,7.5c-0.5,0.2 -1.1,0.2 -1.6,0.2c-0.4,0.1 4.1,0.1 -1.2,0.1c-5.3,0 -10.1,-2.1 -13.7,-5.4c-1,-0.9 -1.9,-1.9 -2.7,-3c-2.4,-3.3 -3.9,-7.4 -3.9,-11.8z" fill="#f2f2f2"/><path d="M355.3,294.95c3.7,-4.3 9.2,-8.9 15.3,-12.3c2.5,11.4 4.5,22.8 6,34.2c-7.9,-2.5 -13.3,-4 -16.6,-5c1.3,-5.9 -0.2,-12.2 -4.7,-16.8z" fill="#fbd83c"/><path d="M334,291.65c-18.4,-25.7 -8.1,-58.7 19.6,-51c2.3,0.6 4.3,1.4 6.1,2.2c3.2,9.8 6,19.7 8.5,29.8c-3.5,8.1 -9.3,15.9 -13.9,21.5c-5.8,-5.2 -13.9,-5.9 -20.4,-2.6z" fill="#fbd83c"/><path d="M359.6,313.35c5.9,1.3 11.9,3.3 17.3,6c1.6,12.6 2.5,25.2 2.8,37.7c-13.2,-1.6 -28.7,-17.6 -32.6,-31.7c3.2,-0.8 6.3,-2.6 8.7,-5.3c1.8,-2 3,-4.3 3.8,-6.7z" fill="#fbd83c"/><path d="M345.3,325.75c10.5,15.6 23.6,55.8 -10.9,50.1c-33.6,-5.5 -16.6,-41.4 -2.3,-53c3.9,2.7 8.7,3.7 13.2,2.9z" fill="#fbd83c"/><path d="M330,321.35c0.3,0.3 0.6,0.5 0.9,0.7c-11.9,12.2 -33.2,39.2 -46,9.6c-12.4,-28.5 20.6,-31.1 39.2,-22.2c0.4,4.4 2.4,8.7 5.9,11.9z" fill="#fbd83c"/><path d="M328.7,295.45c-2.7,3 -4.2,6.6 -4.6,10.3c-29.4,0 -59.7,-26.6 -35.8,-46.9c23.3,-19.7 34.2,12.5 44.5,33.3c-1.5,0.9 -2.9,1.9 -4.1,3.3z" fill="#fbd83c"/><path d="M359.6,313.55c-0.8,2.4 -2,4.7 -3.8,6.7c-2.4,2.6 -5.4,4.4 -8.7,5.3c-0.6,0.1 -1.2,0.2 -1.8,0.3c-4.5,0.7 -9.2,-0.2 -13.2,-2.9c-0.4,-0.3 -0.8,-0.6 -1.2,-0.9c-0.3,-0.3 -0.6,-0.4 -0.9,-0.7c-3.5,-3.2 -5.5,-7.5 -5.9,-11.9c-0.1,-1.2 -0.1,-2.4 0,-3.6c0.4,-3.7 1.9,-7.3 4.6,-10.3c1.2,-1.3 2.6,-2.4 4.1,-3.3c0.3,-0.3 0.7,-0.5 1.1,-0.7c6.5,-3.3 14.6,-2.5 20.4,2.6c0.1,0.1 0.1,0.1 0.1,0.1c0.3,0.3 0.5,0.6 0.8,0.9c4.5,4.5 6.1,10.9 4.7,16.8c-0.1,0.4 -0.1,0.9 -0.3,1.4z" fill="#f2f2f2"/><path d="M26.1,312.05c11.3,-13 38.4,-28.7 49.3,-5.7c8.9,18.9 -7,34.2 -24.6,28.6c-9.9,-3.2 -16.2,-5 -20,-6.1c1.3,-5.9 -0.2,-12.2 -4.7,-16.8z" fill="#fbd83c"/><path d="M25.2,311.15c-5.8,-5.2 -13.9,-5.9 -20.4,-2.6c-18.4,-25.7 -8.1,-58.7 19.6,-51c32.8,9.1 12.7,39 0.8,53.5z" fill="#fbd83c"/><path d="M18,342.35c3.2,-0.8 6.3,-2.6 8.7,-5.3c1.8,-2 3,-4.3 3.8,-6.7c22.4,4.8 46.4,21.4 33.5,38.2c-12.8,16.6 -40.7,-6.6 -46.1,-26.2z" fill="#fbd83c"/><path d="M16.1,342.75c10.5,15.6 23.6,55.8 -10.9,50.1c-33.6,-5.5 -16.6,-41.4 -2.3,-53c3.9,2.7 8.7,3.7 13.2,2.9z" fill="#fbd83c"/><path d="M-19.8,358.75c0.2,-12.1 0.9,-24.2 2.2,-36.2c4.4,0.7 8.7,2 12.5,3.8c0.4,4.4 2.4,8.7 5.9,11.9c0.3,0.3 0.6,0.5 0.9,0.7c-5.7,5.8 -13.5,15 -21.5,19.8z" fill="#fbd83c"/><path d="M-0.4,312.55c-2.7,3 -4.2,6.6 -4.6,10.3c-4.2,0 -8.4,-0.5 -12.4,-1.5c1.5,-13.5 3.7,-27 6.5,-40.2c5.6,8.1 10.1,19.1 14.5,28c-1.5,0.9 -2.9,1.9 -4.1,3.3z" fill="#fbd83c"/><path d="M-5.1,322.95c0.4,-3.7 1.9,-7.3 4.6,-10.3c1.2,-1.3 2.6,-2.4 4.1,-3.3c0.3,-0.3 0.7,-0.5 1.1,-0.7c6.5,-3.3 14.6,-2.5 20.4,2.6c0.1,0.1 0.1,0.1 0.1,0.1c0.3,0.3 0.5,0.6 0.8,0.9c4.5,4.5 6.1,10.9 4.7,16.8c-0.1,0.4 -0.1,0.9 -0.3,1.4c-0.8,2.4 -2,4.7 -3.8,6.7c-2.4,2.6 -5.4,4.4 -8.7,5.3c-0.6,0.1 -1.2,0.2 -1.8,0.3c-4.5,0.7 -9.2,-0.2 -13.2,-2.9c-0.4,-0.3 -0.8,-0.6 -1.2,-0.9c-0.3,-0.3 -0.6,-0.4 -0.9,-0.7c-3.5,-3.2 -5.5,-7.5 -5.9,-11.9c-0.1,-1.2 -0.1,-2.4 0,-3.6z" fill="#f2f2f2"/></g></g></g></svg>