<svg xmlns:xlink="http://www.w3.org/1999/xlink" xmlns="http://www.w3.org/2000/svg" viewBox="0 0 421.6 546.6" version="1.1" id="Layer_1">
  
  <defs>
    <style>
      .st0 {
        fill: none;
      }

      .st1 {
        fill: #f38ebb;
      }

      .st2 {
        fill: #fee554;
      }

      .st3 {
        clip-path: url(#clippath);
      }
    </style>
    <clipPath id="clippath">
      <path d="M411.8,319.5c0,129.5-89.5,215.7-199.9,215.7S12.1,449,12.1,319.5,101.6,15.9,212,15.9s199.9,162.5,199.9,303.6Z" class="st0"/>
    </clipPath>
  </defs>
  <g class="st3">
    <path d="M411.8,319.5c0,129.5-89.5,215.7-199.9,215.7S12.1,449,12.1,319.5,101.6,15.9,212,15.9s199.9,162.5,199.9,303.6Z" class="st2"/>
    <g>
      <path d="M130.6,330.6c-25.2-10.1-55,5-66.6,33.8-11.6,28.8-.7,60.4,24.5,70.6,25.2,10.1,55-5,66.6-33.8s.7-60.4-24.5-70.6Z" class="st1"/>
      <ellipse ry="59.5" rx="49.1" cy="358.6" cx="295.4" class="st1"/>
      <path d="M122.7,185.5c26,7.6,53.8-8.8,62-36.8,8.2-27.9-6.2-56.8-32.2-64.4s-53.8,8.8-62,36.8c-8.2,27.9,6.2,56.8,32.2,64.4Z" class="st1"/>
      <path d="M340.8,221.1c25.6-8.9,38.6-38.3,29.1-65.6-9.5-27.3-38-42.1-63.6-33.2-25.6,8.9-38.6,38.3-29.1,65.6,9.5,27.3,38,42.1,63.6,33.2Z" class="st1"/>
      <path d="M175.8,255.5c-4.9,16.6,2.3,33.3,15.9,37.3,13.7,4,28.7-6.2,33.6-22.7,4.9-16.6-2.3-33.3-15.9-37.3-13.7-4-28.7,6.2-33.6,22.7Z" class="st1"/>
      <path d="M48,254.5c4.1-21.5-3.9-41-17.9-43.7-.8-.2-1.6-.2-2.4-.3-7.1,25.1-11.9,51.3-14.1,77.5.6.2,1.1.3,1.7.5,14,2.7,28.7-12.5,32.8-34Z" class="st1"/>
      <path d="M325.8,458.9c-15.4,15.4-19.8,36.1-9.7,46.2.2.2.5.3.7.5,22.1-13.9,41.3-32.3,56.6-54.6-.5-.6-.8-1.3-1.4-1.9-10.1-10.1-30.8-5.7-46.2,9.7Z" class="st1"/>
      <path d="M212.6,459.9c-15.3-8.1-33-4.4-39.7,8.2-6.7,12.6.3,29.3,15.6,37.4,15.3,8.1,33,4.4,39.7-8.2,6.7-12.6-.3-29.3-15.6-37.4Z" class="st1"/>
    </g>
  </g>
</svg>