<svg xmlns:xlink="http://www.w3.org/1999/xlink" xmlns="http://www.w3.org/2000/svg" viewBox="0 0 421.6 546.6" version="1.1" id="Layer_1">
  
  <defs>
    <style>
      .st0 {
        fill: #eb7d9a;
      }

      .st1 {
        fill: none;
      }

      .st2 {
        fill: #e6e7ef;
      }

      .st3 {
        fill: #fed249;
      }

      .st4 {
        clip-path: url(#clippath);
      }
    </style>
    <clipPath id="clippath">
      <path d="M411.8,319.5c0,129.5-89.5,215.7-199.9,215.7S12.1,449,12.1,319.5,101.6,15.9,212,15.9s199.9,162.5,199.9,303.6Z" class="st1"/>
    </clipPath>
  </defs>
  <g class="st4">
    <path d="M411.8,319.5c0,129.5-89.5,215.7-199.9,215.7S12.1,449,12.1,319.5,101.6,15.9,212,15.9s199.9,162.5,199.9,303.6Z" class="st3"/>
    <g>
      <path d="M411.8,319.5c0-44.8-9-91.7-24.8-134.8H35.9c-6.7,18.9-12.1,38.5-16.1,58.6.2-.4.3-.9.7-1.2,3.6-3.6,15.1,2,25.6,12.5,10.5,10.5,16.1,22,12.5,25.6-3.6,3.6-15.1-2-25.6-12.5-8.5-8.5-13.7-17.6-13.5-22.7-4.8,24.6-7.3,49.7-7.3,74.5s2.6,42.5,7.4,61.7h384.9c4.8-19.2,7.4-39.8,7.4-61.7ZM398.2,242.2c3.6,3.6-2,15.1-12.5,25.6-10.5,10.5-22,16.1-25.6,12.5-3.6-3.6,2-15.1,12.5-25.6,10.5-10.5,22-16.1,25.6-12.5ZM394.8,288.2l-2.7.6c-3.5.8-6.2,3.5-7,7l-.6,2.7-.6-2.7c-.8-3.5-3.5-6.2-7-7l-2.7-.6,2.7-.6c3.5-.8,6.2-3.5,7-7l.6-2.7.6,2.7c.8,3.5,3.5,6.2,7,7l2.7.6ZM358.6,294.6c-3.5,3.5-9.3,3.5-12.8,0-3.5-3.5-3.5-9.3,0-12.8,3.5-3.5,9.3-3.5,12.8,0,3.5,3.5,3.5,9.3,0,12.8ZM344.6,255.2c3.5-.8,6.2-3.5,7-7l.6-2.7.6,2.7c.8,3.5,3.5,6.2,7,7l2.7.6-2.7.6c-3.5.8-6.2,3.5-7,7l-.6,2.7-.6-2.7c-.8-3.5-3.5-6.2-7-7l-2.7-.6,2.7-.6ZM306.1,242.1c3.6-3.6,15.1,2,25.6,12.5,10.5,10.5,16.1,22,12.5,25.6-3.6,3.6-15.1-2-25.6-12.5-10.5-10.5-16.1-22-12.5-25.6ZM330.1,288.2l-2.7.6c-3.5.8-6.2,3.5-7,7l-.6,2.7-.6-2.7c-.8-3.5-3.5-6.2-7-7l-2.7-.6,2.7-.6c3.5-.8,6.2-3.5,7-7l.6-2.7.6,2.7c.8,3.5,3.5,6.2,7,7l2.7.6ZM199.4,255.2c3.5-.8,6.2-3.5,7-7l.6-2.7.6,2.7c.8,3.5,3.5,6.2,7,7l2.7.6-2.7.6c-3.5.8-6.2,3.5-7,7l-.6,2.7-.6-2.7c-.8-3.5-3.5-6.2-7-7l-2.7-.6,2.7-.6ZM213.4,281.8c3.5,3.5,3.5,9.3,0,12.8-3.5,3.5-9.3,3.5-12.8,0-3.5-3.5-3.5-9.3,0-12.8,3.5-3.5,9.3-3.5,12.8,0ZM160.9,242.1c3.6-3.6,15.1,2,25.6,12.5,10.5,10.5,16.1,22,12.5,25.6s-15.1-2-25.6-12.5c-10.5-10.5-16.1-22-12.5-25.6ZM184.9,288.2l-2.7.6c-3.5.8-6.2,3.5-7,7l-.6,2.7-.6-2.7c-.8-3.5-3.5-6.2-7-7l-2.7-.6,2.7-.6c3.5-.8,6.2-3.5,7-7l.6-2.7.6,2.7c.8,3.5,3.5,6.2,7,7l2.7.6ZM59,256.5l-2.7-.6,2.7-.6c3.5-.8,6.2-3.5,7-7l.6-2.7.6,2.7c.8,3.5,3.5,6.2,7,7l2.7.6-2.7.6c-3.5.8-6.2,3.5-7,7l-.6,2.7-.6-2.7c-.8-3.5-3.5-6.2-7-7ZM60.2,281.8c3.5-3.5,9.3-3.5,12.8,0,3.5,3.5,3.5,9.3,0,12.8-3.5,3.5-9.3,3.5-12.8,0-3.5-3.5-3.5-9.3,0-12.8ZM26.6,287.6c3.5-.8,6.2-3.5,7-7l.6-2.7.6,2.7c.8,3.5,3.5,6.2,7,7l2.7.6-2.7.6c-3.5.8-6.2,3.5-7,7l-.6,2.7-.6-2.7c-.8-3.5-3.5-6.2-7-7l-2.7-.6,2.7-.6ZM20.3,334.2c-3.6-3.6,2-15.1,12.5-25.6,10.5-10.5,22-16.1,25.6-12.5,3.6,3.6-2,15.1-12.5,25.6-10.5,10.5-22,16.1-25.6,12.5ZM74.2,321.2c-3.5.8-6.2,3.5-7,7l-.6,2.7-.6-2.7c-.8-3.5-3.5-6.2-7-7l-2.7-.6,2.7-.6c3.5-.8,6.2-3.5,7-7l.6-2.7.6,2.7c.8,3.5,3.5,6.2,7,7l2.7.6-2.7.6ZM112.5,334.3c-3.6,3.6-15.1-2-25.6-12.5-10.5-10.5-16.1-22-12.5-25.6,3.6-3.6,15.1,2,25.6,12.5,10.5,10.5,16.1,22,12.5,25.6ZM88.7,288.2l2.7-.6c3.5-.8,6.2-3.5,7-7l.6-2.7.6,2.7c.8,3.5,3.5,6.2,7,7l2.7.6-2.7.6c-3.5.8-6.2,3.5-7,7l-.6,2.7-.6-2.7c-.8-3.5-3.5-6.2-7-7l-2.7-.6ZM100.1,267.9c-10.5,10.5-22,16.1-25.6,12.5s2-15.1,12.5-25.6c10.5-10.5,22-16.1,25.6-12.5s-2,15.1-12.5,25.6ZM160.7,334.2c-3.6-3.6,2-15.1,12.5-25.6,10.5-10.5,22-16.1,25.6-12.5s-2,15.1-12.5,25.6c-10.5,10.5-22,16.1-25.6,12.5ZM214.6,321.2c-3.5.8-6.2,3.5-7,7l-.6,2.7-.6-2.7c-.8-3.5-3.5-6.2-7-7l-2.7-.6,2.7-.6c3.5-.8,6.2-3.5,7-7l.6-2.7.6,2.7c.8,3.5,3.5,6.2,7,7l2.7.6-2.7.6ZM252.9,334.3c-3.6,3.6-15.1-2-25.6-12.5-10.5-10.5-16.1-22-12.5-25.6,3.6-3.6,15.1,2,25.6,12.5s16.1,22,12.5,25.6ZM229.1,288.2l2.7-.6c3.5-.8,6.2-3.5,7-7l.6-2.7.6,2.7c.8,3.5,3.5,6.2,7,7l2.7.6-2.7.6c-3.5.8-6.2,3.5-7,7l-.6,2.7-.6-2.7c-.8-3.5-3.5-6.2-7-7l-2.7-.6ZM240.5,267.9c-10.5,10.5-22,16.1-25.6,12.5s2-15.1,12.5-25.6c10.5-10.5,22-16.1,25.6-12.5s-2,15.1-12.5,25.6ZM306,334.2c-3.6-3.6,2-15.1,12.5-25.6,10.5-10.5,22-16.1,25.6-12.5,3.6,3.6-2,15.1-12.5,25.6-10.5,10.5-22,16.1-25.6,12.5ZM359.8,321.2c-3.5.8-6.2,3.5-7,7l-.6,2.7-.6-2.7c-.8-3.5-3.5-6.2-7-7l-2.7-.6,2.7-.6c3.5-.8,6.2-3.5,7-7l.6-2.7.6,2.7c.8,3.5,3.5,6.2,7,7l2.7.6-2.7.6ZM398.1,334.3c-3.6,3.6-15.1-2-25.6-12.5-10.5-10.5-16.1-22-12.5-25.6s15.1,2,25.6,12.5c10.5,10.5,16.1,22,12.5,25.6Z" class="st2"/>
      <path d="M200.6,281.8c-3.5,3.5-3.5,9.3,0,12.8,3.5,3.5,9.3,3.5,12.8,0,3.5-3.5,3.5-9.3,0-12.8-3.5-3.5-9.3-3.5-12.8,0Z" class="st0"/>
      <path d="M227.3,254.7c-10.5,10.5-16.1,22-12.5,25.6s15.1-2,25.6-12.5c10.5-10.5,16.1-22,12.5-25.6s-15.1,2-25.6,12.5Z" class="st0"/>
      <path d="M199,280.2c3.6-3.6-2-15.1-12.5-25.6-10.5-10.5-22-16.1-25.6-12.5-3.6,3.6,2,15.1,12.5,25.6,10.5,10.5,22,16.1,25.6,12.5Z" class="st0"/>
      <path d="M198.9,296c-3.6-3.6-15.1,2-25.6,12.5-10.5,10.5-16.1,22-12.5,25.6,3.6,3.6,15.1-2,25.6-12.5,10.5-10.5,16.1-22,12.5-25.6Z" class="st0"/>
      <path d="M214.7,296.2c-3.6,3.6,2,15.1,12.5,25.6,10.5,10.5,22,16.1,25.6,12.5s-2-15.1-12.5-25.6-22-16.1-25.6-12.5Z" class="st0"/>
      <path d="M206.3,263.4l.6,2.7.6-2.7c.8-3.5,3.5-6.2,7-7l2.7-.6-2.7-.6c-3.5-.8-6.2-3.5-7-7l-.6-2.7-.6,2.7c-.8,3.5-3.5,6.2-7,7l-2.7.6,2.7.6c3.5.8,6.2,3.5,7,7Z" class="st0"/>
      <path d="M207.6,313l-.6-2.7-.6,2.7c-.8,3.5-3.5,6.2-7,7l-2.7.6,2.7.6c3.5.8,6.2,3.5,7,7l.6,2.7.6-2.7c.8-3.5,3.5-6.2,7-7l2.7-.6-2.7-.6c-3.5-.8-6.2-3.5-7-7Z" class="st0"/>
      <path d="M238.7,295.8l.6,2.7.6-2.7c.8-3.5,3.5-6.2,7-7l2.7-.6-2.7-.6c-3.5-.8-6.2-3.5-7-7l-.6-2.7-.6,2.7c-.8,3.5-3.5,6.2-7,7l-2.7.6,2.7.6c3.5.8,6.2,3.5,7,7Z" class="st0"/>
      <path d="M175.2,280.6l-.6-2.7-.6,2.7c-.8,3.5-3.5,6.2-7,7l-2.7.6,2.7.6c3.5.8,6.2,3.5,7,7l.6,2.7.6-2.7c.8-3.5,3.5-6.2,7-7l2.7-.6-2.7-.6c-3.5-.8-6.2-3.5-7-7Z" class="st0"/>
      <path d="M345.8,281.8c-3.5,3.5-3.5,9.3,0,12.8,3.5,3.5,9.3,3.5,12.8,0,3.5-3.5,3.5-9.3,0-12.8-3.5-3.5-9.3-3.5-12.8,0Z" class="st0"/>
      <path d="M360.1,280.4c3.6,3.6,15.1-2,25.6-12.5,10.5-10.5,16.1-22,12.5-25.6-3.6-3.6-15.1,2-25.6,12.5-10.5,10.5-16.1,22-12.5,25.6Z" class="st0"/>
      <path d="M344.3,280.2c3.6-3.6-2-15.1-12.5-25.6-10.5-10.5-22-16.1-25.6-12.5-3.6,3.6,2,15.1,12.5,25.6,10.5,10.5,22,16.1,25.6,12.5Z" class="st0"/>
      <path d="M344.1,296c-3.6-3.6-15.1,2-25.6,12.5-10.5,10.5-16.1,22-12.5,25.6s15.1-2,25.6-12.5c10.5-10.5,16.1-22,12.5-25.6Z" class="st0"/>
      <path d="M359.9,296.2c-3.6,3.6,2,15.1,12.5,25.6,10.5,10.5,22,16.1,25.6,12.5,3.6-3.6-2-15.1-12.5-25.6-10.5-10.5-22-16.1-25.6-12.5Z" class="st0"/>
      <path d="M351.6,263.4l.6,2.7.6-2.7c.8-3.5,3.5-6.2,7-7l2.7-.6-2.7-.6c-3.5-.8-6.2-3.5-7-7l-.6-2.7-.6,2.7c-.8,3.5-3.5,6.2-7,7l-2.7.6,2.7.6c3.5.8,6.2,3.5,7,7Z" class="st0"/>
      <path d="M352.8,313l-.6-2.7-.6,2.7c-.8,3.5-3.5,6.2-7,7l-2.7.6,2.7.6c3.5.8,6.2,3.5,7,7l.6,2.7.6-2.7c.8-3.5,3.5-6.2,7-7l2.7-.6-2.7-.6c-3.5-.8-6.2-3.5-7-7Z" class="st0"/>
      <path d="M385.2,280.6l-.6-2.7-.6,2.7c-.8,3.5-3.5,6.2-7,7l-2.7.6,2.7.6c3.5.8,6.2,3.5,7,7l.6,2.7.6-2.7c.8-3.5,3.5-6.2,7-7l2.7-.6-2.7-.6c-3.5-.8-6.2-3.5-7-7Z" class="st0"/>
      <path d="M320.4,280.6l-.6-2.7-.6,2.7c-.8,3.5-3.5,6.2-7,7l-2.7.6,2.7.6c3.5.8,6.2,3.5,7,7l.6,2.7.6-2.7c.8-3.5,3.5-6.2,7-7l2.7-.6-2.7-.6c-3.5-.8-6.2-3.5-7-7Z" class="st0"/>
      <path d="M73,294.6c3.5-3.5,3.5-9.3,0-12.8-3.5-3.5-9.3-3.5-12.8,0-3.5,3.5-3.5,9.3,0,12.8,3.5,3.5,9.3,3.5,12.8,0Z" class="st0"/>
      <path d="M87,254.7c-10.5,10.5-16.1,22-12.5,25.6s15.1-2,25.6-12.5c10.5-10.5,16.1-22,12.5-25.6s-15.1,2-25.6,12.5Z" class="st0"/>
      <path d="M33,267.7c10.5,10.5,22,16.1,25.6,12.5,3.6-3.6-2-15.1-12.5-25.6-10.5-10.5-22-16.1-25.6-12.5s-.5.8-.7,1.2c-.1.6-.2,1.1-.3,1.7-.2,5.1,5,14.2,13.5,22.7Z" class="st0"/>
      <path d="M58.5,296c-3.6-3.6-15.1,2-25.6,12.5-10.5,10.5-16.1,22-12.5,25.6,3.6,3.6,15.1-2,25.6-12.5,10.5-10.5,16.1-22,12.5-25.6Z" class="st0"/>
      <path d="M74.3,296.2c-3.6,3.6,2,15.1,12.5,25.6,10.5,10.5,22,16.1,25.6,12.5,3.6-3.6-2-15.1-12.5-25.6-10.5-10.5-22-16.1-25.6-12.5Z" class="st0"/>
      <path d="M65.9,263.4l.6,2.7.6-2.7c.8-3.5,3.5-6.2,7-7l2.7-.6-2.7-.6c-3.5-.8-6.2-3.5-7-7l-.6-2.7-.6,2.7c-.8,3.5-3.5,6.2-7,7l-2.7.6,2.7.6c3.5.8,6.2,3.5,7,7Z" class="st0"/>
      <path d="M67.2,313l-.6-2.7-.6,2.7c-.8,3.5-3.5,6.2-7,7l-2.7.6,2.7.6c3.5.8,6.2,3.5,7,7l.6,2.7.6-2.7c.8-3.5,3.5-6.2,7-7l2.7-.6-2.7-.6c-3.5-.8-6.2-3.5-7-7Z" class="st0"/>
      <path d="M98.3,295.8l.6,2.7.6-2.7c.8-3.5,3.5-6.2,7-7l2.7-.6-2.7-.6c-3.5-.8-6.2-3.5-7-7l-.6-2.7-.6,2.7c-.8,3.5-3.5,6.2-7,7l-2.7.6,2.7.6c3.5.8,6.2,3.5,7,7Z" class="st0"/>
      <path d="M33.6,295.8l.6,2.7.6-2.7c.8-3.5,3.5-6.2,7-7l2.7-.6-2.7-.6c-3.5-.8-6.2-3.5-7-7l-.6-2.7-.6,2.7c-.8,3.5-3.5,6.2-7,7l-2.7.6,2.7.6c3.5.8,6.2,3.5,7,7Z" class="st0"/>
      <path d="M378.3,162.7H44.5c-.9,2-1.7,4.1-2.6,6.2h338.9c-.9-2.1-1.7-4.1-2.6-6.2Z" class="st2"/>
      <path d="M400.4,395.4H23.5c.7,2.1,1.4,4.1,2.1,6.2h372.8c.7-2,1.4-4.1,2.1-6.2Z" class="st2"/>
    </g>
  </g>
</svg>