<svg xmlns:xlink="http://www.w3.org/1999/xlink" xmlns="http://www.w3.org/2000/svg" viewBox="0 0 421.6 546.6" version="1.1" id="Layer_1">
  
  <defs>
    <style>
      .st0 {
        fill: #70ccd8;
      }

      .st1 {
        fill: #fff;
      }

      .st2 {
        fill: #5784c4;
      }

      .st3 {
        fill: none;
      }

      .st4 {
        fill: #feeef0;
      }

      .st5 {
        fill: #fee554;
      }

      .st6 {
        fill: #f6b2d0;
      }

      .st7 {
        clip-path: url(#clippath);
      }
    </style>
    <clipPath id="clippath">
      <path d="M411.8,319.5c0,129.5-89.5,215.7-199.9,215.7S12.1,449,12.1,319.5,101.6,15.9,212,15.9s199.9,162.5,199.9,303.6Z" class="st3"/>
    </clipPath>
  </defs>
  <g class="st7">
    <path d="M411.8,319.5c0,129.5-89.5,215.7-199.9,215.7S12.1,449,12.1,319.5,101.6,15.9,212,15.9s199.9,162.5,199.9,303.6Z" class="st2"/>
    <g>
      <path d="M177.9,223.3c73.1,0,152.9-11.1,210.9-33.5-1-2.8-2-5.5-3-8.3-67.5,26.1-170.1,39-264.8,30.6-34.2-3.1-64.1-8.7-88.8-16.6-.9,2.7-1.7,5.5-2.6,8.3,25.4,8.1,55.9,13.9,90.6,17.1,18.4,1.6,37.8,2.5,57.7,2.5Z" class="st4"/>
      <path d="M344.1,100.8c-1.8-2.5-3.5-5-5.3-7.5-66.2,21.1-200,25.2-257.4,3.3-1.7,2.3-3.4,4.7-5,7.1,28.1,11,73,16.1,120,16.1s111-6.8,147.7-19Z" class="st4"/>
      <path d="M176.3,424.7c83.4,0,182.6-20.8,230.8-55.1,1.7-8.6,3-17.5,3.8-26.6-31.6,37.2-149.5,67.7-251.5,63.9-74.9-2.8-126.3-22.8-145.4-56.3,1.4,11.7,3.5,23,6.4,33.8,29,23.7,76.5,37.7,138.4,40,5.8.2,11.6.3,17.6.3Z" class="st0"/>
      <path d="M192,467.1c73.2,0,157-18.2,202.5-55.3,2.4-5.9,4.6-12,6.5-18.2-38.3,42.3-134.2,69.5-231.5,64.1-61.8-3.4-110.5-19.2-139.5-44.5,2.4,5.8,5,11.4,7.8,16.8,31,20.5,76.1,33.4,131.1,36.4,7.5.4,15.2.6,23,.6Z" class="st4"/>
      <path d="M212,197.9c5.3,0,9.6-4.3,9.6-9.6s-4.3-9.6-9.6-9.6-9.6,4.3-9.6,9.6,4.3,9.6,9.6,9.6Z" class="st1"/>
      <path d="M254.1,194.7c5.3,0,9.6-4.3,9.6-9.6s-4.3-9.6-9.6-9.6-9.6,4.3-9.6,9.6,4.3,9.6,9.6,9.6Z" class="st1"/>
      <path d="M301.2,188.2c5.2-1,8.6-6,7.6-11.2-1-5.2-6-8.6-11.2-7.6-5.2,1-8.6,6-7.6,11.2,1,5.2,6,8.6,11.2,7.6Z" class="st1"/>
      <path d="M160.7,197.6c5.2-1,8.6-6,7.6-11.2-1-5.2-6-8.6-11.2-7.6-5.2,1-8.6,6-7.6,11.2,1,5.2,6,8.6,11.2,7.6Z" class="st1"/>
      <path d="M121.1,182.7c-1-5.2-6-8.6-11.2-7.6-5.2,1-8.6,6-7.6,11.2,1,5.2,6,8.6,11.2,7.6,5.2-1,8.6-6,7.6-11.2Z" class="st1"/>
      <path d="M69.7,166.9c-5.2,1-8.6,6-7.6,11.2,1,5.2,6,8.6,11.2,7.6,5.2-1,8.6-6,7.6-11.2-1-5.2-6-8.6-11.2-7.6Z" class="st1"/>
      <path d="M346.8,178c5.2-1,8.6-6,7.6-11.2-1-5.2-6-8.6-11.2-7.6-5.2,1-8.6,6-7.6,11.2,1,5.2,6,8.6,11.2,7.6Z" class="st1"/>
      <path d="M363.2,131.9c-2.8-5.1-5.7-10.1-8.6-15-50.3,25.7-242.6,26.2-287.1.8-3,4.9-5.8,9.9-8.6,15.1,26,14.4,83.9,20.9,143.4,20.9s132.8-7.9,161-21.7Z" class="st5"/>
      <path d="M189.3,316.1c76.7,0,162.2-13.7,219.2-44.8-.8-6.2-1.8-12.4-2.9-18.7-53.3,31.1-144.2,49.2-239.5,45.5-61.1-2.3-113.3-13.3-150.3-30.7-.8,6.1-1.5,12.2-2.1,18.4,38.7,17,90.7,27.5,151.7,29.8,7.8.3,15.8.5,23.9.5Z" class="st6"/>
    </g>
  </g>
</svg>