<svg version="1.1" xmlns="http://www.w3.org/2000/svg" xmlns:xlink="http://www.w3.org/1999/xlink" width="188.80911" height="115.43604" viewBox="0,0,188.80911,115.43604"><g transform="translate(-153.7354,-229.10152)"><g stroke-miterlimit="10"><g stroke="none" stroke-width="1" stroke-linecap="butt"><g fill="#ca842a"><path d="M178.93885,319.09238l-2.96375,15.82164l-4.65369,-17.02959z"/><path d="M166.33497,307.17661l-10.03937,-14.52203l14.01744,7.91486z"/></g><path d="M183.94248,289.34158c1.8542,-0.86347 4.05734,-0.06031 4.92057,1.79339l4.65774,10.00194l4.58368,9.84291c0.86324,1.8537 0.06008,4.05685 -1.79412,4.92032c0,0 -18.82431,20.1246 -20.33518,19.01401c0,0 1.36557,-14.14719 0.24533,-14.55526c-1.24506,-0.45556 -18.21234,-1.38725 -18.71357,-2.45017c-0.49192,-1.06848 9.64065,-14.81317 10.09412,-16.05909c0.40822,-1.12092 -11.29866,-9.18047 -11.29866,-9.18047c0.12251,-1.87076 27.64033,-3.32707 27.64009,-3.32757z" fill="#edb20f"/><g fill="#ffc50b"><path d="M157.50651,317.90815l36.01429,-16.77125l4.58368,9.84291c0.86324,1.8537 0.06008,4.05685 -1.79412,4.92032c0,0 -18.82431,20.1246 -20.33537,19.01395c0,0 1.36557,-14.14719 0.24533,-14.55526c-1.24506,-0.45556 -18.21234,-1.38724 -18.71357,-2.45015z"/><path d="M159.04573,321.21344c-1.78059,0.82919 -3.89622,0.05793 -4.7254,-1.72265c-0.82919,-1.78059 -0.05793,-3.89622 1.72265,-4.7254c1.78059,-0.82919 3.89623,-0.05793 4.72541,1.72265c0.82919,1.78059 0.05792,3.89622 -1.72266,4.72541z"/></g><path d="M183.92175,289.29705c1.8542,-0.86347 4.05734,-0.06032 4.92098,1.79426l9.26174,19.88849c0.86324,1.8537 0.06008,4.05685 -1.79412,4.92032c0,0 -4.06407,-7.52304 -6.64573,-13.06683c-2.58182,-5.54416 -5.74288,-13.53624 -5.74288,-13.53624z" fill="#b8972f"/><path d="M193.52141,301.13723l4.58344,9.84241c0.86324,1.8537 0.06008,4.05685 -1.79412,4.92032c0,0 -4.06407,-7.52304 -6.64573,-13.06683z" fill="#c4a12e"/><path d="M159.40044,320.30471c-0.30264,0.83015 -2.16034,0.93919 -2.99147,0.63579c-0.82978,-0.3028 -2.00618,-1.42371 -1.70341,-2.25392c0.30251,-0.83009 4.99779,0.78723 4.69489,1.61813z" fill="#f6e568"/><g fill="#ffc50b"><path d="M157.42528,294.65604c-1.17047,0.54507 -2.5612,0.03809 -3.10628,-1.1324c-0.54507,-1.17048 -0.03809,-2.5612 1.1324,-3.10628c1.17047,-0.54507 2.5612,-0.03809 3.10628,1.1324c0.54507,1.17048 0.03808,2.56121 -1.1324,3.10628z"/><path d="M157.66049,294.05767c-0.19933,0.54563 -1.42089,0.61774 -1.96666,0.41846c-0.54541,-0.19882 -1.3189,-0.93626 -1.12007,-1.48167c0.19916,-0.54633 3.28558,0.51657 3.08672,1.06321z"/><path d="M177.14192,336.99522c-1.17047,0.54507 -2.5612,0.03809 -3.10628,-1.1324c-0.54507,-1.17048 -0.03809,-2.5612 1.1324,-3.10628c1.17047,-0.54507 2.5612,-0.03809 3.10628,1.1324c0.54507,1.17048 0.03808,2.56121 -1.1324,3.10628z"/></g><path d="M177.37778,336.39822c-0.19933,0.54563 -1.42113,0.61722 -1.96666,0.41846c-0.54588,-0.19984 -1.3189,-0.93625 -1.12053,-1.48267c0.19952,-0.54557 3.28611,0.51769 3.08719,1.06421z" fill="#f6e568"/><path d="M176.40599,304.66244l8.26959,0.64496l-4.82798,6.74551l-8.26994,-0.64602z" fill="#a8213b"/><path d="M176.40599,304.66244l8.26959,0.64496l-4.82798,6.74551z" fill="#951d38"/><path d="M184.67559,305.3074l-4.82798,6.74551l-8.26994,-0.64602z" fill="#c0355a"/><path d="M184.67559,305.3074l-4.82798,6.74551l-1.72104,-3.69574z" fill="#b72d4c"/></g><g stroke="none" stroke-width="1" stroke-linecap="butt"><g fill="#ca842a"><path d="M170.11182,268.45628l-14.06557,7.82736l10.12858,-14.45946z"/><path d="M171.22723,251.14735l4.75882,-17.00093l2.86569,15.8405z"/></g><path d="M196.19681,253.29977c1.84884,0.87489 2.63839,3.08295 1.76374,4.93128l-4.71934,9.97302l-4.6443,9.81445c-0.87466,1.84834 -3.08272,2.6379 -4.93155,1.76301c0,0 -27.50838,-1.62589 -27.61916,-3.49775c0,0 11.75637,-7.9872 11.35466,-9.10974c-0.44492,-1.2489 -10.5675,-14.8977 -10.06996,-15.96236c0.50776,-1.06104 17.55519,-2.04631 18.80342,-2.49339c1.12315,-0.40203 -0.15514,-14.55736 -0.15514,-14.55736c1.51751,-1.10087 20.21739,19.13933 20.21763,19.13883z" fill="#edb20f"/><g fill="#ffc50b"><path d="M157.33106,251.211l35.91016,16.99308l-4.6443,9.81445c-0.87466,1.84834 -3.08272,2.6379 -4.93155,1.76301c0,0 -27.50838,-1.62589 -27.61923,-3.49793c0,0 11.75637,-7.9872 11.35466,-9.10974c-0.44492,-1.2489 -10.56752,-14.8977 -10.06998,-15.96235z"/><path d="M155.77148,254.50673c-1.77544,-0.84016 -2.53363,-2.9605 -1.69347,-4.73594c0.84016,-1.77544 2.9605,-2.53363 4.73594,-1.69347c1.77544,0.84016 2.53363,2.96052 1.69348,4.73595c-0.84016,1.77544 -2.96051,2.53362 -4.73595,1.69347z"/></g><path d="M196.21782,253.25537c1.84884,0.87489 2.63839,3.08294 1.76333,4.93215l-9.38424,19.83099c-0.87466,1.84834 -3.08272,2.6379 -4.93155,1.76301c0,0 3.19148,-7.93267 5.80727,-13.46043c2.61597,-5.52813 6.74519,-13.06572 6.74519,-13.06572z" fill="#b8972f"/><path d="M193.24135,268.20475l-4.64407,9.81395c-0.87466,1.84834 -3.08272,2.6379 -4.93155,1.76301c0,0 3.19148,-7.93267 5.80727,-13.46043z" fill="#c4a12e"/><path d="M156.69721,254.1991c-0.83201,0.2975 -2.10267,-1.06204 -2.40021,-1.89529c-0.29713,-0.83182 -0.18631,-2.45295 0.64582,-2.7504c0.83188,-0.29756 2.58714,4.34791 1.75439,4.64569z" fill="#f6e568"/><g fill="#ffc50b"><path d="M175.16794,236.29412c-1.16709,-0.55228 -1.6655,-1.9461 -1.11322,-3.1132c0.55228,-1.1671 1.9461,-1.6655 3.1132,-1.11322c1.16709,0.55228 1.6655,1.9461 1.11322,3.1132c-0.55228,1.1671 -1.94611,1.66549 -3.1132,1.11322z"/><path d="M175.77855,236.09282c-0.54712,0.19522 -1.38297,-0.69851 -1.57832,-1.2457c-0.19547,-0.54662 -0.12226,-1.6128 0.42437,-1.80827c0.54755,-0.19579 1.70155,2.85773 1.15396,3.05396z"/><path d="M155.19051,278.51088c-1.16709,-0.55228 -1.6655,-1.9461 -1.11322,-3.1132c0.55228,-1.1671 1.9461,-1.6655 3.1132,-1.11322c1.16709,0.55228 1.6655,1.9461 1.11322,3.1132c-0.55228,1.1671 -1.94611,1.66549 -3.1132,1.11322z"/></g><path d="M155.80048,278.31095c-0.54712,0.19522 -1.38273,-0.69902 -1.57832,-1.2457c-0.19499,-0.54763 -0.12227,-1.61279 0.42484,-1.80926c0.54719,-0.19504 1.70102,2.85885 1.15348,3.05496z" fill="#f6e568"/><path d="M179.59526,257.28922l4.78675,6.77415l-8.27389,0.59494l-4.78616,-6.7751z" fill="#a8213b"/><path d="M179.59526,257.28922l4.78675,6.77415l-8.27389,0.59494z" fill="#951d38"/><path d="M184.38202,264.06338l-8.27389,0.59494l-4.78616,-6.7751z" fill="#c0355a"/><path d="M184.38202,264.06338l-8.27389,0.59494l1.74381,-3.68505z" fill="#b72d4c"/></g><g><path d="M192.31608,286.72107c0,-24.93863 37.03378,-57.09666 86.06327,-57.61464c44.32005,-0.46824 64.16517,32.676 64.16517,57.61464c0,24.93863 -18.33917,58.57627 -63.9764,57.80341c-48.65227,-0.8239 -86.25204,-32.86479 -86.25204,-57.80341z" fill="#005fff" stroke="none" stroke-width="0" stroke-linecap="butt"/><path d="M305.68906,233.83623c0,0 14.16944,15.15464 16.04601,54.02158c1.50045,31.07698 -11.70414,50.40336 -11.70414,50.40336" fill="none" stroke="#000000" stroke-width="1" stroke-linecap="round"/><path d="M295.30633,230.81582c0,0 17.18842,13.50578 19.44398,57.2308c1.80833,35.05557 -14.34703,53.61257 -14.34703,53.61257" fill="none" stroke="#000000" stroke-width="1" stroke-linecap="round"/><path d="M218.78886,248.02595c0,0 5.48874,15.74372 5.85207,41.53087c0.37756,26.7967 -4.9082,36.24511 -4.9082,36.24511" fill="none" stroke="#000000" stroke-width="1" stroke-linecap="round"/><path d="M224.07461,244.43921c0,0 6.24387,20.27436 6.60718,46.06149c0.37756,26.7967 -5.85207,38.32165 -5.85207,38.32165" fill="none" stroke="#000000" stroke-width="1" stroke-linecap="round"/><path d="M253.42937,330.71012c-4.74377,0 -8.58934,-3.84558 -8.58934,-8.58934c0,-4.74377 3.84558,-8.58934 8.58934,-8.58934c4.74377,0 8.58934,3.84558 8.58934,8.58934c0,4.74377 -3.84558,8.58934 -8.58934,8.58934z" fill="#ff25ed" stroke="#000000" stroke-width="1" stroke-linecap="butt"/><path d="M285.89896,315.04166c-4.74377,0 -8.58934,-3.84558 -8.58934,-8.58934c0,-4.74377 3.84558,-8.58934 8.58934,-8.58934c4.74377,0 8.58934,3.84558 8.58934,8.58934c0,4.74377 -3.84558,8.58934 -8.58934,8.58934z" fill="#ffd626" stroke="#000000" stroke-width="1" stroke-linecap="butt"/><path d="M289.10817,283.8935c-4.74377,0 -8.58934,-3.84558 -8.58934,-8.58934c0,-4.74377 3.84558,-8.58934 8.58934,-8.58934c4.74377,0 8.58934,3.84558 8.58934,8.58934c0,4.74377 -3.84558,8.58934 -8.58934,8.58934z" fill="#26a0ff" stroke="#000000" stroke-width="1" stroke-linecap="butt"/><path d="M248.70998,298.80687c-4.74377,0 -8.58934,-3.84558 -8.58934,-8.58934c0,-4.74377 3.84558,-8.58934 8.58934,-8.58934c4.74377,0 8.58934,3.84558 8.58934,8.58934c0,4.74377 -3.84558,8.58934 -8.58934,8.58934z" fill="#26a0ff" stroke="#000000" stroke-width="1" stroke-linecap="butt"/><path d="M268.53152,266.1485c-4.74377,0 -8.58934,-3.84558 -8.58934,-8.58934c0,-4.74377 3.84558,-8.58934 8.58934,-8.58934c4.74377,0 8.58934,3.84558 8.58934,8.58934c0,4.74377 -3.84558,8.58934 -8.58934,8.58934z" fill="#26ff41" stroke="#000000" stroke-width="1" stroke-linecap="butt"/><path d="M240.59258,255.0107c-4.74377,0 -8.58934,-3.84558 -8.58934,-8.58934c0,-4.74377 3.84558,-8.58934 8.58934,-8.58934c4.74377,0 8.58934,3.84558 8.58934,8.58934c0,4.74377 -3.84558,8.58934 -8.58934,8.58934z" fill="#26ff41" stroke="#000000" stroke-width="1" stroke-linecap="butt"/><path d="M286.08773,249.72494c-4.74377,0 -8.58934,-3.84558 -8.58934,-8.58934c0,-4.74377 3.84558,-8.58934 8.58934,-8.58934c4.74377,0 8.58934,3.84558 8.58934,8.58934c0,4.74377 -3.84558,8.58934 -8.58934,8.58934z" fill="#ff25ed" stroke="#000000" stroke-width="1" stroke-linecap="butt"/><path d="M280.61322,336.37344c-4.74377,0 -8.58934,-3.84558 -8.58934,-8.58934c0,-4.74377 3.84558,-8.58934 8.58934,-8.58934c4.74377,0 8.58934,3.84558 8.58934,8.58934c0,4.74377 -3.84558,8.58934 -8.58934,8.58934z" fill="#ffd626" stroke="#000000" stroke-width="1" stroke-linecap="butt"/></g></g></g></svg>