<svg version="1.1" xmlns="http://www.w3.org/2000/svg" xmlns:xlink="http://www.w3.org/1999/xlink" width="114.73277" height="46.35091" viewBox="0,0,114.73277,46.35091"><g transform="translate(-160.47624,-296.82454)"><g stroke-miterlimit="10"><path d="M172.4703,320.5127c-0.31454,-9.93524 24.60517,-23.01872 58.12714,-23.58533c30.30207,-0.51219 44.29108,12.54624 44.60562,22.48148c0.31454,9.93524 -11.80232,23.47081 -43.0208,23.49825c-33.28094,0.02925 -59.39742,-12.45916 -59.71197,-22.3944z" fill="#9966ff" stroke="none" stroke-width="0" stroke-linecap="butt"/><g stroke="none" stroke-width="1" stroke-linecap="butt"><g fill="#ca842a"><path d="M180.76058,329.21915l-8.44902,11.80998l2.67963,-15.69876z"/><path d="M174.9912,314.67474l-2.67963,-15.69913l8.44902,11.81086z"/></g><path d="M196.18239,306.79498c1.84517,0 3.34099,1.49583 3.34099,3.34049v9.95321v9.79495c0,1.84467 -1.49583,3.3405 -3.34099,3.3405c0,0 -23.0582,9.28873 -23.87082,7.80513c0,0 6.50438,-11.04928 5.74367,-11.80961c-0.8447,-0.8467 -14.36543,-8.07023 -14.37054,-9.13035c0.00462,-1.06112 13.52522,-8.44253 14.37054,-9.28873c0.76071,-0.76121 -5.74367,-11.81047 -5.74367,-11.81047c0.81262,-1.48322 23.87082,7.80538 23.87082,7.80488z" fill="#edb20f"/><g fill="#ffc50b"><path d="M163.68457,320.08868h35.83882v9.79495c0,1.84467 -1.49583,3.3405 -3.34099,3.3405c0,0 -23.0582,9.28873 -23.87095,7.80501c0,0 6.50438,-11.04928 5.74367,-11.80961c-0.8447,-0.8467 -14.36544,-8.07022 -14.37055,-9.13034z"/><path d="M163.68457,323.37787c-1.77191,0 -3.20832,-1.43641 -3.20832,-3.20832c0,-1.77191 1.43641,-3.20832 3.20832,-3.20832c1.77191,0 3.20833,1.43642 3.20833,3.20832c0,1.77191 -1.43642,3.20832 -3.20833,3.20832z"/></g><path d="M196.18239,306.75067c1.84517,0 3.34099,1.49582 3.34099,3.34136v19.79159c0,1.84467 -1.49583,3.3405 -3.34099,3.3405c0,0 -0.45855,-7.69992 -0.45855,-13.2167c0,-5.51715 0.45855,-13.25675 0.45855,-13.25675z" fill="#b8972f"/><path d="M199.52376,320.08918v9.79445c0,1.84467 -1.49583,3.3405 -3.34099,3.3405c0,0 -0.45855,-7.69992 -0.45855,-13.2167z" fill="#c4a12e"/><path d="M164.32072,322.76981c-0.56364,0.56363 -2.12436,-0.05466 -2.6885,-0.6193c-0.56326,-0.56363 -1.09843,-1.92829 -0.53467,-2.49192c0.56351,-0.56363 3.78731,2.54708 3.22317,3.11122z" fill="#f6e568"/><g fill="#ffc50b"><path d="M172.47319,301.04257c-1.16477,0 -2.10901,-0.94423 -2.10901,-2.10901c0,-1.16478 0.94423,-2.10901 2.10901,-2.10901c1.16477,0 2.10901,0.94423 2.10901,2.10901c0,1.16478 -0.94424,2.10901 -2.10901,2.10901z"/><path d="M172.89342,300.64281c-0.3708,0.3703 -1.39723,-0.03594 -1.76766,-0.40675c-0.37031,-0.3703 -0.72202,-1.26793 -0.35171,-1.63824c0.37093,-0.37093 2.49017,1.67368 2.11937,2.04498z"/><path d="M172.47319,343.17546c-1.16477,0 -2.10901,-0.94423 -2.10901,-2.10901c0,-1.16478 0.94423,-2.10901 2.10901,-2.10901c1.16477,0 2.10901,0.94423 2.10901,2.10901c0,1.16478 -0.94424,2.10901 -2.10901,2.10901z"/></g><path d="M172.89342,342.77707c-0.3708,0.3703 -1.39723,-0.03645 -1.76766,-0.40675c-0.37031,-0.37131 -0.72202,-1.26792 -0.35171,-1.63923c0.37093,-0.37018 2.49017,1.6748 2.11937,2.04598z" fill="#f6e568"/><path d="M184.18457,316.45401l6.51711,3.67673l-6.51711,3.67773l-6.51699,-3.67773z" fill="#a8213b"/><path d="M184.18457,316.45401l6.51711,3.67673l-6.51711,3.67773z" fill="#951d38"/><path d="M190.70169,320.13074l-6.51711,3.67773l-6.51699,-3.67773z" fill="#c0355a"/><path d="M190.70169,320.13074l-6.51711,3.67773v-3.67773z" fill="#b72d4c"/></g><g stroke="#000000" stroke-width="1"><path d="M248.07946,298.61099c0,0 5.75628,5.93331 6.78947,21.40363c0.82611,12.36966 -4.29243,20.16607 -4.29243,20.16607" fill="none" stroke-linecap="round"/><path d="M243.92092,297.48398c0,0 6.94689,5.25424 8.16676,22.65717c0.978,13.95242 -5.32174,21.46401 -5.32174,21.46401" fill="none" stroke-linecap="round"/><path d="M211.70972,298.83476c0,0 4.15637,12.29953 4.49059,22.57015c0.34731,10.6727 -3.71164,19.44786 -3.71164,19.44786" fill="none" stroke-linecap="round"/><path d="M213.87343,298.63112c0,0 4.40621,12.83482 4.74043,23.10542c0.34731,10.6727 -3.90385,19.52359 -3.90385,19.52359" fill="none" stroke-linecap="round"/><path d="M227.97166,337.58834c-1.88986,0.03486 -3.45014,-1.46892 -3.485,-3.35878c-0.03486,-1.88986 1.46892,-3.45014 3.35878,-3.485c1.88986,-0.03486 3.45014,1.46892 3.485,3.35878c0.03486,1.88986 -1.46892,3.45014 -3.35878,3.485z" fill="#ff25ed" stroke-linecap="butt"/><path d="M240.79201,331.10764c-1.88986,0.03486 -3.45014,-1.46892 -3.485,-3.35878c-0.03486,-1.88986 1.46892,-3.45014 3.35878,-3.485c1.88986,-0.03486 3.45014,1.46892 3.485,3.35878c0.03486,1.88986 -1.46892,3.45014 -3.35878,3.485z" fill="#ffd626" stroke-linecap="butt"/><path d="M241.84165,318.67501c-1.88986,0.03486 -3.45014,-1.46892 -3.485,-3.35878c-0.03486,-1.88986 1.46892,-3.45014 3.35878,-3.485c1.88986,-0.03486 3.45014,1.46892 3.485,3.35878c0.03486,1.88986 -1.46892,3.45014 -3.35878,3.485z" fill="#26a0ff" stroke-linecap="butt"/><path d="M225.85709,324.91316c-1.88986,0.03486 -3.45014,-1.46892 -3.485,-3.35878c-0.03486,-1.88986 1.46892,-3.45014 3.35878,-3.485c1.88986,-0.03486 3.45014,1.46892 3.485,3.35878c0.03486,1.88986 -1.46892,3.45014 -3.35878,3.485z" fill="#26a0ff" stroke-linecap="butt"/><path d="M233.51378,311.75683c-1.88986,0.03486 -3.45014,-1.46892 -3.485,-3.35878c-0.03486,-1.88986 1.46892,-3.45014 3.35878,-3.485c1.88986,-0.03486 3.45014,1.46892 3.485,3.35878c0.03486,1.88986 -1.46892,3.45014 -3.35878,3.485z" fill="#26ff41" stroke-linecap="butt"/><path d="M222.30142,307.52495c-1.88986,0.03486 -3.45014,-1.46892 -3.485,-3.35878c-0.03486,-1.88986 1.46892,-3.45014 3.35878,-3.485c1.88986,-0.03486 3.45014,1.46892 3.485,3.35878c0.03486,1.88986 -1.46892,3.45014 -3.35878,3.485z" fill="#26ff41" stroke-linecap="butt"/><path d="M240.38729,305.08488c-1.88986,0.03486 -3.45014,-1.46892 -3.485,-3.35878c-0.03486,-1.88986 1.46892,-3.45014 3.35878,-3.485c1.88986,-0.03486 3.45014,1.46892 3.485,3.35878c0.03486,1.88986 -1.46892,3.45014 -3.35878,3.485z" fill="#ff25ed" stroke-linecap="butt"/><path d="M238.84298,339.64479c-1.88986,0.03486 -3.45014,-1.46892 -3.485,-3.35878c-0.03486,-1.88986 1.46892,-3.45014 3.35878,-3.485c1.88986,-0.03486 3.45014,1.46892 3.485,3.35878c0.03486,1.88986 -1.46892,3.45014 -3.35878,3.485z" fill="#ffd626" stroke-linecap="butt"/></g></g></g></svg>