<svg version="1.1" xmlns="http://www.w3.org/2000/svg" xmlns:xlink="http://www.w3.org/1999/xlink" width="347.37117" height="90.19556" viewBox="0,0,347.37117,90.19556"><g transform="translate(-47.26209,-517.7819)"><g stroke-miterlimit="10"><path d="M47.26209,607.97746v-83.27082h84.3961v83.27082z" fill="#ffca66" stroke="none" stroke-width="0" stroke-linecap="butt"/><path d="M64.22156,534.60137l56.22904,56.22904l-8.75263,8.75264l-56.22905,-56.22905z" fill="#ff9494" stroke="none" stroke-width="0" stroke-linecap="butt"/><path d="M121.20079,542.60381l-56.22904,56.22904l-8.75263,-8.75263l56.22904,-56.22905z" fill="#ff9494" stroke="none" stroke-width="0" stroke-linecap="butt"/><g stroke="#000000" stroke-width="0.5"><path d="M114.28709,518.0319h141.85824" fill="none" stroke-linecap="round"/><path d="M114.61175,521.01803c0,-0.92408 0.74912,-1.6732 1.6732,-1.6732c0.92409,0 1.6732,0.74912 1.6732,1.6732c0,0.92408 -0.74912,1.6732 -1.6732,1.6732c-0.92409,0 -1.6732,-0.74912 -1.6732,-1.6732z" fill="#bfbfbf" stroke-linecap="butt"/><path d="M126.13063,521.01803c0,-0.92408 0.74912,-1.6732 1.6732,-1.6732c0.92409,0 1.6732,0.74912 1.6732,1.6732c0,0.92408 -0.74912,1.6732 -1.6732,1.6732c-0.92409,0 -1.6732,-0.74912 -1.6732,-1.6732z" fill="#bfbfbf" stroke-linecap="butt"/><path d="M137.64952,521.01803c0,-0.92408 0.74912,-1.6732 1.6732,-1.6732c0.92408,0 1.6732,0.74912 1.6732,1.6732c0,0.92408 -0.74912,1.6732 -1.6732,1.6732c-0.92408,0 -1.6732,-0.74912 -1.6732,-1.6732z" fill="#bfbfbf" stroke-linecap="butt"/><path d="M149.1684,521.01803c0,-0.92408 0.74912,-1.6732 1.6732,-1.6732c0.92408,0 1.6732,0.74912 1.6732,1.6732c0,0.92408 -0.74912,1.6732 -1.6732,1.6732c-0.92408,0 -1.6732,-0.74912 -1.6732,-1.6732z" fill="#bfbfbf" stroke-linecap="butt"/><path d="M160.82123,521.15199c0,-0.92408 0.74912,-1.6732 1.6732,-1.6732c0.92408,0 1.67321,0.74912 1.67321,1.6732c0,0.92408 -0.74912,1.6732 -1.67321,1.6732c-0.92408,0 -1.6732,-0.74912 -1.6732,-1.6732z" fill="#bfbfbf" stroke-linecap="butt"/><path d="M172.20617,521.01803c0,-0.92408 0.74912,-1.6732 1.6732,-1.6732c0.92408,0 1.6732,0.74912 1.6732,1.6732c0,0.92408 -0.74912,1.6732 -1.6732,1.6732c-0.92408,0 -1.6732,-0.74912 -1.6732,-1.6732z" fill="#bfbfbf" stroke-linecap="butt"/><path d="M183.72506,521.01803c0,-0.92408 0.74912,-1.6732 1.67321,-1.6732c0.92408,0 1.6732,0.74912 1.6732,1.6732c0,0.92408 -0.74912,1.6732 -1.6732,1.6732c-0.92409,0 -1.67321,-0.74912 -1.67321,-1.6732z" fill="#bfbfbf" stroke-linecap="butt"/><path d="M195.24395,521.01803c0,-0.92408 0.74912,-1.6732 1.6732,-1.6732c0.92408,0 1.6732,0.74912 1.6732,1.6732c0,0.92408 -0.74912,1.6732 -1.6732,1.6732c-0.92408,0 -1.6732,-0.74912 -1.6732,-1.6732z" fill="#bfbfbf" stroke-linecap="butt"/><path d="M206.76283,521.01803c0,-0.92408 0.74912,-1.6732 1.6732,-1.6732c0.92408,0 1.6732,0.74912 1.6732,1.6732c0,0.92408 -0.74912,1.6732 -1.6732,1.6732c-0.92408,0 -1.6732,-0.74912 -1.6732,-1.6732z" fill="#bfbfbf" stroke-linecap="butt"/><path d="M218.28172,521.01803c0,-0.92408 0.74912,-1.6732 1.6732,-1.6732c0.92408,0 1.6732,0.74912 1.6732,1.6732c0,0.92408 -0.74912,1.6732 -1.6732,1.6732c-0.92408,0 -1.6732,-0.74912 -1.6732,-1.6732z" fill="#bfbfbf" stroke-linecap="butt"/><path d="M229.93454,521.15199c0,-0.92408 0.74912,-1.6732 1.6732,-1.6732c0.92408,0 1.67321,0.74912 1.67321,1.6732c0,0.92408 -0.74912,1.6732 -1.67321,1.6732c-0.92408,0 -1.6732,-0.74912 -1.6732,-1.6732z" fill="#bfbfbf" stroke-linecap="butt"/><path d="M241.31949,521.01803c0,-0.92408 0.74912,-1.6732 1.6732,-1.6732c0.92408,0 1.6732,0.74912 1.6732,1.6732c0,0.92408 -0.74912,1.6732 -1.6732,1.6732c-0.92408,0 -1.6732,-0.74912 -1.6732,-1.6732z" fill="#bfbfbf" stroke-linecap="butt"/><path d="M252.83837,521.01803c0,-0.92408 0.74912,-1.6732 1.6732,-1.6732c0.92408,0 1.6732,0.74912 1.6732,1.6732c0,0.92408 -0.74912,1.6732 -1.6732,1.6732c-0.92408,0 -1.6732,-0.74912 -1.6732,-1.6732z" fill="#bfbfbf" stroke-linecap="butt"/><path d="M114.28709,523.75632h141.85824" fill="none" stroke-linecap="round"/></g><g stroke="#000000" stroke-width="0.5"><path d="M252.48558,518.0319h141.85824" fill="none" stroke-linecap="round"/><path d="M252.81024,521.01803c0,-0.92408 0.74912,-1.6732 1.6732,-1.6732c0.92409,0 1.6732,0.74912 1.6732,1.6732c0,0.92408 -0.74912,1.6732 -1.6732,1.6732c-0.92409,0 -1.6732,-0.74912 -1.6732,-1.6732z" fill="#bfbfbf" stroke-linecap="butt"/><path d="M264.32912,521.01803c0,-0.92408 0.74912,-1.6732 1.6732,-1.6732c0.92409,0 1.6732,0.74912 1.6732,1.6732c0,0.92408 -0.74912,1.6732 -1.6732,1.6732c-0.92409,0 -1.6732,-0.74912 -1.6732,-1.6732z" fill="#bfbfbf" stroke-linecap="butt"/><path d="M275.84801,521.01803c0,-0.92408 0.74912,-1.6732 1.6732,-1.6732c0.92408,0 1.6732,0.74912 1.6732,1.6732c0,0.92408 -0.74912,1.6732 -1.6732,1.6732c-0.92408,0 -1.6732,-0.74912 -1.6732,-1.6732z" fill="#bfbfbf" stroke-linecap="butt"/><path d="M287.36689,521.01803c0,-0.92408 0.74912,-1.6732 1.6732,-1.6732c0.92408,0 1.6732,0.74912 1.6732,1.6732c0,0.92408 -0.74912,1.6732 -1.6732,1.6732c-0.92408,0 -1.6732,-0.74912 -1.6732,-1.6732z" fill="#bfbfbf" stroke-linecap="butt"/><path d="M299.01972,521.15199c0,-0.92408 0.74912,-1.6732 1.6732,-1.6732c0.92408,0 1.67321,0.74912 1.67321,1.6732c0,0.92408 -0.74912,1.6732 -1.67321,1.6732c-0.92408,0 -1.6732,-0.74912 -1.6732,-1.6732z" fill="#bfbfbf" stroke-linecap="butt"/><path d="M310.40466,521.01803c0,-0.92408 0.74912,-1.6732 1.6732,-1.6732c0.92408,0 1.6732,0.74912 1.6732,1.6732c0,0.92408 -0.74912,1.6732 -1.6732,1.6732c-0.92408,0 -1.6732,-0.74912 -1.6732,-1.6732z" fill="#bfbfbf" stroke-linecap="butt"/><path d="M321.92355,521.01803c0,-0.92408 0.74912,-1.6732 1.67321,-1.6732c0.92408,0 1.6732,0.74912 1.6732,1.6732c0,0.92408 -0.74912,1.6732 -1.6732,1.6732c-0.92409,0 -1.67321,-0.74912 -1.67321,-1.6732z" fill="#bfbfbf" stroke-linecap="butt"/><path d="M333.44244,521.01803c0,-0.92408 0.74912,-1.6732 1.6732,-1.6732c0.92408,0 1.6732,0.74912 1.6732,1.6732c0,0.92408 -0.74912,1.6732 -1.6732,1.6732c-0.92408,0 -1.6732,-0.74912 -1.6732,-1.6732z" fill="#bfbfbf" stroke-linecap="butt"/><path d="M344.96132,521.01803c0,-0.92408 0.74912,-1.6732 1.6732,-1.6732c0.92408,0 1.6732,0.74912 1.6732,1.6732c0,0.92408 -0.74912,1.6732 -1.6732,1.6732c-0.92408,0 -1.6732,-0.74912 -1.6732,-1.6732z" fill="#bfbfbf" stroke-linecap="butt"/><path d="M356.48021,521.01803c0,-0.92408 0.74912,-1.6732 1.6732,-1.6732c0.92408,0 1.6732,0.74912 1.6732,1.6732c0,0.92408 -0.74912,1.6732 -1.6732,1.6732c-0.92408,0 -1.6732,-0.74912 -1.6732,-1.6732z" fill="#bfbfbf" stroke-linecap="butt"/><path d="M368.13303,521.15199c0,-0.92408 0.74912,-1.6732 1.6732,-1.6732c0.92408,0 1.67321,0.74912 1.67321,1.6732c0,0.92408 -0.74912,1.6732 -1.67321,1.6732c-0.92408,0 -1.6732,-0.74912 -1.6732,-1.6732z" fill="#bfbfbf" stroke-linecap="butt"/><path d="M379.51798,521.01803c0,-0.92408 0.74912,-1.6732 1.6732,-1.6732c0.92408,0 1.6732,0.74912 1.6732,1.6732c0,0.92408 -0.74912,1.6732 -1.6732,1.6732c-0.92408,0 -1.6732,-0.74912 -1.6732,-1.6732z" fill="#bfbfbf" stroke-linecap="butt"/><path d="M391.03686,521.01803c0,-0.92408 0.74912,-1.6732 1.6732,-1.6732c0.92408,0 1.6732,0.74912 1.6732,1.6732c0,0.92408 -0.74912,1.6732 -1.6732,1.6732c-0.92408,0 -1.6732,-0.74912 -1.6732,-1.6732z" fill="#bfbfbf" stroke-linecap="butt"/><path d="M394.34382,523.75632h-141.85824" fill="none" stroke-linecap="round"/></g><path d="M48.38737,606.10196v-79.51988h12.3781v79.51988z" fill="#ffe493" stroke="none" stroke-width="0" stroke-linecap="butt"/><path d="M117.40462,606.10196v-79.51988h12.37809v79.51988z" fill="#ffe493" stroke="none" stroke-width="0" stroke-linecap="butt"/><path d="M49.3251,526.39456h79.51988v12.3781h-79.51988z" fill="#ffe493" stroke="none" stroke-width="0" stroke-linecap="butt"/><path d="M49.3251,593.53631h79.51988v12.3781h-79.51988z" fill="#ffe493" stroke="none" stroke-width="0" stroke-linecap="butt"/></g></g></svg>