<svg xmlns:xlink="http://www.w3.org/1999/xlink" xmlns="http://www.w3.org/2000/svg" viewBox="0 0 421.6 546.6" version="1.1" id="Layer_1">
  
  <defs>
    <style>
      .st0 {
        fill: #f171a1;
      }

      .st1 {
        fill: #fff;
      }

      .st2 {
        fill: none;
      }

      .st3 {
        fill: #dcc2dd;
      }

      .st4 {
        fill: #c098c6;
      }

      .st5 {
        fill: #f3e9f3;
      }

      .st6 {
        fill: #fec24b;
      }

      .st7 {
        clip-path: url(#clippath);
      }
    </style>
    <clipPath id="clippath">
      <path d="M411.8,319.5c0,129.5-89.5,215.7-199.9,215.7S12.1,449,12.1,319.5,101.6,15.9,212,15.9s199.9,162.5,199.9,303.6Z" class="st2"/>
    </clipPath>
  </defs>
  <g class="st7">
    <path d="M411.8,319.5c0,129.5-89.5,215.7-199.9,215.7S12.1,449,12.1,319.5,101.6,15.9,212,15.9s199.9,162.5,199.9,303.6Z" class="st4"/>
    <g>
      <path d="M393.4,203.6H29.7c-.6,2.1-1.3,4.1-1.9,6.2h367.5c-.6-2.1-1.2-4.1-1.9-6.2Z" class="st3"/>
      <path d="M409.8,352.1H14.1c.3,2.1.5,4.1.8,6.2h394c.3-2,.6-4.1.8-6.2Z" class="st3"/>
      <path d="M101.7,385.4h-5.2c-2.4,0-4.4,2-4.4,4.4s2,4.4,4.4,4.4h5.2c2.4,0,4.4-2,4.4-4.4s-2-4.4-4.4-4.4Z" class="st1"/>
      <path d="M169.9,385.4h-5.2c-2.4,0-4.4,2-4.4,4.4s2,4.4,4.4,4.4h5.2c2.4,0,4.4-2,4.4-4.4s-2-4.4-4.4-4.4Z" class="st1"/>
      <path d="M238.2,385.4h-5.2c-2.4,0-4.4,2-4.4,4.4s2,4.4,4.4,4.4h5.2c2.4,0,4.4-2,4.4-4.4s-2-4.4-4.4-4.4Z" class="st1"/>
      <path d="M260.9,385.4h-5.2c-2.4,0-4.4,2-4.4,4.4s2,4.4,4.4,4.4h5.2c2.4,0,4.4-2,4.4-4.4s-2-4.4-4.4-4.4Z" class="st1"/>
      <path d="M192.7,385.4h-5.2c-2.4,0-4.4,2-4.4,4.4s2,4.4,4.4,4.4h5.2c2.4,0,4.4-2,4.4-4.4s-2-4.4-4.4-4.4Z" class="st1"/>
      <path d="M215.4,385.4h-5.2c-2.4,0-4.4,2-4.4,4.4s2,4.4,4.4,4.4h5.2c2.4,0,4.4-2,4.4-4.4s-2-4.4-4.4-4.4Z" class="st1"/>
      <path d="M283.7,385.4h-5.2c-2.4,0-4.4,2-4.4,4.4s2,4.4,4.4,4.4h5.2c2.4,0,4.4-2,4.4-4.4s-2-4.4-4.4-4.4Z" class="st1"/>
      <path d="M329.1,385.4h-5.2c-2.4,0-4.4,2-4.4,4.4s2,4.4,4.4,4.4h5.2c2.4,0,4.4-2,4.4-4.4s-2-4.4-4.4-4.4Z" class="st1"/>
      <path d="M306.4,385.4h-5.2c-2.4,0-4.4,2-4.4,4.4s2,4.4,4.4,4.4h5.2c2.4,0,4.4-2,4.4-4.4s-2-4.4-4.4-4.4Z" class="st1"/>
      <path d="M147.2,385.4h-5.2c-2.4,0-4.4,2-4.4,4.4s2,4.4,4.4,4.4h5.2c2.4,0,4.4-2,4.4-4.4s-2-4.4-4.4-4.4Z" class="st1"/>
      <path d="M374.6,385.4h-5.2c-2.4,0-4.4,2-4.4,4.4s2,4.4,4.4,4.4h5.2c2.4,0,4.4-2,4.4-4.4s-2-4.4-4.4-4.4Z" class="st1"/>
      <path d="M351.9,385.4h-5.2c-2.4,0-4.4,2-4.4,4.4s2,4.4,4.4,4.4h5.2c2.4,0,4.4-2,4.4-4.4s-2-4.4-4.4-4.4Z" class="st1"/>
      <path d="M397.4,385.4h-5.2c-2.4,0-4.4,2-4.4,4.4s2,4.4,4.4,4.4h5.2c2.4,0,4.4-2,4.4-4.4s-2-4.4-4.4-4.4Z" class="st1"/>
      <path d="M56.2,385.4h-5.2c-2.4,0-4.4,2-4.4,4.4s2,4.4,4.4,4.4h5.2c2.4,0,4.4-2,4.4-4.4s-2-4.4-4.4-4.4Z" class="st1"/>
      <path d="M33.5,385.4h-5.2c-2.4,0-4.4,2-4.4,4.4s2,4.4,4.4,4.4h5.2c2.4,0,4.4-2,4.4-4.4s-2-4.4-4.4-4.4Z" class="st1"/>
      <path d="M124.4,385.4h-5.2c-2.4,0-4.4,2-4.4,4.4s2,4.4,4.4,4.4h5.2c2.4,0,4.4-2,4.4-4.4s-2-4.4-4.4-4.4Z" class="st1"/>
      <path d="M78.9,385.4h-5.2c-2.4,0-4.4,2-4.4,4.4s2,4.4,4.4,4.4h5.2c2.4,0,4.4-2,4.4-4.4s-2-4.4-4.4-4.4Z" class="st1"/>
      <path d="M351.9,177.9h-5.2c-2.4,0-4.4,2-4.4,4.4s2,4.4,4.4,4.4h5.2c2.4,0,4.4-2,4.4-4.4s-2-4.4-4.4-4.4Z" class="st1"/>
      <path d="M374.6,177.9h-5.2c-2.4,0-4.4,2-4.4,4.4s2,4.4,4.4,4.4h5.2c2.4,0,4.4-2,4.4-4.4s-2-4.4-4.4-4.4Z" class="st1"/>
      <path d="M329.1,177.9h-5.2c-2.4,0-4.4,2-4.4,4.4s2,4.4,4.4,4.4h5.2c2.4,0,4.4-2,4.4-4.4s-2-4.4-4.4-4.4Z" class="st1"/>
      <path d="M192.7,177.9h-5.2c-2.4,0-4.4,2-4.4,4.4s2,4.4,4.4,4.4h5.2c2.4,0,4.4-2,4.4-4.4s-2-4.4-4.4-4.4Z" class="st1"/>
      <path d="M169.9,177.9h-5.2c-2.4,0-4.4,2-4.4,4.4s2,4.4,4.4,4.4h5.2c2.4,0,4.4-2,4.4-4.4s-2-4.4-4.4-4.4Z" class="st1"/>
      <path d="M101.7,177.9h-5.2c-2.4,0-4.4,2-4.4,4.4s2,4.4,4.4,4.4h5.2c2.4,0,4.4-2,4.4-4.4s-2-4.4-4.4-4.4Z" class="st1"/>
      <path d="M215.4,177.9h-5.2c-2.4,0-4.4,2-4.4,4.4s2,4.4,4.4,4.4h5.2c2.4,0,4.4-2,4.4-4.4s-2-4.4-4.4-4.4Z" class="st1"/>
      <path d="M238.2,177.9h-5.2c-2.4,0-4.4,2-4.4,4.4s2,4.4,4.4,4.4h5.2c2.4,0,4.4-2,4.4-4.4s-2-4.4-4.4-4.4Z" class="st1"/>
      <path d="M147.2,177.9h-5.2c-2.4,0-4.4,2-4.4,4.4s2,4.4,4.4,4.4h5.2c2.4,0,4.4-2,4.4-4.4s-2-4.4-4.4-4.4Z" class="st1"/>
      <path d="M306.4,177.9h-5.2c-2.4,0-4.4,2-4.4,4.4s2,4.4,4.4,4.4h5.2c2.4,0,4.4-2,4.4-4.4s-2-4.4-4.4-4.4Z" class="st1"/>
      <path d="M56.2,177.9h-5.2c-2.4,0-4.4,2-4.4,4.4s2,4.4,4.4,4.4h5.2c2.4,0,4.4-2,4.4-4.4s-2-4.4-4.4-4.4Z" class="st1"/>
      <path d="M37.8,182.3c0-.6-.1-1.2-.4-1.8-.7,1.9-1.4,3.7-2,5.6,1.4-.7,2.4-2.2,2.4-3.9Z" class="st1"/>
      <path d="M283.7,177.9h-5.2c-2.4,0-4.4,2-4.4,4.4s2,4.4,4.4,4.4h5.2c2.4,0,4.4-2,4.4-4.4s-2-4.4-4.4-4.4Z" class="st1"/>
      <path d="M78.9,177.9h-5.2c-2.4,0-4.4,2-4.4,4.4s2,4.4,4.4,4.4h5.2c2.4,0,4.4-2,4.4-4.4s-2-4.4-4.4-4.4Z" class="st1"/>
      <path d="M260.9,177.9h-5.2c-2.4,0-4.4,2-4.4,4.4s2,4.4,4.4,4.4h5.2c2.4,0,4.4-2,4.4-4.4s-2-4.4-4.4-4.4Z" class="st1"/>
      <path d="M124.4,177.9h-5.2c-2.4,0-4.4,2-4.4,4.4s2,4.4,4.4,4.4h5.2c2.4,0,4.4-2,4.4-4.4s-2-4.4-4.4-4.4Z" class="st1"/>
      <path d="M75.5,271.6l39.6-32,29.1,32.1,38-31.9,36.1,31.9,32.4-31.5,28.4,31.9,29-31.7,27.6,31.8,29.4-32.6,28.1,32.8,12.7-17.6c-.4-2.4-.9-4.8-1.4-7.2l-11.7,16.2-27.7-32.3-29.4,32.6-27.6-31.7-29.1,31.8-28.2-31.6-32.9,32-35.8-31.7-37.6,31.6-29-32-39.6,32-29.1-32.1-29.9,26.6c-.4,2.7-.9,5.5-1.2,8.3l30.7-27.4,29,31.9Z" class="st5"/>
      <path d="M75.5,298.4l39.6-32,29.1,32.1,38-31.9,36.1,31.9,32.4-31.5,28.4,31.9,29-31.7,27.6,31.8,29.4-32.6,28.1,32.8,16-22.2c-.3-2.6-.6-5.1-1-7.7l-15.3,21.3-27.7-32.3-29.4,32.6-27.6-31.7-29.1,31.8-28.2-31.6-32.9,32-35.8-31.7-37.6,31.6-29-32-39.6,32-29.1-32.1-33.5,29.8c-.2,2.5-.4,5.1-.5,7.6l33.6-30,29,31.9Z" class="st0"/>
      <path d="M46.5,293.2l29,31.9,39.6-32,29.1,32.1,38-31.9,36.1,31.9,32.4-31.5,28.4,31.9,29-31.7,27.6,31.8,29.4-32.6,28.1,32.8,18.1-25c-.2-2.8-.3-5.6-.5-8.4l-17.9,24.8-27.7-32.3-29.4,32.6-27.6-31.7-29.1,31.8-28.2-31.6-32.9,32-35.8-31.7-37.6,31.6-29-32-39.6,32-29.1-32.1-34.7,31c0,.9,0,1.9,0,2.8s0,2.4,0,3.6l.3.4,34-30.3Z" class="st6"/>
    </g>
  </g>
</svg>