<svg version="1.1" xmlns="http://www.w3.org/2000/svg" xmlns:xlink="http://www.w3.org/1999/xlink" width="98.09833" height="127.66515" viewBox="0,0,98.09833,127.66515"><g transform="translate(-130.95083,-256.16742)"><g stroke-miterlimit="10"><path d="M180.08368,256.16742c21.19302,0 48.52113,31.47156 48.96131,73.13715c0.39791,37.66348 -27.76829,54.528 -48.96131,54.528c-21.19302,0 -49.77851,-15.58475 -49.12173,-54.36758c0.70016,-41.34503 27.92872,-73.29757 49.12173,-73.29757z" fill="#005fff" stroke="none" stroke-width="0" stroke-linecap="butt"/><path d="M225.02558,352.51257c0,0 -12.87852,12.04129 -45.90791,13.63601c-26.40943,1.27509 -42.83312,-9.94626 -42.83312,-9.94626" fill="none" stroke="#000000" stroke-width="1" stroke-linecap="round"/><path d="M227.59235,343.68925c0,0 -11.4773,14.60684 -48.63512,16.52363c-29.79046,1.53673 -45.56033,-12.1922 -45.56033,-12.1922" fill="none" stroke="#000000" stroke-width="1" stroke-linecap="round"/><path d="M212.96706,278.66418c0,0 -13.37912,4.66437 -35.29322,4.97313c-22.77202,0.32085 -30.80134,-4.17102 -30.80134,-4.17102" fill="none" stroke="#000000" stroke-width="1" stroke-linecap="round"/><path d="M216.0151,283.15605c0,0 -17.22929,5.30608 -39.14337,5.61483c-22.77202,0.32085 -32.566,-4.97313 -32.566,-4.97313" fill="none" stroke="#000000" stroke-width="1" stroke-linecap="round"/><path d="M142.70149,308.10191c0,-4.03129 3.268,-7.29928 7.29928,-7.29928c4.03129,0 7.29928,3.268 7.29928,7.29928c0,4.03129 -3.268,7.29928 -7.29928,7.29928c-4.03129,0 -7.29928,-3.268 -7.29928,-7.29928z" fill="#ff25ed" stroke="#000000" stroke-width="1" stroke-linecap="butt"/><path d="M156.01665,335.69481c0,-4.03129 3.268,-7.29928 7.29928,-7.29928c4.03129,0 7.29928,3.268 7.29928,7.29928c0,4.03129 -3.268,7.29928 -7.29928,7.29928c-4.03129,0 -7.29928,-3.268 -7.29928,-7.29928z" fill="#ffd626" stroke="#000000" stroke-width="1" stroke-linecap="butt"/><path d="M182.48657,338.42202c0,-4.03129 3.268,-7.29928 7.29928,-7.29928c4.03129,0 7.29928,3.268 7.29928,7.29928c0,4.03129 -3.268,7.29928 -7.29928,7.29928c-4.03129,0 -7.29928,-3.268 -7.29928,-7.29928z" fill="#26a0ff" stroke="#000000" stroke-width="1" stroke-linecap="butt"/><path d="M169.81309,304.09135c0,-4.03129 3.268,-7.29928 7.29928,-7.29928c4.03129,0 7.29928,3.268 7.29928,7.29928c0,4.03129 -3.268,7.29928 -7.29928,7.29928c-4.03129,0 -7.29928,-3.268 -7.29928,-7.29928z" fill="#26a0ff" stroke="#000000" stroke-width="1" stroke-linecap="butt"/><path d="M197.56639,320.93584c0,-4.03129 3.268,-7.29928 7.29928,-7.29928c4.03129,0 7.29928,3.268 7.29928,7.29928c0,4.03129 -3.268,7.29928 -7.29928,7.29928c-4.03129,0 -7.29928,-3.268 -7.29928,-7.29928z" fill="#26ff41" stroke="#000000" stroke-width="1" stroke-linecap="butt"/><path d="M207.03137,297.19314c0,-4.03129 3.268,-7.29928 7.29928,-7.29928c4.03129,0 7.29928,3.268 7.29928,7.29928c0,4.03129 -3.268,7.29928 -7.29928,7.29928c-4.03129,0 -7.29928,-3.268 -7.29928,-7.29928z" fill="#26ff41" stroke="#000000" stroke-width="1" stroke-linecap="butt"/><path d="M211.52325,335.85522c0,-4.03129 3.268,-7.29928 7.29928,-7.29928c4.03129,0 7.29928,3.268 7.29928,7.29928c0,4.03129 -3.268,7.29928 -7.29928,7.29928c-4.03129,0 -7.29928,-3.268 -7.29928,-7.29928z" fill="#ff25ed" stroke="#000000" stroke-width="1" stroke-linecap="butt"/><path d="M137.88876,331.20293c0,-4.03129 3.268,-7.29928 7.29928,-7.29928c4.03129,0 7.29928,3.268 7.29928,7.29928c0,4.03129 -3.268,7.29928 -7.29928,7.29928c-4.03129,0 -7.29928,-3.268 -7.29928,-7.29928z" fill="#ffd626" stroke="#000000" stroke-width="1" stroke-linecap="butt"/></g></g></svg>