<svg version="1.1" xmlns="http://www.w3.org/2000/svg" xmlns:xlink="http://www.w3.org/1999/xlink" width="307.94079" height="581.02019" viewBox="0,0,307.94079,581.02019"><defs><linearGradient x1="112.37728" y1="175.53017" x2="122.98256" y2="175.53017" gradientUnits="userSpaceOnUse" id="color-1"><stop offset="0" stop-color="#b5b5b5"/><stop offset="1" stop-color="#c8c8c8"/></linearGradient></defs><g transform="translate(-22.61198,-4.59121)"><g stroke-miterlimit="10"><g stroke="none" stroke-width="1" stroke-linecap="butt"><path d="M284.7618,236.7032c0.15085,-0.16221 0.36088,-0.25622 0.58229,-0.26021c0.22193,-0.00451 0.43536,0.08166 0.59222,0.23852l12.68723,12.68723c0.15686,0.15686 0.24296,0.37036 0.23852,0.59222c-0.00399,0.22127 -0.098,0.43131 -0.26021,0.58229c-0.40746,0.37754 -10.10597,9.24244 -21.91857,8.86797c-0.43026,-0.01346 -0.77579,-0.35899 -0.78925,-0.78925c-0.37506,-11.81318 8.49023,-21.51143 8.86777,-21.91876z" fill="#707487"/><path d="M284.7618,236.7032c0.15085,-0.16221 0.36088,-0.25622 0.58229,-0.26021c0.22193,-0.00451 0.43536,0.08166 0.59222,0.23852l6.34362,6.34362l-16.14757,16.14757c-0.1419,-0.1419 -0.23153,-0.33567 -0.23832,-0.55073c-0.37506,-11.81318 8.49023,-21.51143 8.86777,-21.91876z" fill="#65687a"/><path d="M288.24376,244.75461l6.92028,-6.92028l2.30674,2.30674l-6.92028,6.92028c-0.63703,0.63703 -1.66977,0.63703 -2.30681,0v0c-0.63697,-0.63697 -0.63703,-1.66977 0.00007,-2.30674z" fill="#5b5d6e"/></g><g><path d="M86.70756,72.70477l10.75543,-16.3709l10.75544,16.3709z" fill="#ff0000" stroke="#bbbbbb" stroke-width="0" stroke-linecap="butt"/><path d="M91.2082,72.06182l10.75544,-16.3709l10.75544,16.3709z" fill="#ff9400" stroke="#bbbbbb" stroke-width="0" stroke-linecap="butt"/><path d="M133.85716,73.34772l10.75544,-16.37091l10.75544,16.37091z" fill="#ff0000" stroke="#bbbbbb" stroke-width="0" stroke-linecap="butt"/><path d="M64.63298,72.91909l10.75544,-16.37091l10.75544,16.37091z" fill="#ff0000" stroke="#bbbbbb" stroke-width="0" stroke-linecap="butt"/><path d="M79.42081,70.99024l10.75544,-16.37091l10.75544,16.37091z" fill="#ffea00" stroke="#bbbbbb" stroke-width="0" stroke-linecap="butt"/><path d="M104.2815,70.13297l10.75544,-16.37091l10.75544,16.37091z" fill="#ff0000" stroke="#bbbbbb" stroke-width="0" stroke-linecap="butt"/><path d="M119.06933,72.49045l10.75544,-16.3709l10.75544,16.3709z" fill="#ff0000" stroke="#bbbbbb" stroke-width="0" stroke-linecap="butt"/><path d="M133.64284,76.9911l10.75544,-16.37091l10.75544,16.37091z" fill="#ff9400" stroke="#bbbbbb" stroke-width="0" stroke-linecap="butt"/><path d="M125.49882,76.13383l10.75543,-16.37091l10.75544,16.37091z" fill="#ffea00" stroke="#bbbbbb" stroke-width="0" stroke-linecap="butt"/><path d="M146.50182,72.91909l10.75544,-16.3709l10.75544,16.3709z" fill="#ff0000" stroke="#bbbbbb" stroke-width="0" stroke-linecap="butt"/><path d="M56.27465,70.99024l10.75544,-16.37091l10.75544,16.37091z" fill="#ffea00" stroke="#bbbbbb" stroke-width="0" stroke-linecap="butt"/><path d="M72.777,73.1334l10.75543,-16.3709l10.75544,16.3709z" fill="#ff9400" stroke="#bbbbbb" stroke-width="0" stroke-linecap="butt"/><path d="M96.78043,71.8475l10.75544,-16.37091l10.75544,16.37091z" fill="#ffea00" stroke="#bbbbbb" stroke-width="0" stroke-linecap="butt"/><path d="M113.28279,73.99067l10.75544,-16.3709l10.75544,16.3709z" fill="#ff9400" stroke="#bbbbbb" stroke-width="0" stroke-linecap="butt"/><path d="M142.42981,74.4193l10.75544,-16.3709l10.75544,16.3709z" fill="#ffea00" stroke="#bbbbbb" stroke-width="0" stroke-linecap="butt"/><path d="M117.99775,78.27699l10.75544,-16.3709l10.75544,16.3709z" fill="#ffea00" stroke="#bbbbbb" stroke-width="0" stroke-linecap="butt"/><path d="M107.92488,78.49131l10.75544,-16.3709l10.75544,16.3709z" fill="#ffea00" stroke="#bbbbbb" stroke-width="0" stroke-linecap="butt"/><path d="M86.70756,78.06268l10.75544,-16.37091l10.75544,16.37091z" fill="#ffea00" stroke="#bbbbbb" stroke-width="0" stroke-linecap="butt"/><path d="M78.13491,77.41973l10.75543,-16.3709l10.75544,16.3709z" fill="#ffea00" stroke="#bbbbbb" stroke-width="0" stroke-linecap="butt"/><path d="M62.2755,76.9911l10.75543,-16.3709l10.75544,16.3709z" fill="#ffea00" stroke="#bbbbbb" stroke-width="0" stroke-linecap="butt"/><path d="M22.61198,109.30666v-40.72883h175.24116v40.72883z" fill="#bbbbbb" stroke="none" stroke-width="0" stroke-linecap="butt"/><g stroke="#000000" stroke-width="0.5"><g fill="none" stroke-linecap="round"><path d="M158.48741,47.09853h-95.86535"/><path d="M62.62206,52.2211h95.86535"/></g><g fill="#bfbfbf" stroke-linecap="butt"><path d="M39.65419,49.55488c0,-0.92408 0.74912,-1.6732 1.6732,-1.6732c0.92409,0 1.6732,0.74912 1.6732,1.6732c0,0.92408 -0.74912,1.6732 -1.6732,1.6732c-0.92409,0 -1.6732,-0.74912 -1.6732,-1.6732z"/><path d="M51.17307,49.55488c0,-0.92408 0.74912,-1.6732 1.6732,-1.6732c0.92409,0 1.6732,0.74912 1.6732,1.6732c0,0.92408 -0.74912,1.6732 -1.6732,1.6732c-0.92409,0 -1.6732,-0.74912 -1.6732,-1.6732z"/><path d="M62.69196,49.55488c0,-0.92408 0.74912,-1.6732 1.6732,-1.6732c0.92408,0 1.6732,0.74912 1.6732,1.6732c0,0.92408 -0.74912,1.6732 -1.6732,1.6732c-0.92408,0 -1.6732,-0.74912 -1.6732,-1.6732z"/><path d="M74.21084,49.55488c0,-0.92408 0.74912,-1.6732 1.6732,-1.6732c0.92408,0 1.6732,0.74912 1.6732,1.6732c0,0.92408 -0.74912,1.6732 -1.6732,1.6732c-0.92408,0 -1.6732,-0.74912 -1.6732,-1.6732z"/><path d="M85.86367,49.68882c0,-0.92408 0.74912,-1.6732 1.6732,-1.6732c0.92408,0 1.67321,0.74912 1.67321,1.6732c0,0.92408 -0.74912,1.6732 -1.67321,1.6732c-0.92408,0 -1.6732,-0.74912 -1.6732,-1.6732z"/><path d="M97.24861,49.55488c0,-0.92408 0.74912,-1.6732 1.6732,-1.6732c0.92408,0 1.6732,0.74912 1.6732,1.6732c0,0.92408 -0.74912,1.6732 -1.6732,1.6732c-0.92408,0 -1.6732,-0.74912 -1.6732,-1.6732z"/><path d="M108.7675,49.55488c0,-0.92408 0.74912,-1.6732 1.67321,-1.6732c0.92408,0 1.6732,0.74912 1.6732,1.6732c0,0.92408 -0.74912,1.6732 -1.6732,1.6732c-0.92409,0 -1.67321,-0.74912 -1.67321,-1.6732z"/><path d="M120.28639,49.55488c0,-0.92408 0.74912,-1.6732 1.6732,-1.6732c0.92408,0 1.6732,0.74912 1.6732,1.6732c0,0.92408 -0.74912,1.6732 -1.6732,1.6732c-0.92408,0 -1.6732,-0.74912 -1.6732,-1.6732z"/><path d="M131.80527,49.55488c0,-0.92408 0.74912,-1.6732 1.6732,-1.6732c0.92408,0 1.6732,0.74912 1.6732,1.6732c0,0.92408 -0.74912,1.6732 -1.6732,1.6732c-0.92408,0 -1.6732,-0.74912 -1.6732,-1.6732z"/><path d="M143.32416,49.55488c0,-0.92408 0.74912,-1.6732 1.6732,-1.6732c0.92408,0 1.6732,0.74912 1.6732,1.6732c0,0.92408 -0.74912,1.6732 -1.6732,1.6732c-0.92408,0 -1.6732,-0.74912 -1.6732,-1.6732z"/><path d="M154.97698,49.68882c0,-0.92408 0.74912,-1.6732 1.6732,-1.6732c0.92408,0 1.67321,0.74912 1.67321,1.6732c0,0.92408 -0.74912,1.6732 -1.67321,1.6732c-0.92408,0 -1.6732,-0.74912 -1.6732,-1.6732z"/><path d="M166.36193,49.55488c0,-0.92408 0.74912,-1.6732 1.6732,-1.6732c0.92408,0 1.6732,0.74912 1.6732,1.6732c0,0.92408 -0.74912,1.6732 -1.6732,1.6732c-0.92408,0 -1.6732,-0.74912 -1.6732,-1.6732z"/><path d="M177.88081,49.55488c0,-0.92408 0.74912,-1.6732 1.6732,-1.6732c0.92408,0 1.6732,0.74912 1.6732,1.6732c0,0.92408 -0.74912,1.6732 -1.6732,1.6732c-0.92408,0 -1.6732,-0.74912 -1.6732,-1.6732z"/></g></g><path d="M50.47908,91.04619v-73.95498h120.57878v73.95498z" fill="none" stroke="#bbbbbb" stroke-width="25" stroke-linecap="butt"/></g><g stroke-linecap="butt"><path d="M137.06932,190.02819c0,2.00364 -8.66278,3.62791 -19.34886,3.62791c-10.68608,0 -19.34886,-1.62427 -19.34886,-3.62791c0,-2.00364 8.66278,-3.62791 19.34886,-3.62791c10.68608,0 19.34886,1.62427 19.34886,3.62791z" fill="#b40000" stroke="#bbbbbb" stroke-width="1"/><path d="M98.25734,190.01589v-3.99226h39.07573v3.99226z" fill="#b40000" stroke="none" stroke-width="0"/><path d="M136.94835,186.18163c0,2.00364 -8.66278,3.62791 -19.34886,3.62791c-10.68608,0 -19.34886,-1.62427 -19.34886,-3.62791c0,-2.00364 8.66278,-3.62791 19.34886,-3.62791c10.68608,0 19.34886,1.62427 19.34886,3.62791z" fill="#b40000" stroke="#bbbbbb" stroke-width="0.5"/><path d="M112.37728,185.87678v-20.69322h10.60527v20.69322z" fill="url(#color-1)" stroke="none" stroke-width="0"/><path d="M30.46867,275.03278v-40.72883h175.24116v40.72883z" fill="#bbbbbb" stroke="none" stroke-width="0"/><path d="M82.64289,262.8754v-104.65116h69.39235v104.65116z" fill="none" stroke="#bbbbbb" stroke-width="25"/><path d="M100.79787,235.26147v-7.01669h31.46881v7.01669z" fill="#bbbbbb" stroke="none" stroke-width="0"/></g><g><path d="M134.77173,337.58062l-12.86866,22.15514" fill="none" stroke="#000000" stroke-width="0.5" stroke-linecap="round"/><path d="M99.19038,336.65648l7.71539,24.43206" fill="none" stroke="#000000" stroke-width="0.5" stroke-linecap="round"/><path d="M29.14465,438.41755v-40.72883h175.24116v40.72883z" fill="#bbbbbb" stroke="none" stroke-width="0" stroke-linecap="butt"/><path d="M81.31887,426.26018v-104.65116h69.39235v104.65116z" fill="none" stroke="#bbbbbb" stroke-width="25" stroke-linecap="butt"/><path d="M123.33062,351.51725c-0.96887,-0.53044 -1.32429,-1.74587 -0.79385,-2.71474l15.0609,-27.50921c0.53044,-0.96887 1.74587,-1.32428 2.71474,-0.79384l5.89075,3.2251c0.96887,0.53044 1.32428,1.74587 0.79384,2.71474l-15.0609,27.5092c-0.53044,0.96887 -1.74587,1.32429 -2.71474,0.79385z" fill="#bbbbbb" stroke="none" stroke-width="0" stroke-linecap="butt"/><path d="M97.66517,318.63646c1.06017,-0.31002 2.17093,0.29811 2.48094,1.35828l8.80228,30.10161c0.31002,1.06017 -0.29811,2.17093 -1.35828,2.48094l-6.44588,1.8849c-1.06017,0.31002 -2.17092,-0.29811 -2.48094,-1.35828l-8.80228,-30.10161c-0.31002,-1.06017 0.29811,-2.17093 1.35828,-2.48094z" fill="#bbbbbb" stroke="none" stroke-width="0" stroke-linecap="butt"/></g><path d="M75.91148,585.6114v-83.27082h84.3961v83.27082z" fill="#ffca66" stroke="none" stroke-width="0" stroke-linecap="butt"/><path d="M77.03676,583.73593v-79.51988h12.37809v79.51988z" fill="#ffe493" stroke="none" stroke-width="0" stroke-linecap="butt"/><path d="M146.05401,583.73594v-79.51988h12.3781v79.51988z" fill="#ffe493" stroke="none" stroke-width="0" stroke-linecap="butt"/><path d="M77.9745,504.02851h79.51988v12.3781h-79.51988z" fill="#ffe493" stroke="none" stroke-width="0" stroke-linecap="butt"/><path d="M77.9745,571.17029h79.51988v12.37809h-79.51988z" fill="#ffe493" stroke="none" stroke-width="0" stroke-linecap="butt"/><path d="M92.87095,512.23534l56.22905,56.22905l-8.75263,8.75263l-56.22905,-56.22905z" fill="#ffe493" stroke="none" stroke-width="0" stroke-linecap="butt"/><path d="M149.85018,520.23779l-56.22904,56.22904l-8.75264,-8.75264l56.22905,-56.22904z" fill="#ffe493" stroke="none" stroke-width="0" stroke-linecap="butt"/><g stroke="#000000" stroke-width="0.5"><path d="M330.26333,158.59561h-141.85824" fill="none" stroke-linecap="round"/><path d="M188.72975,161.58175c0,-0.92408 0.74912,-1.6732 1.6732,-1.6732c0.92409,0 1.6732,0.74912 1.6732,1.6732c0,0.92408 -0.74912,1.6732 -1.6732,1.6732c-0.92409,0 -1.6732,-0.74912 -1.6732,-1.6732z" fill="#bfbfbf" stroke-linecap="butt"/><path d="M200.24863,161.58175c0,-0.92408 0.74912,-1.6732 1.6732,-1.6732c0.92409,0 1.6732,0.74912 1.6732,1.6732c0,0.92408 -0.74912,1.6732 -1.6732,1.6732c-0.92409,0 -1.6732,-0.74912 -1.6732,-1.6732z" fill="#bfbfbf" stroke-linecap="butt"/><path d="M211.76752,161.58175c0,-0.92408 0.74912,-1.6732 1.6732,-1.6732c0.92408,0 1.6732,0.74912 1.6732,1.6732c0,0.92408 -0.74912,1.6732 -1.6732,1.6732c-0.92408,0 -1.6732,-0.74912 -1.6732,-1.6732z" fill="#bfbfbf" stroke-linecap="butt"/><path d="M223.2864,161.58175c0,-0.92408 0.74912,-1.6732 1.6732,-1.6732c0.92408,0 1.6732,0.74912 1.6732,1.6732c0,0.92408 -0.74912,1.6732 -1.6732,1.6732c-0.92408,0 -1.6732,-0.74912 -1.6732,-1.6732z" fill="#bfbfbf" stroke-linecap="butt"/><path d="M234.93923,161.71569c0,-0.92408 0.74912,-1.6732 1.6732,-1.6732c0.92408,0 1.67321,0.74912 1.67321,1.6732c0,0.92408 -0.74912,1.6732 -1.67321,1.6732c-0.92408,0 -1.6732,-0.74912 -1.6732,-1.6732z" fill="#bfbfbf" stroke-linecap="butt"/><path d="M246.32417,161.58175c0,-0.92408 0.74912,-1.6732 1.6732,-1.6732c0.92408,0 1.6732,0.74912 1.6732,1.6732c0,0.92408 -0.74912,1.6732 -1.6732,1.6732c-0.92408,0 -1.6732,-0.74912 -1.6732,-1.6732z" fill="#bfbfbf" stroke-linecap="butt"/><path d="M257.84306,161.58175c0,-0.92408 0.74912,-1.6732 1.67321,-1.6732c0.92408,0 1.6732,0.74912 1.6732,1.6732c0,0.92408 -0.74912,1.6732 -1.6732,1.6732c-0.92409,0 -1.67321,-0.74912 -1.67321,-1.6732z" fill="#bfbfbf" stroke-linecap="butt"/><path d="M269.36195,161.58175c0,-0.92408 0.74912,-1.6732 1.6732,-1.6732c0.92408,0 1.6732,0.74912 1.6732,1.6732c0,0.92408 -0.74912,1.6732 -1.6732,1.6732c-0.92408,0 -1.6732,-0.74912 -1.6732,-1.6732z" fill="#bfbfbf" stroke-linecap="butt"/><path d="M280.88083,161.58175c0,-0.92408 0.74912,-1.6732 1.6732,-1.6732c0.92408,0 1.6732,0.74912 1.6732,1.6732c0,0.92408 -0.74912,1.6732 -1.6732,1.6732c-0.92408,0 -1.6732,-0.74912 -1.6732,-1.6732z" fill="#bfbfbf" stroke-linecap="butt"/><path d="M292.39972,161.58175c0,-0.92408 0.74912,-1.6732 1.6732,-1.6732c0.92408,0 1.6732,0.74912 1.6732,1.6732c0,0.92408 -0.74912,1.6732 -1.6732,1.6732c-0.92408,0 -1.6732,-0.74912 -1.6732,-1.6732z" fill="#bfbfbf" stroke-linecap="butt"/><path d="M304.05254,161.71569c0,-0.92408 0.74912,-1.6732 1.6732,-1.6732c0.92408,0 1.67321,0.74912 1.67321,1.6732c0,0.92408 -0.74912,1.6732 -1.67321,1.6732c-0.92408,0 -1.6732,-0.74912 -1.6732,-1.6732z" fill="#bfbfbf" stroke-linecap="butt"/><path d="M315.43749,161.58175c0,-0.92408 0.74912,-1.6732 1.6732,-1.6732c0.92408,0 1.6732,0.74912 1.6732,1.6732c0,0.92408 -0.74912,1.6732 -1.6732,1.6732c-0.92408,0 -1.6732,-0.74912 -1.6732,-1.6732z" fill="#bfbfbf" stroke-linecap="butt"/><path d="M326.95637,161.58175c0,-0.92408 0.74912,-1.6732 1.6732,-1.6732c0.92408,0 1.6732,0.74912 1.6732,1.6732c0,0.92408 -0.74912,1.6732 -1.6732,1.6732c-0.92408,0 -1.6732,-0.74912 -1.6732,-1.6732z" fill="#bfbfbf" stroke-linecap="butt"/><path d="M330.26333,164.32005h-141.85824" fill="none" stroke-linecap="round"/></g></g></g></svg>